<?xml version="1.0" encoding="utf-8"?>
<!-- Generator: Adobe Illustrator 15.0.0, SVG Export Plug-In . SVG Version: 6.00 Build 0)  -->
<!DOCTYPE svg PUBLIC "-//W3C//DTD SVG 1.1//EN" "http://www.w3.org/Graphics/SVG/1.1/DTD/svg11.dtd">
<svg version="1.1" id="Layer_1" xmlns="http://www.w3.org/2000/svg" xmlns:xlink="http://www.w3.org/1999/xlink" x="0px" y="0px"
	 width="277px" height="81.666px" viewBox="0 0 277 81.666" enable-background="new 0 0 277 81.666" xml:space="preserve">
<g>
	<path fill="#FFFFFF" d="M12.298,8.628c-0.903,0.744-1.935,1.857-3.096,3.338c-1.16,1.482-2.033,3.048-2.618,4.696
		C6,18.311,5.659,19.486,5.557,20.188c-0.1,0.701-0.129,1.348-0.086,1.94c0.041,0.592,0.262,1.441,0.659,2.548
		c0.397,1.106,0.846,1.938,1.349,2.492c0.502,0.555,1.096,1.089,1.783,1.603c0.686,0.514,1.352,0.81,2,0.887
		c0.647,0.077,1.024,0.095,1.132,0.056c0.106-0.038,0.189-0.297,0.253-0.773c0.061-0.478-0.375-0.857-1.31-1.142
		c-0.936-0.283-1.68-0.742-2.233-1.376c-0.553-0.635-0.958-1.24-1.217-1.815c-0.258-0.576-0.437-1.379-0.534-2.411
		c-0.099-1.031,0.063-2.279,0.483-3.741c0.42-1.464,0.923-2.687,1.505-3.666c0.584-0.982,1.285-1.924,2.103-2.826
		c0.817-0.903,1.541-1.519,2.169-1.846c0.628-0.327,1.1-0.491,1.415-0.492c0.314,0,0.614,0.067,0.899,0.202
		c0.286,0.136,0.58,0.128,0.879-0.022c0.299-0.15,0.45-0.308,0.454-0.473c0.002-0.166-0.086-0.474-0.269-0.925
		c-0.182-0.449-0.437-0.735-0.769-0.857c-0.33-0.122-0.692-0.214-1.086-0.277c-0.394-0.063-0.743-0.037-1.046,0.081
		C13.799,7.459,13.201,7.884,12.298,8.628z"/>
	<path fill="#FFFFFF" d="M15.411,21.106c-0.351,0.402-0.553,0.629-0.605,0.682s-0.028,0.068,0.072,0.046
		c0.1-0.024,0.02,0.161-0.243,0.55c-0.262,0.391-0.459,0.766-0.593,1.13c-0.135,0.363-0.225,0.847-0.271,1.451
		c-0.046,0.605-0.019,1.031,0.085,1.279c0.104,0.248,0.246,0.489,0.428,0.725c0.181,0.235,0.423,0.413,0.727,0.533
		c0.303,0.12,0.589,0.128,0.859,0.026s0.568-0.261,0.894-0.477c0.325-0.216,0.602-0.453,0.829-0.712
		c0.229-0.259,0.403-0.508,0.525-0.744c0.123-0.236,0.217-0.464,0.283-0.68c0.066-0.218,0.116-0.552,0.149-1.002
		c0.033-0.451,0.05-0.862,0.052-1.232c0.002-0.369-0.003-0.72-0.014-1.051c-0.01-0.332,0.063-0.524,0.227-0.577
		s0.829-0.067,1.997-0.042c1.169,0.024,1.344,0.008,0.525-0.049c-0.819-0.057-1.504-0.093-2.056-0.11
		c-0.551-0.016-0.89-0.14-1.016-0.374c-0.126-0.232-0.286-0.398-0.48-0.496c-0.193-0.097-0.444-0.126-0.75-0.087
		c-0.304,0.041-0.567,0.155-0.787,0.342C16.041,20.416,15.761,20.705,15.411,21.106z M16.994,24.381
		c-0.194,0.708-0.425,1.161-0.689,1.363s-0.462,0.284-0.599,0.245c-0.137-0.041-0.262-0.168-0.378-0.384
		c-0.118-0.215-0.126-0.58-0.028-1.094c0.097-0.514,0.339-0.993,0.725-1.437c0.386-0.444,0.693-0.512,0.921-0.202
		C17.173,23.169,17.189,23.672,16.994,24.381z"/>
	<path fill="#FFFFFF" d="M23.305,17.145c-0.123,0.479-0.214,0.858-0.272,1.138c-0.058,0.278-0.229,0.838-0.514,1.679
		c-0.285,0.841-0.582,1.257-0.89,1.248c-0.309-0.01-0.666,0.074-1.072,0.252c-0.406,0.178-0.62,0.425-0.64,0.738
		c-0.022,0.314,0.092,0.475,0.34,0.481c0.248,0.007,0.533-0.009,0.854-0.048c0.322-0.04,0.462,0.045,0.418,0.252
		c-0.043,0.208-0.262,0.732-0.657,1.574c-0.395,0.84-0.71,1.57-0.944,2.187c-0.236,0.618-0.255,0.975-0.061,1.073
		c0.193,0.098,0.413,0.12,0.659,0.066c0.245-0.054,0.447-0.143,0.609-0.268c0.161-0.125,0.319-0.376,0.476-0.754
		c0.156-0.379,0.481-1.138,0.974-2.278c0.493-1.14,0.831-1.735,1.016-1.787c0.184-0.051,0.563-0.135,1.137-0.25
		c0.574-0.115,1.455-0.231,2.641-0.349c1.187-0.118,1.249-0.192,0.185-0.224c-1.063-0.03-1.834-0.101-2.315-0.214
		c-0.48-0.111-0.816-0.216-1.01-0.315c-0.194-0.096-0.186-0.493,0.025-1.189c0.211-0.695,0.381-1.236,0.511-1.622
		c0.129-0.385,0.261-0.697,0.395-0.932c0.132-0.236,0.161-0.467,0.083-0.691c-0.077-0.224-0.177-0.417-0.302-0.578
		c-0.124-0.161-0.33-0.259-0.614-0.295c-0.285-0.036-0.498,0.019-0.638,0.168C23.559,16.353,23.428,16.666,23.305,17.145z"/>
	<path fill="#FFFFFF" d="M30.65,12.213c-0.165,0.445-0.724,1.692-1.674,3.74c-0.953,2.051-1.813,4.154-2.582,6.312
		s-1.162,3.4-1.178,3.724c-0.016,0.325,0.048,0.579,0.194,0.762c0.146,0.185,0.354,0.322,0.625,0.413
		c0.271,0.09,0.513-0.104,0.725-0.585c0.212-0.48,0.527-1.063,0.948-1.749c0.42-0.685,1.021-1.291,1.802-1.814
		c0.782-0.523,1.259-0.695,1.434-0.516c0.173,0.179,0.209,0.713,0.111,1.603c-0.099,0.889-0.11,1.547-0.032,1.977
		c0.078,0.428,0.249,0.762,0.512,1.001c0.264,0.24,0.528,0.363,0.793,0.372c0.264,0.007,0.61-0.075,1.039-0.247
		c0.428-0.171,0.793-0.379,1.099-0.625c0.304-0.244,0.54-0.528,0.704-0.85c0.166-0.323,0.103-0.345-0.186-0.066
		c-0.291,0.276-0.687,0.462-1.187,0.553c-0.502,0.091-0.849,0.022-1.041-0.208c-0.193-0.231-0.32-0.491-0.384-0.781
		c-0.063-0.29-0.036-0.716,0.081-1.28c0.115-0.563,0.173-1.102,0.17-1.621c0-0.519-0.06-0.881-0.176-1.084
		c-0.117-0.206-0.286-0.376-0.504-0.514c-0.221-0.137-0.469-0.188-0.747-0.152c-0.276,0.036-0.531,0.097-0.761,0.186
		c-0.231,0.087-0.49,0.232-0.775,0.433s-0.547,0.398-0.782,0.59c-0.236,0.193-0.476,0.41-0.719,0.651
		c-0.245,0.243-0.206-0.098,0.116-1.021c0.322-0.922,0.996-2.475,2.02-4.658c1.024-2.184,1.807-3.61,2.348-4.278
		c0.541-0.669,0.637-1.15,0.287-1.443c-0.349-0.292-0.815-0.387-1.393-0.284C31.11,11.282,30.816,11.768,30.65,12.213z"/>
	<path fill="#FFFFFF" d="M37.298,21.176c-0.508,0.344-0.913,0.691-1.219,1.04c-0.305,0.349-0.583,0.793-0.835,1.333
		c-0.253,0.54-0.389,1.043-0.406,1.511c-0.019,0.468,0.027,0.84,0.135,1.115c0.107,0.276,0.25,0.518,0.426,0.726
		c0.177,0.207,0.373,0.388,0.587,0.542c0.213,0.154,0.537,0.272,0.975,0.354c0.437,0.084,0.888,0.056,1.354-0.082
		c0.464-0.136,0.839-0.297,1.125-0.482c0.285-0.185,0.653-0.45,1.107-0.797c0.453-0.347,0.834-0.701,1.145-1.061
		c0.31-0.36,0.572-0.667,0.783-0.921c0.21-0.254,0.172-0.257-0.116-0.006c-0.289,0.25-0.59,0.509-0.908,0.774
		c-0.316,0.266-0.869,0.539-1.654,0.819c-0.787,0.282-1.325,0.446-1.613,0.492c-0.29,0.045-0.565,0.041-0.827-0.017
		c-0.262-0.057-0.494-0.226-0.695-0.506c-0.202-0.281-0.292-0.58-0.27-0.899c0.021-0.319,0.139-0.633,0.353-0.943
		c0.012-0.032,0.048-0.038,0.108-0.019c0.06,0.02,0.142,0.041,0.246,0.062c0.103,0.022,0.234,0.035,0.395,0.037
		c0.16,0.002,0.34-0.03,0.542-0.098c0.721-0.284,1.303-0.578,1.749-0.881c0.446-0.302,0.686-0.689,0.72-1.156
		c0.034-0.467-0.021-0.856-0.166-1.167c-0.144-0.31-0.586-0.456-1.327-0.438C38.378,20.608,37.807,20.831,37.298,21.176z
		 M38.874,22.462c-0.179,0.151-0.415,0.3-0.709,0.444c-0.295,0.146-0.483,0.171-0.567,0.08c-0.083-0.094-0.052-0.232,0.095-0.418
		c0.148-0.185,0.376-0.347,0.688-0.486c0.31-0.139,0.503-0.169,0.574-0.088C39.078,22.155,39.051,22.311,38.874,22.462z"/>
	<path fill="#FFFFFF" d="M41.909,26.676c-0.316,0.912-0.506,1.407-0.57,1.486c-0.066,0.08-0.047,0.26,0.055,0.542
		c0.103,0.281,0.332,0.42,0.691,0.423c0.358,0.001,0.602-0.136,0.732-0.411c0.129-0.275,0.28-0.628,0.45-1.062
		c0.17-0.431,0.412-0.963,0.725-1.594c0.312-0.63,0.64-1.077,0.984-1.342c0.344-0.264,0.762-0.5,1.252-0.707
		c0.49-0.208,1.173-0.279,2.046-0.213c0.875,0.066,1.738-0.06,2.593-0.376c0.855-0.316,0.933-0.384,0.234-0.204
		c-0.699,0.181-1.251,0.13-1.657-0.149c-0.405-0.279-0.837-0.502-1.299-0.669c-0.46-0.166-0.774-0.236-0.941-0.211
		c-0.166,0.024-0.388,0.088-0.663,0.189c-0.276,0.103-0.568,0.244-0.874,0.421c-0.307,0.178-0.552,0.275-0.735,0.294
		c-0.182,0.018-0.151-0.185,0.096-0.608c0.248-0.423,0.285-0.788,0.112-1.094c-0.171-0.308-0.441-0.485-0.809-0.537
		c-0.367-0.052-0.786,0.678-1.259,2.188C42.612,24.555,42.224,25.765,41.909,26.676z"/>
	<path fill="#FFFFFF" d="M50.64,23.518c0.04,0.19,0.075,0.413,0.107,0.668c0.032,0.254,0.048,0.639,0.051,1.153
		c0.002,0.513-0.083,1.025-0.25,1.535c-0.169,0.51-0.193,0.892-0.074,1.148c0.119,0.253,0.309,0.393,0.566,0.416
		c0.259,0.024,0.826-0.416,1.706-1.321c0.878-0.906,1.492-1.436,1.842-1.59c0.35-0.153,0.472,0.27,0.367,1.269
		c-0.104,0.998-0.049,1.716,0.167,2.152c0.215,0.435,0.395,0.701,0.54,0.796c0.145,0.095,0.348,0.042,0.612-0.16
		c0.264-0.202,0.661-0.696,1.192-1.48c0.529-0.785,0.877-1.399,1.043-1.843c0.165-0.445,0.399-0.891,0.703-1.34
		c0.304-0.449,0.858-0.668,1.664-0.663c0.805,0.008,1.723-0.071,2.751-0.235c1.028-0.165,0.846-0.171-0.546-0.02
		c-1.392,0.153-2.306-0.012-2.74-0.491c-0.434-0.479-0.87-0.594-1.306-0.347c-0.438,0.25-0.815,0.563-1.131,0.946
		c-0.317,0.381-0.554,0.773-0.713,1.173c-0.158,0.4-0.369,0.875-0.633,1.425c-0.265,0.549-0.299,0.27-0.1-0.84
		c0.199-1.111,0.19-1.883-0.025-2.319c-0.215-0.435-0.579-0.562-1.09-0.376c-0.512,0.184-1.18,0.642-2.005,1.374
		c-0.826,0.73-1.2,0.489-1.123-0.726c0.077-1.216,0.001-1.907-0.229-2.073c-0.229-0.166-0.517-0.232-0.867-0.2
		c-0.349,0.032-0.526,0.323-0.531,0.875C50.582,22.964,50.599,23.328,50.64,23.518z"/>
	<path fill="#FFFFFF" d="M65.404,16.53c-0.306,0.057-0.523,0.153-0.652,0.29c-0.128,0.137-0.236,0.353-0.321,0.646
		c-0.086,0.293-0.005,0.548,0.243,0.766c0.249,0.216,0.408,0.333,0.479,0.354c0.07,0.02,0.157,0.05,0.261,0.087
		c0.102,0.037,0.273,0.204,0.513,0.497c0.239,0.294,0.619,0.755,1.139,1.381c0.521,0.627,1.013,1.104,1.477,1.43
		c0.463,0.327,0.935,0.543,1.417,0.65c0.479,0.106,0.495,0.071,0.045-0.105c-0.448-0.178-0.939-0.466-1.471-0.868
		c-0.533-0.402-0.986-0.929-1.361-1.582c-0.376-0.654-0.572-1.314-0.589-1.983c-0.016-0.669-0.141-1.108-0.374-1.318
		C65.979,16.555,65.71,16.472,65.404,16.53z M62.381,22.082c-0.393,0.244-0.481,0.381-0.27,0.408
		c0.214,0.027,0.194,0.389-0.061,1.082c-0.255,0.693-0.53,1.51-0.825,2.451c-0.295,0.939-0.493,1.638-0.593,2.096
		c-0.1,0.459-0.104,0.716-0.013,0.769c0.092,0.055,0.259,0.071,0.502,0.052c0.243-0.022,0.508-0.229,0.792-0.615
		c0.284-0.389,0.547-0.853,0.79-1.393c0.241-0.54,0.504-1.244,0.792-2.112c0.286-0.868,0.544-1.573,0.775-2.114
		s0.191-0.862-0.119-0.965c-0.309-0.104-0.586-0.135-0.831-0.091C63.087,21.692,62.774,21.836,62.381,22.082z"/>
	<path fill="#FFFFFF" d="M67.634,22.947c-0.329,0.298-0.584,0.657-0.765,1.08c-0.181,0.42-0.212,1.063-0.095,1.923
		c0.117,0.862,0.175,1.415,0.174,1.664c-0.001,0.249-0.053,0.517-0.156,0.803c-0.104,0.288-0.25,0.529-0.442,0.724
		c-0.191,0.194-0.447,0.344-0.767,0.449c-0.318,0.106-0.586,0.026-0.798-0.238c-0.213-0.265,0.223-0.896,1.31-1.896
		c1.088-1,0.989-0.971-0.294,0.084c-1.283,1.057-1.899,1.793-1.848,2.208c0.052,0.418,0.23,0.7,0.538,0.847
		c0.307,0.147,0.598,0.229,0.874,0.242c0.274,0.015,0.61-0.019,1.005-0.1c0.395-0.079,0.731-0.216,1.006-0.414
		c0.274-0.195,0.54-0.516,0.792-0.961c0.254-0.445,0.348-0.99,0.28-1.633c-0.067-0.644-0.137-1.078-0.208-1.302
		c-0.072-0.223-0.065-0.624,0.018-1.199c0.084-0.574,0.318-1.066,0.702-1.471c0.385-0.406,0.735-0.615,1.049-0.627
		c0.315-0.012,0.568-0.122,0.761-0.333c0.194-0.212,0.249-0.435,0.167-0.672c-0.081-0.235-0.345-0.331-0.788-0.286
		c-0.445,0.043-0.892,0.165-1.344,0.363C68.354,22.4,67.964,22.648,67.634,22.947z"/>
	<path fill="#FFFFFF" d="M72.502,22.923c-0.507,0.345-0.915,0.692-1.219,1.04c-0.304,0.349-0.582,0.793-0.835,1.333
		c-0.253,0.539-0.389,1.043-0.406,1.511c-0.017,0.467,0.027,0.84,0.135,1.116c0.107,0.277,0.25,0.518,0.427,0.724
		c0.178,0.208,0.373,0.389,0.586,0.542c0.212,0.154,0.538,0.273,0.975,0.355c0.437,0.082,0.888,0.055,1.354-0.082
		c0.464-0.137,0.839-0.297,1.125-0.482c0.284-0.185,0.653-0.45,1.108-0.797c0.453-0.347,0.834-0.701,1.144-1.061
		c0.311-0.359,0.572-0.667,0.783-0.921c0.211-0.254,0.172-0.255-0.115-0.006c-0.29,0.251-0.592,0.509-0.909,0.774
		c-0.317,0.265-0.868,0.541-1.654,0.821c-0.788,0.28-1.325,0.444-1.615,0.491c-0.288,0.045-0.564,0.04-0.826-0.017
		c-0.262-0.057-0.493-0.227-0.695-0.507c-0.201-0.28-0.291-0.58-0.27-0.899c0.021-0.32,0.14-0.634,0.352-0.943
		c0.014-0.032,0.049-0.038,0.11-0.019c0.06,0.019,0.141,0.041,0.245,0.062c0.104,0.022,0.235,0.035,0.396,0.037
		c0.159,0.002,0.341-0.03,0.543-0.097c0.72-0.284,1.303-0.578,1.749-0.881s0.686-0.689,0.719-1.157
		c0.035-0.466-0.021-0.855-0.166-1.166c-0.145-0.311-0.586-0.458-1.327-0.439C73.582,22.356,73.011,22.579,72.502,22.923z
		 M74.077,24.21c-0.179,0.152-0.414,0.3-0.709,0.445c-0.294,0.146-0.483,0.171-0.566,0.08c-0.084-0.093-0.052-0.232,0.095-0.418
		c0.147-0.186,0.376-0.348,0.687-0.486c0.311-0.14,0.502-0.169,0.575-0.088C74.283,23.903,74.256,24.059,74.077,24.21z"/>
	<path fill="#FFFFFF" d="M87.231,17.985c-0.429,0.983-0.788,1.708-1.076,2.172c-0.288,0.467-0.77,1.168-1.446,2.106
		c-0.675,0.937-0.581,0.857,0.286-0.244c0.865-1.099,1.488-1.967,1.867-2.604c0.379-0.638,0.489-0.533,0.333,0.314
		c-0.159,0.846-0.512,2.306-1.062,4.375c-0.55,2.068-1.014,3.455-1.39,4.16c-0.378,0.703-0.604,1.186-0.678,1.448
		c-0.074,0.261-0.069,0.438,0.015,0.531c0.083,0.092,0.285,0.187,0.599,0.285c0.314,0.099,0.619-0.126,0.911-0.675
		c0.292-0.549,0.639-1.372,1.041-2.473c0.403-1.099,0.664-1.6,0.787-1.501c0.122,0.102,0.335,0.349,0.641,0.744
		c0.306,0.396,0.678,0.925,1.114,1.587c0.435,0.662,0.896,1.222,1.381,1.682c0.485,0.46,0.854,0.678,1.11,0.652
		c0.255-0.027,0.466-0.06,0.634-0.102c0.167-0.041,0.287-0.134,0.36-0.28c0.074-0.145-0.201-0.545-0.825-1.2
		c-0.626-0.654-1.124-1.281-1.496-1.878c-0.374-0.599-0.584-0.984-0.63-1.157c-0.048-0.173-0.09-0.346-0.132-0.52
		c-0.041-0.173,0.467-0.575,1.525-1.208c1.057-0.631,1.664-1.079,1.822-1.34c0.156-0.263,0.201-0.597,0.132-1.004
		c-0.068-0.406-0.315-0.489-0.74-0.252c-0.426,0.238-0.879,0.52-1.358,0.843c-0.479,0.324-0.916,0.631-1.311,0.92
		c-0.396,0.289-0.817,0.443-1.265,0.459c-0.447,0.015-0.487-0.595-0.115-1.834c0.37-1.241,0.714-2.48,1.037-3.723
		c0.321-1.243,0.285-1.955-0.109-2.142c-0.394-0.184-0.712-0.167-0.954,0.053C87.997,16.401,87.661,17.002,87.231,17.985z"/>
	<path fill="#FFFFFF" d="M94.821,23.998c-0.106,0.134-0.215,0.279-0.328,0.439c-0.114,0.16-0.67,0.714-1.672,1.664
		c-1.001,0.949-1.211,1.181-0.63,0.697c0.581-0.483,1.071-0.844,1.469-1.078c0.397-0.234,0.447,0.009,0.146,0.728
		c-0.3,0.719-0.539,1.405-0.715,2.058c-0.176,0.654-0.296,1.139-0.361,1.454c-0.065,0.318-0.024,0.59,0.124,0.819
		c0.148,0.228,0.351,0.304,0.61,0.229c0.257-0.076,0.554-0.313,0.888-0.709c0.333-0.397,0.763-0.88,1.289-1.45
		c0.524-0.571,1.094-1.024,1.706-1.364s1.006-0.497,1.182-0.472c0.176,0.026,0.275,0.51,0.301,1.457
		c0.024,0.943,0.145,1.637,0.361,2.078c0.215,0.441,0.584,0.669,1.106,0.684c0.524,0.015,1.16-0.296,1.91-0.933
		c0.749-0.634,1.242-1.107,1.477-1.415c0.235-0.309,0.375-0.545,0.416-0.708c0.042-0.164-0.062-0.072-0.311,0.273
		c-0.25,0.347-0.619,0.681-1.109,1.005c-0.491,0.323-0.987,0.483-1.488,0.479c-0.503,0-0.735-0.529-0.701-1.582
		c0.036-1.052-0.055-1.813-0.276-2.281c-0.22-0.469-0.497-0.762-0.833-0.877c-0.337-0.116-0.642-0.149-0.914-0.097
		c-0.274,0.054-0.529,0.14-0.768,0.262c-0.237,0.12-0.628,0.394-1.173,0.819c-0.546,0.425-1.014,0.845-1.404,1.261
		c-0.391,0.417-0.33,0.155,0.181-0.785c0.509-0.94,0.877-1.614,1.101-2.023c0.225-0.408,0.163-0.697-0.188-0.869
		c-0.35-0.171-0.644-0.209-0.881-0.11C95.097,23.751,94.926,23.865,94.821,23.998z"/>
	<path fill="#FFFFFF" d="M104.049,25.508c-0.351,0.402-0.553,0.628-0.605,0.682s-0.027,0.068,0.073,0.045
		c0.1-0.022,0.019,0.161-0.243,0.551c-0.262,0.391-0.459,0.767-0.594,1.13c-0.135,0.363-0.224,0.847-0.271,1.45
		c-0.046,0.605-0.019,1.032,0.085,1.279c0.104,0.248,0.246,0.49,0.428,0.725c0.182,0.236,0.424,0.413,0.727,0.532
		c0.304,0.121,0.591,0.129,0.86,0.026c0.271-0.103,0.567-0.261,0.893-0.477c0.325-0.215,0.602-0.453,0.829-0.711
		c0.228-0.261,0.404-0.507,0.526-0.744c0.122-0.236,0.215-0.464,0.282-0.682c0.065-0.217,0.115-0.552,0.149-1.002
		c0.033-0.451,0.05-0.861,0.053-1.23c0-0.369-0.004-0.72-0.015-1.052c-0.011-0.331,0.065-0.523,0.227-0.576
		c0.163-0.053,0.828-0.066,1.997-0.042c1.168,0.025,1.343,0.01,0.524-0.048c-0.82-0.058-1.505-0.093-2.057-0.11
		c-0.55-0.017-0.888-0.141-1.015-0.374c-0.127-0.232-0.286-0.398-0.48-0.495c-0.194-0.098-0.444-0.128-0.75-0.087
		c-0.304,0.04-0.567,0.152-0.786,0.341C104.68,24.816,104.4,25.106,104.049,25.508z M105.632,28.781
		c-0.194,0.708-0.424,1.163-0.688,1.365c-0.264,0.203-0.464,0.284-0.6,0.244c-0.135-0.04-0.263-0.168-0.378-0.384
		c-0.116-0.215-0.126-0.58-0.029-1.092c0.098-0.516,0.339-0.994,0.725-1.439c0.387-0.443,0.693-0.511,0.921-0.202
		C105.812,27.571,105.828,28.074,105.632,28.781z"/>
	<path fill="#FFFFFF" d="M109.77,26.454c0.04,0.189,0.076,0.413,0.107,0.667c0.032,0.256,0.05,0.64,0.051,1.152
		c0.002,0.514-0.081,1.026-0.25,1.537s-0.193,0.893-0.073,1.146c0.119,0.254,0.309,0.394,0.567,0.417
		c0.258,0.024,0.826-0.416,1.704-1.323c0.878-0.905,1.492-1.434,1.842-1.588c0.35-0.153,0.472,0.27,0.368,1.268
		c-0.106,1-0.051,1.716,0.166,2.152c0.215,0.436,0.395,0.702,0.54,0.797c0.145,0.096,0.348,0.042,0.612-0.16
		c0.264-0.203,0.661-0.696,1.19-1.48c0.531-0.785,0.879-1.399,1.044-1.844c0.165-0.444,0.399-0.89,0.704-1.339
		c0.304-0.448,0.857-0.669,1.664-0.663c0.805,0.008,1.723-0.071,2.751-0.235c1.028-0.165,0.846-0.171-0.546-0.019
		c-1.392,0.151-2.306-0.012-2.74-0.492c-0.434-0.479-0.869-0.595-1.307-0.347c-0.437,0.249-0.813,0.564-1.131,0.946
		c-0.316,0.38-0.554,0.772-0.712,1.173c-0.157,0.4-0.37,0.875-0.633,1.424c-0.265,0.551-0.298,0.271-0.101-0.84
		c0.199-1.11,0.191-1.883-0.025-2.319c-0.215-0.436-0.578-0.561-1.089-0.377c-0.512,0.184-1.18,0.642-2.005,1.374
		s-1.2,0.49-1.124-0.726c0.078-1.216,0.002-1.906-0.227-2.073c-0.23-0.166-0.519-0.232-0.869-0.2
		c-0.349,0.032-0.526,0.325-0.532,0.875C109.712,25.899,109.729,26.265,109.77,26.454z"/>
	<path fill="#FFFFFF" d="M121.703,25.334c-0.107,0.132-0.216,0.279-0.328,0.439c-0.112,0.159-0.67,0.714-1.672,1.662
		c-1.001,0.95-1.211,1.182-0.631,0.698c0.582-0.484,1.071-0.843,1.469-1.077c0.398-0.235,0.447,0.009,0.147,0.727
		c-0.302,0.719-0.539,1.406-0.715,2.059c-0.176,0.653-0.296,1.139-0.361,1.455c-0.066,0.318-0.025,0.59,0.125,0.817
		c0.148,0.228,0.351,0.304,0.609,0.229c0.256-0.075,0.554-0.312,0.887-0.709c0.335-0.397,0.763-0.88,1.289-1.45
		c0.525-0.57,1.093-1.024,1.705-1.364c0.614-0.339,1.008-0.497,1.182-0.471c0.176,0.025,0.276,0.509,0.301,1.455
		c0.025,0.945,0.146,1.636,0.361,2.078c0.215,0.442,0.584,0.67,1.108,0.686c0.523,0.015,1.159-0.296,1.909-0.933
		c0.749-0.636,1.24-1.107,1.477-1.416c0.237-0.309,0.375-0.544,0.417-0.708c0.041-0.163-0.063-0.072-0.312,0.274
		c-0.248,0.346-0.62,0.68-1.109,1.004c-0.49,0.323-0.986,0.484-1.489,0.48c-0.502-0.003-0.734-0.53-0.699-1.582
		c0.035-1.053-0.057-1.813-0.277-2.283c-0.219-0.467-0.497-0.761-0.833-0.876c-0.336-0.117-0.641-0.148-0.914-0.095
		c-0.273,0.052-0.529,0.139-0.767,0.26c-0.237,0.121-0.629,0.393-1.174,0.818c-0.545,0.425-1.013,0.847-1.404,1.263
		s-0.331,0.155,0.18-0.786c0.51-0.939,0.877-1.614,1.103-2.022c0.224-0.408,0.161-0.698-0.189-0.871
		c-0.351-0.171-0.645-0.208-0.881-0.109C121.98,25.085,121.808,25.201,121.703,25.334z"/>
	<path fill="#FFFFFF" d="M140.014,26.26c-0.656,0.314-1.279,0.705-1.871,1.173c-0.591,0.466-1.212,1.073-1.862,1.82
		c-0.649,0.745-1.027,1.245-1.133,1.499s-0.155,0.509-0.146,0.763c0.009,0.253,0.078,0.491,0.205,0.712
		c0.126,0.222,0.247,0.354,0.362,0.391c0.114,0.038,0.371,0.016,0.772-0.07c0.402-0.083,0.859-0.248,1.375-0.494
		c0.514-0.245,1.07-0.56,1.669-0.951c0.599-0.389,1.016-0.625,1.251-0.708c0.236-0.081,0.43-0.036,0.58,0.137
		c0.152,0.172,0.247,0.329,0.284,0.469c0.037,0.14,0.112,0.356,0.224,0.647c0.113,0.294,0.275,0.544,0.484,0.753
		c0.211,0.209,0.437,0.368,0.681,0.473c0.243,0.106,0.441,0.166,0.596,0.179c0.152,0.013,0.372-0.053,0.655-0.199
		c0.282-0.146,0.675-0.503,1.178-1.068c0.504-0.565,0.526-0.658,0.072-0.277s-0.832,0.586-1.133,0.622
		c-0.299,0.035-0.531-0.009-0.696-0.134c-0.164-0.125-0.294-0.343-0.388-0.656c-0.096-0.313-0.087-0.634,0.022-0.96
		c0.11-0.325,0.202-0.532,0.279-0.622c0.076-0.09,0.106-0.215,0.092-0.377c-0.014-0.16-0.091-0.354-0.235-0.583
		c-0.144-0.228-0.321-0.388-0.531-0.482c-0.21-0.092-0.729,0.028-1.558,0.36c-0.828,0.335-1.518,0.669-2.069,1
		c-0.55,0.332-0.961,0.579-1.229,0.742c-0.267,0.164-0.375,0.176-0.324,0.043c0.05-0.136,0.297-0.442,0.741-0.916
		c0.444-0.474,0.87-0.861,1.283-1.161c0.412-0.3,0.756-0.517,1.034-0.652c0.277-0.136,0.556-0.269,0.838-0.397
		c0.282-0.129,0.543-0.067,0.787,0.187c0.24,0.255,0.521,0.319,0.842,0.191c0.32-0.126,0.409-0.404,0.265-0.83
		c-0.144-0.427-0.304-0.717-0.478-0.869c-0.174-0.151-0.413-0.258-0.713-0.316c-0.301-0.06-0.579-0.063-0.835-0.01
		C141.125,25.754,140.669,25.944,140.014,26.26z"/>
	<path fill="#FFFFFF" d="M147.869,26.93c-0.33,0.298-0.585,0.658-0.766,1.08c-0.18,0.421-0.213,1.063-0.095,1.924
		c0.118,0.861,0.175,1.416,0.174,1.664c-0.001,0.248-0.054,0.515-0.157,0.803c-0.103,0.288-0.25,0.529-0.441,0.723
		c-0.191,0.194-0.447,0.345-0.766,0.451c-0.321,0.105-0.587,0.025-0.8-0.239c-0.212-0.266,0.224-0.896,1.312-1.896
		c1.086-1,0.989-0.971-0.295,0.084c-1.282,1.057-1.898,1.793-1.847,2.21c0.051,0.416,0.229,0.699,0.537,0.845
		c0.309,0.148,0.598,0.229,0.874,0.243c0.274,0.013,0.611-0.02,1.005-0.099c0.396-0.08,0.732-0.217,1.006-0.415
		c0.275-0.195,0.539-0.517,0.793-0.961c0.253-0.445,0.347-0.989,0.278-1.634c-0.067-0.643-0.137-1.076-0.207-1.302
		c-0.071-0.223-0.066-0.624,0.017-1.197c0.084-0.576,0.318-1.067,0.703-1.472c0.384-0.407,0.734-0.614,1.049-0.625
		c0.315-0.013,0.568-0.125,0.761-0.336s0.248-0.435,0.167-0.67c-0.082-0.236-0.346-0.332-0.79-0.289
		c-0.444,0.044-0.891,0.166-1.342,0.365C148.586,26.385,148.198,26.632,147.869,26.93z"/>
	<path fill="#FFFFFF" d="M164.729,18.887c-0.569,0.811-1.023,1.495-1.36,2.052c-0.336,0.557-0.75,1.331-1.241,2.321
		c-0.491,0.992-1.189,2.403-2.097,4.233c-0.908,1.831-1.54,3.024-1.898,3.581c-0.36,0.557-0.755,1.292-1.187,2.209
		c-0.432,0.916-0.537,1.496-0.317,1.738s0.42,0.325,0.6,0.246c0.181-0.08,0.386-0.235,0.619-0.467
		c0.232-0.23,0.686-0.914,1.359-2.05c0.675-1.137,1.107-1.833,1.296-2.088c0.189-0.255,0.458-0.33,0.806-0.225
		c0.348,0.106,1.257,0.626,2.729,1.56c1.471,0.934,2.769,1.652,3.898,2.155c1.128,0.502,1.696,0.583,1.701,0.242
		c0.007-0.342-0.42-0.851-1.281-1.528c-0.861-0.677-1.494-1.211-1.899-1.6c-0.405-0.392-0.738-0.694-0.998-0.911
		c-0.259-0.218-0.15-0.403,0.327-0.556c0.476-0.152,1.021-0.454,1.635-0.903c0.611-0.45,1.375-1.08,2.285-1.891
		c0.913-0.809,1.462-1.7,1.649-2.673c0.188-0.972,0.192-1.761,0.018-2.366c-0.175-0.604-0.458-1.159-0.854-1.665
		c-0.395-0.505-0.753-0.822-1.077-0.947c-0.325-0.126-0.673-0.233-1.044-0.317c-0.373-0.084-0.593-0.317-0.662-0.694
		c-0.071-0.379-0.189-0.622-0.362-0.73c-0.172-0.108-0.344-0.172-0.519-0.191c-0.176-0.021-0.432,0.016-0.768,0.11
		C165.752,17.625,165.299,18.077,164.729,18.887z M169.267,22.505c-0.03,0.385-0.095,0.882-0.199,1.489
		c-0.101,0.605-0.521,1.292-1.26,2.056c-0.739,0.763-1.458,1.328-2.163,1.697c-0.702,0.368-1.29,0.636-1.761,0.805
		c-0.471,0.17-0.9,0.146-1.288-0.072c-0.385-0.218-0.59-0.349-0.609-0.393c-0.02-0.046,0.277-0.661,0.886-1.844
		c0.611-1.183,1.117-2.053,1.52-2.606c0.403-0.554,0.726-0.992,0.967-1.317c0.243-0.325,0.487-0.607,0.737-0.849
		c0.249-0.241,0.597-0.386,1.04-0.437c0.443-0.049,0.918,0.087,1.419,0.41C169.061,21.768,169.296,22.122,169.267,22.505z"/>
	<path fill="#FFFFFF" d="M175.482,28.021c-0.656,0.316-1.28,0.706-1.871,1.173c-0.591,0.467-1.212,1.072-1.862,1.819
		c-0.648,0.746-1.027,1.247-1.134,1.5c-0.106,0.254-0.154,0.509-0.145,0.763c0.01,0.255,0.078,0.494,0.205,0.714
		c0.126,0.222,0.247,0.352,0.36,0.391c0.115,0.038,0.373,0.016,0.773-0.069c0.402-0.085,0.86-0.25,1.374-0.495
		c0.514-0.245,1.071-0.562,1.669-0.952c0.598-0.389,1.016-0.626,1.252-0.708c0.235-0.081,0.429-0.036,0.581,0.137
		c0.151,0.173,0.245,0.329,0.283,0.47c0.037,0.139,0.112,0.355,0.225,0.648c0.112,0.293,0.274,0.542,0.484,0.752
		c0.21,0.209,0.436,0.366,0.68,0.472c0.243,0.105,0.442,0.166,0.595,0.179c0.153,0.013,0.372-0.053,0.656-0.199
		c0.283-0.146,0.675-0.501,1.178-1.067c0.502-0.566,0.526-0.659,0.072-0.279c-0.455,0.38-0.832,0.588-1.133,0.624
		c-0.299,0.033-0.53-0.009-0.696-0.135c-0.164-0.125-0.295-0.342-0.388-0.657c-0.095-0.314-0.088-0.632,0.022-0.958
		c0.109-0.326,0.203-0.534,0.279-0.624c0.076-0.09,0.107-0.215,0.094-0.376c-0.016-0.161-0.094-0.355-0.237-0.583
		c-0.144-0.228-0.32-0.388-0.53-0.481c-0.211-0.093-0.73,0.028-1.556,0.361c-0.829,0.334-1.519,0.667-2.07,0.998
		s-0.963,0.58-1.229,0.742c-0.267,0.162-0.375,0.177-0.325,0.042c0.051-0.135,0.298-0.441,0.741-0.916
		c0.443-0.475,0.871-0.862,1.283-1.161c0.412-0.299,0.757-0.518,1.035-0.651c0.276-0.136,0.556-0.268,0.838-0.398
		c0.283-0.129,0.544-0.066,0.786,0.188c0.241,0.254,0.522,0.319,0.843,0.191c0.321-0.127,0.409-0.403,0.264-0.831
		c-0.144-0.428-0.303-0.716-0.477-0.869c-0.176-0.152-0.412-0.257-0.713-0.316c-0.3-0.059-0.579-0.062-0.836-0.009
		C176.594,27.516,176.138,27.704,175.482,28.021z"/>
	<path fill="#FFFFFF" d="M185.63,22.499c-0.306,0.056-0.524,0.154-0.651,0.291c-0.129,0.137-0.236,0.353-0.322,0.646
		c-0.086,0.295-0.005,0.549,0.243,0.766c0.25,0.217,0.409,0.335,0.479,0.355c0.071,0.02,0.158,0.049,0.26,0.087
		c0.104,0.039,0.274,0.203,0.514,0.498c0.238,0.294,0.619,0.755,1.14,1.381c0.521,0.627,1.012,1.104,1.477,1.43
		c0.463,0.327,0.935,0.543,1.416,0.651c0.479,0.105,0.495,0.07,0.046-0.106c-0.45-0.177-0.939-0.466-1.472-0.868
		c-0.532-0.4-0.985-0.929-1.361-1.582c-0.376-0.652-0.573-1.313-0.589-1.982c-0.016-0.667-0.14-1.106-0.373-1.318
		C186.206,22.525,185.937,22.442,185.63,22.499z M182.606,28.051c-0.393,0.246-0.481,0.382-0.268,0.409
		c0.214,0.028,0.194,0.388-0.061,1.082c-0.256,0.693-0.53,1.51-0.826,2.451c-0.294,0.939-0.493,1.639-0.592,2.098
		c-0.101,0.458-0.105,0.714-0.014,0.769c0.091,0.054,0.259,0.07,0.503,0.05c0.244-0.021,0.508-0.226,0.792-0.615
		c0.283-0.389,0.546-0.853,0.789-1.392c0.242-0.541,0.506-1.244,0.792-2.113c0.286-0.869,0.545-1.573,0.775-2.113
		c0.231-0.54,0.192-0.862-0.117-0.966c-0.309-0.103-0.586-0.134-0.832-0.092C183.313,27.662,182.999,27.806,182.606,28.051z"/>
	<path fill="#FFFFFF" d="M187.323,28.592c-0.107,0.132-0.217,0.278-0.329,0.438c-0.113,0.16-0.67,0.715-1.672,1.663
		c-1.002,0.95-1.212,1.183-0.63,0.698c0.581-0.484,1.07-0.843,1.469-1.078c0.397-0.234,0.447,0.009,0.146,0.728
		c-0.301,0.719-0.538,1.404-0.714,2.06c-0.177,0.652-0.298,1.138-0.364,1.454c-0.065,0.317-0.023,0.589,0.125,0.818
		c0.149,0.228,0.353,0.304,0.609,0.228c0.258-0.076,0.554-0.312,0.888-0.708c0.335-0.397,0.764-0.881,1.289-1.451
		c0.525-0.571,1.094-1.024,1.708-1.364c0.613-0.339,1.006-0.496,1.182-0.47c0.175,0.024,0.275,0.509,0.3,1.455
		c0.025,0.944,0.145,1.637,0.36,2.079c0.216,0.44,0.585,0.669,1.109,0.683c0.523,0.015,1.159-0.295,1.908-0.931
		c0.749-0.636,1.242-1.108,1.478-1.417c0.236-0.308,0.375-0.544,0.416-0.707c0.042-0.164-0.063-0.072-0.311,0.273
		c-0.25,0.347-0.619,0.682-1.11,1.005c-0.49,0.324-0.987,0.483-1.489,0.48c-0.502-0.002-0.733-0.53-0.699-1.582
		c0.035-1.052-0.057-1.812-0.276-2.282c-0.221-0.469-0.498-0.761-0.834-0.877c-0.336-0.116-0.64-0.147-0.913-0.095
		c-0.274,0.053-0.529,0.14-0.767,0.26c-0.238,0.12-0.629,0.394-1.175,0.819c-0.544,0.426-1.011,0.847-1.401,1.263
		c-0.392,0.416-0.332,0.154,0.178-0.787c0.51-0.939,0.877-1.613,1.102-2.021c0.224-0.408,0.16-0.699-0.188-0.871
		c-0.349-0.172-0.643-0.209-0.88-0.109C187.599,28.343,187.427,28.459,187.323,28.592z"/>
	<path fill="#FFFFFF" d="M200.936,19.792c-0.122,0.215-0.539,1.055-1.25,2.519c-0.714,1.466-1.271,2.586-1.674,3.361
		c-0.403,0.773-0.888,1.81-1.454,3.105c-0.565,1.297-0.879,2.248-0.936,2.85c-0.059,0.604-0.036,1.215,0.066,1.833
		c0.103,0.618,0.292,1.091,0.576,1.419c0.28,0.328,0.628,0.554,1.042,0.681c0.413,0.125,0.79,0.149,1.129,0.071
		c0.341-0.076,0.682-0.258,1.021-0.543c0.339-0.287,0.663-0.632,0.971-1.038c0.306-0.403,0.497-0.794,0.571-1.171
		c0.074-0.378,0.088-0.735,0.045-1.073c-0.045-0.34-0.166-0.833-0.366-1.484c-0.2-0.65,0.08-1.015,0.841-1.092
		c0.759-0.078,1.901-0.147,3.429-0.21c1.524-0.063,1.394-0.09-0.393-0.086c-1.789,0.005-3.008,0-3.658-0.016
		c-0.651-0.017-1.11-0.156-1.378-0.417c-0.269-0.261-0.438-0.576-0.508-0.944c-0.07-0.368,0.21-1.179,0.841-2.433
		c0.63-1.254,1.172-2.24,1.628-2.957c0.455-0.717,0.858-1.283,1.209-1.702c0.352-0.418,0.402-0.743,0.148-0.978
		c-0.253-0.233-0.511-0.379-0.772-0.436c-0.263-0.056-0.452-0.044-0.565,0.039C201.244,19.343,201.057,19.576,200.936,19.792z
		 M199.332,31.58c0.139,0.415,0.161,0.788,0.061,1.12c-0.101,0.332-0.259,0.612-0.481,0.837c-0.221,0.228-0.48,0.338-0.778,0.334
		c-0.298-0.003-0.522-0.168-0.671-0.497c-0.149-0.328-0.226-0.648-0.232-0.962c-0.007-0.315,0.023-0.658,0.092-1.03
		c0.068-0.373,0.24-0.739,0.518-1.101c0.277-0.361,0.56-0.335,0.848,0.076C198.979,30.757,199.191,31.166,199.332,31.58z"/>
	<path fill="#FFFFFF" d="M204.278,30.484c-0.351,0.403-0.553,0.63-0.604,0.682c-0.053,0.053-0.029,0.068,0.072,0.045
		c0.1-0.022,0.019,0.161-0.242,0.551c-0.263,0.39-0.461,0.765-0.595,1.129s-0.224,0.847-0.271,1.453
		c-0.046,0.604-0.018,1.03,0.086,1.278c0.103,0.25,0.246,0.49,0.427,0.724c0.183,0.236,0.424,0.413,0.727,0.534
		c0.303,0.12,0.59,0.128,0.86,0.027c0.27-0.103,0.566-0.262,0.892-0.478c0.327-0.215,0.603-0.452,0.83-0.711
		c0.228-0.26,0.403-0.508,0.526-0.744c0.122-0.237,0.216-0.464,0.283-0.682c0.064-0.217,0.115-0.551,0.148-1.001
		c0.033-0.45,0.052-0.861,0.053-1.231c0.002-0.37-0.003-0.719-0.014-1.052c-0.011-0.331,0.064-0.523,0.228-0.576
		c0.162-0.053,0.827-0.065,1.997-0.042c1.169,0.025,1.343,0.009,0.523-0.049c-0.819-0.058-1.504-0.094-2.055-0.109
		c-0.552-0.017-0.89-0.141-1.016-0.374c-0.127-0.232-0.287-0.397-0.481-0.495c-0.194-0.099-0.443-0.126-0.748-0.087
		c-0.306,0.041-0.568,0.154-0.787,0.341C204.908,29.793,204.628,30.083,204.278,30.484z M205.862,33.758
		c-0.195,0.707-0.426,1.162-0.688,1.364c-0.264,0.202-0.464,0.283-0.6,0.244c-0.136-0.04-0.262-0.167-0.377-0.383
		c-0.116-0.215-0.126-0.58-0.028-1.094c0.097-0.514,0.338-0.993,0.725-1.438c0.386-0.444,0.692-0.511,0.919-0.202
		C206.04,32.548,206.057,33.051,205.862,33.758z"/>
	<path fill="#FFFFFF" d="M210,31.432c0.041,0.189,0.076,0.411,0.107,0.666c0.031,0.257,0.048,0.641,0.051,1.154
		c0.002,0.513-0.082,1.026-0.25,1.536c-0.169,0.509-0.193,0.893-0.074,1.146c0.12,0.254,0.309,0.393,0.567,0.417
		c0.259,0.024,0.826-0.418,1.704-1.323c0.877-0.905,1.492-1.434,1.842-1.589c0.349-0.152,0.472,0.27,0.368,1.269
		c-0.105,1-0.05,1.716,0.166,2.153c0.215,0.435,0.395,0.7,0.54,0.795c0.144,0.096,0.348,0.043,0.611-0.159
		c0.265-0.202,0.661-0.696,1.19-1.48c0.529-0.785,0.879-1.4,1.043-1.843c0.166-0.444,0.4-0.891,0.705-1.338
		c0.303-0.449,0.857-0.67,1.663-0.663c0.804,0.007,1.722-0.071,2.751-0.235c1.029-0.165,0.847-0.171-0.545-0.02
		c-1.393,0.152-2.305-0.011-2.74-0.492c-0.434-0.479-0.871-0.594-1.308-0.347c-0.438,0.25-0.813,0.565-1.13,0.946
		c-0.318,0.381-0.554,0.773-0.713,1.173c-0.157,0.4-0.369,0.876-0.634,1.424c-0.265,0.55-0.297,0.271-0.099-0.839
		c0.198-1.11,0.189-1.883-0.025-2.318c-0.216-0.435-0.579-0.561-1.091-0.377c-0.511,0.184-1.179,0.644-2.005,1.375
		c-0.825,0.73-1.2,0.489-1.122-0.727c0.076-1.216,0.001-1.906-0.228-2.072c-0.228-0.167-0.518-0.233-0.867-0.201
		c-0.348,0.033-0.528,0.325-0.533,0.877C209.942,30.876,209.96,31.241,210,31.432z"/>
	<path fill="#FFFFFF" d="M223.145,27.21c-0.46,0.831-1.048,2.135-1.765,3.908c-0.717,1.774-1.166,3.057-1.342,3.848
		c-0.179,0.792-0.19,1.34-0.041,1.646c0.15,0.306,0.312,0.567,0.482,0.787c0.172,0.217,0.453,0.322,0.846,0.315
		c0.391-0.008,0.855-0.144,1.393-0.403c0.538-0.26,0.998-0.577,1.379-0.949c0.382-0.373,0.767-0.718,1.151-1.035
		c0.387-0.319,0.96-0.798,1.719-1.438c0.761-0.642,0.975-0.834,0.642-0.581c-0.334,0.255-1.22,0.778-2.66,1.574
		c-1.441,0.795-2.335,1.227-2.681,1.298s-0.579-0.001-0.701-0.216c-0.123-0.216,0.076-1.146,0.593-2.793
		c0.519-1.647,1.313-3.414,2.385-5.302c1.069-1.889,1.598-2.939,1.586-3.15c-0.012-0.209-0.161-0.388-0.445-0.535
		c-0.285-0.146-0.664,0.116-1.139,0.788C224.073,25.63,223.605,26.377,223.145,27.21z"/>
	<path fill="#FFFFFF" d="M227.354,30.612c-0.508,0.345-0.915,0.692-1.217,1.042c-0.305,0.349-0.584,0.792-0.838,1.332
		c-0.252,0.539-0.387,1.043-0.405,1.512c-0.017,0.467,0.027,0.839,0.134,1.115c0.108,0.276,0.25,0.518,0.429,0.725
		c0.176,0.208,0.372,0.389,0.585,0.542c0.213,0.154,0.538,0.272,0.977,0.355c0.435,0.082,0.887,0.055,1.351-0.082
		c0.464-0.137,0.841-0.298,1.126-0.481c0.284-0.186,0.653-0.45,1.107-0.799c0.453-0.346,0.834-0.7,1.146-1.061
		c0.31-0.359,0.571-0.667,0.782-0.921c0.21-0.254,0.172-0.256-0.116-0.005c-0.288,0.25-0.592,0.508-0.908,0.774
		c-0.317,0.266-0.868,0.539-1.655,0.822c-0.786,0.279-1.324,0.443-1.612,0.49c-0.291,0.046-0.566,0.042-0.827-0.017
		c-0.263-0.057-0.493-0.226-0.696-0.506c-0.2-0.28-0.292-0.58-0.27-0.898c0.022-0.319,0.139-0.634,0.354-0.943
		c0.011-0.031,0.048-0.039,0.109-0.02c0.059,0.019,0.141,0.041,0.245,0.063c0.103,0.021,0.235,0.034,0.395,0.037
		c0.16,0.001,0.341-0.031,0.543-0.098c0.72-0.284,1.304-0.579,1.749-0.882c0.445-0.304,0.685-0.689,0.719-1.156
		c0.034-0.467-0.02-0.856-0.166-1.166c-0.144-0.311-0.587-0.458-1.327-0.438C228.434,30.045,227.862,30.268,227.354,30.612z
		 M228.928,31.898c-0.177,0.152-0.414,0.301-0.708,0.446c-0.293,0.146-0.483,0.172-0.567,0.079
		c-0.083-0.092-0.051-0.232,0.096-0.417c0.146-0.186,0.375-0.348,0.686-0.486c0.31-0.141,0.502-0.168,0.575-0.088
		C229.136,31.592,229.108,31.748,228.928,31.898z"/>
	<path fill="#FFFFFF" d="M232.182,32.242c-0.866,0.548-1.748,1.153-2.647,1.814c-0.9,0.663-0.333,0.354,1.701-0.925
		c2.033-1.279,2.976-1.772,2.83-1.482c-0.148,0.292-0.42,0.991-0.817,2.096c-0.396,1.105-0.713,1.923-0.949,2.452
		c-0.236,0.529-0.336,0.883-0.301,1.061c0.035,0.179,0.224,0.331,0.564,0.459c0.341,0.127,0.573,0.149,0.692,0.067
		c0.12-0.083,0.236-0.198,0.35-0.346c0.112-0.148,0.264-0.401,0.459-0.756c0.194-0.354,0.639-0.843,1.338-1.464
		c0.698-0.624,1.19-0.912,1.475-0.872c0.285,0.042,0.402,0.283,0.354,0.722c-0.05,0.439-0.109,0.845-0.177,1.216
		c-0.068,0.372-0.151,0.76-0.249,1.163c-0.097,0.405-0.104,0.688-0.018,0.852c0.086,0.165,0.232,0.282,0.438,0.353
		c0.206,0.072,0.431-0.011,0.673-0.247c0.244-0.235,0.397-0.422,0.458-0.557c0.062-0.135,0.24-0.437,0.535-0.909
		c0.293-0.47,0.69-0.915,1.19-1.332c0.502-0.415,0.895-0.736,1.182-0.959c0.287-0.223,0.558-0.351,0.813-0.382
		c0.256-0.031,0.462,0.084,0.621,0.346c0.158,0.262,0.422,0.664,0.793,1.206c0.369,0.543,0.682,0.934,0.934,1.173
		c0.252,0.238,0.519,0.437,0.799,0.593c0.278,0.157,0.582,0.205,0.911,0.144c0.328-0.061,0.588-0.138,0.781-0.233
		c0.193-0.095,0.522-0.228,0.987-0.398c0.467-0.169,0.933-0.375,1.397-0.618c0.465-0.242,0.278-0.171-0.556,0.213
		c-0.837,0.383-1.417,0.534-1.745,0.451c-0.328-0.083-0.694-0.307-1.101-0.676c-0.406-0.368-0.79-0.93-1.149-1.687
		c-0.361-0.757-0.654-1.335-0.882-1.733c-0.229-0.396-0.506-0.67-0.828-0.818c-0.324-0.148-0.743-0.122-1.254,0.077
		c-0.513,0.201-1.116,0.637-1.812,1.309c-0.696,0.671-1.075,0.984-1.139,0.937c-0.063-0.047-0.099-0.226-0.106-0.536
		c-0.006-0.308-0.046-0.586-0.123-0.833c-0.077-0.246-0.282-0.462-0.614-0.651c-0.333-0.188-0.708-0.205-1.123-0.055
		c-0.417,0.151-0.928,0.561-1.534,1.231c-0.607,0.671-0.637,0.551-0.089-0.36c0.547-0.91,0.801-1.53,0.761-1.857
		c-0.038-0.327-0.081-0.577-0.127-0.751c-0.047-0.172-0.104-0.361-0.171-0.563c-0.068-0.202-0.232-0.32-0.496-0.355
		c-0.263-0.035-0.618,0.224-1.065,0.775C233.705,31.146,233.048,31.696,232.182,32.242z"/>
	<path fill="#FFFFFF" d="M248.547,32.684c-0.351,0.402-0.553,0.628-0.605,0.681c-0.052,0.052-0.028,0.067,0.073,0.046
		c0.101-0.023,0.019,0.16-0.243,0.551c-0.263,0.389-0.461,0.766-0.594,1.128c-0.134,0.364-0.224,0.848-0.271,1.453
		c-0.046,0.604-0.018,1.029,0.086,1.278c0.103,0.249,0.245,0.49,0.426,0.725c0.183,0.235,0.426,0.413,0.729,0.534
		c0.302,0.12,0.588,0.128,0.859,0.025c0.27-0.102,0.567-0.261,0.893-0.476c0.325-0.216,0.602-0.453,0.83-0.713
		c0.228-0.259,0.403-0.507,0.525-0.744c0.122-0.236,0.216-0.464,0.282-0.681c0.066-0.217,0.116-0.551,0.148-1.002
		c0.033-0.451,0.052-0.861,0.054-1.231c0.001-0.37-0.003-0.719-0.015-1.051s0.064-0.524,0.228-0.577
		c0.163-0.051,0.827-0.066,1.997-0.042c1.167,0.025,1.343,0.008,0.523-0.049c-0.819-0.057-1.505-0.093-2.055-0.11
		c-0.552-0.017-0.89-0.14-1.017-0.372c-0.126-0.233-0.286-0.398-0.48-0.497c-0.193-0.098-0.444-0.127-0.75-0.087
		c-0.304,0.042-0.568,0.155-0.786,0.342C249.178,31.991,248.897,32.281,248.547,32.684z M250.131,35.957
		c-0.195,0.708-0.425,1.163-0.689,1.364s-0.464,0.283-0.599,0.244c-0.136-0.04-0.262-0.168-0.379-0.384
		c-0.116-0.215-0.126-0.578-0.028-1.092c0.097-0.514,0.339-0.994,0.725-1.438c0.387-0.444,0.693-0.511,0.92-0.202
		C250.31,34.747,250.326,35.249,250.131,35.957z"/>
	<path fill="#FFFFFF" d="M254.874,31.946c-0.106,0.132-0.215,0.279-0.328,0.439c-0.113,0.16-0.671,0.715-1.672,1.663
		c-1.001,0.949-1.211,1.181-0.631,0.697c0.582-0.484,1.072-0.844,1.469-1.077c0.397-0.234,0.447,0.009,0.145,0.727
		c-0.299,0.719-0.538,1.404-0.713,2.06c-0.177,0.652-0.297,1.137-0.362,1.455c-0.066,0.318-0.025,0.589,0.124,0.818
		c0.149,0.227,0.352,0.303,0.609,0.228c0.258-0.075,0.555-0.312,0.889-0.709c0.334-0.396,0.763-0.88,1.289-1.449
		c0.524-0.571,1.093-1.024,1.706-1.364c0.613-0.339,1.007-0.497,1.183-0.471c0.175,0.024,0.275,0.509,0.299,1.454
		c0.025,0.945,0.146,1.637,0.362,2.079c0.215,0.442,0.584,0.669,1.108,0.684c0.522,0.014,1.159-0.295,1.908-0.932
		c0.749-0.637,1.241-1.108,1.478-1.417c0.235-0.309,0.374-0.544,0.415-0.708c0.041-0.165-0.063-0.072-0.312,0.274
		c-0.249,0.347-0.619,0.682-1.109,1.004c-0.491,0.324-0.987,0.484-1.488,0.479c-0.502-0.001-0.735-0.529-0.7-1.58
		c0.036-1.053-0.056-1.813-0.276-2.282c-0.22-0.469-0.498-0.762-0.833-0.878c-0.338-0.116-0.642-0.148-0.916-0.095
		c-0.271,0.052-0.527,0.139-0.766,0.26c-0.237,0.121-0.628,0.394-1.174,0.819c-0.546,0.424-1.014,0.846-1.404,1.262
		c-0.391,0.417-0.33,0.155,0.18-0.785c0.51-0.941,0.877-1.616,1.103-2.024c0.224-0.406,0.16-0.697-0.189-0.87
		c-0.351-0.172-0.644-0.208-0.881-0.109C255.15,31.697,254.979,31.813,254.874,31.946z"/>
	<path fill="#FFFFFF" d="M262.128,20.528c-0.178,0.279-0.271,0.489-0.28,0.631c-0.006,0.142,0.104,0.306,0.333,0.489
		c0.228,0.182,0.543,0.255,0.947,0.221c0.406-0.035,0.854,0.098,1.347,0.397c0.493,0.3,0.924,0.83,1.295,1.586
		c0.37,0.759,0.618,1.271,0.743,1.536c0.125,0.265,0.309,0.812,0.549,1.642c0.24,0.827,0.368,1.903,0.385,3.221
		c0.018,1.321-0.043,2.297-0.179,2.93c-0.135,0.633-0.299,1.243-0.488,1.83c-0.189,0.586-0.558,1.393-1.105,2.419
		c-0.548,1.027-0.924,1.626-1.132,1.797c-0.207,0.172-0.392,0.335-0.554,0.487c-0.161,0.15-0.414,0.342-0.756,0.574
		c-0.343,0.231-0.745,0.335-1.209,0.312c-0.462-0.022-0.773,0.083-0.934,0.318c-0.16,0.235-0.186,0.487-0.08,0.757
		c0.109,0.271,0.242,0.44,0.398,0.508c0.156,0.068,0.315,0.095,0.475,0.082c0.161-0.015,0.506-0.138,1.037-0.372
		c0.53-0.232,1.019-0.48,1.468-0.746c0.449-0.265,0.922-0.583,1.421-0.956c0.499-0.372,1.051-1.051,1.658-2.036
		c0.605-0.987,1.129-2.51,1.567-4.573c0.439-2.066,0.55-3.682,0.332-4.851c-0.217-1.17-0.413-2.026-0.583-2.569
		c-0.171-0.545-0.454-1.328-0.844-2.352c-0.391-1.023-0.894-1.837-1.509-2.441c-0.615-0.604-1.225-0.991-1.83-1.159
		c-0.603-0.169-1.122-0.223-1.556-0.168C262.613,20.09,262.308,20.25,262.128,20.528z"/>
</g>
<g>
	<path fill="#FFFFFF" d="M12.087,40.359c19.56-1.384,39.222-0.155,58.71,1.268l14.619,1.061c4.869,0.356,9.732,0.683,14.603,0.94
		c9.764,0.52,19.522,1.137,29.277,1.832l29.25,2.276l14.625,1.154l14.631,1.039c9.785,0.66,19.502,1.802,29.236,2.657
		c9.726,0.887,19.486,1.434,29.194,1.155l-0.127,2.175c-6.455-0.729-12.946-1.114-19.447-1.271c-6.5-0.17-13.011-0.179-19.529-0.063
		l-19.582,0.423l-9.841,0.17l-9.798,0.011l-39.177,0.276l-9.8,0.036l-2.451,0.009l-0.612,0.002l-0.542,0.019l-1.291,0.024
		c-1.697,0.01-3.355-0.054-4.996-0.122c-3.278-0.128-6.496-0.328-9.639-0.231c-3.119,0.104-6.24,0.484-8.746,1.738l-0.361-3.336
		c4.157,1.205,8.497,1.926,12.884,2.471c4.391,0.553,8.842,0.897,13.306,1.406c4.462,0.511,8.951,1.126,13.379,2.156
		c4.421,1.027,8.791,2.49,12.826,4.649l3.054,1.634l-3.42,0.095c-2.024,0.056-3.998-0.006-5.943,0.104
		c-1.923,0.118-3.896,0.347-5.455,1.256l-0.01-0.995c1.826,1.207,3.362,2.711,4.82,4.243c1.45,1.544,2.81,3.147,4.271,4.651
		c0.077,0.079,0.076,0.206-0.003,0.283c-0.076,0.074-0.196,0.075-0.274,0.005c-1.573-1.415-3.049-2.925-4.579-4.354
		c-1.52-1.432-3.1-2.805-4.854-3.827l-0.798-0.465l0.788-0.53c0.913-0.615,1.926-0.982,2.932-1.244
		c1.01-0.259,2.026-0.412,3.036-0.526c2.019-0.223,4.026-0.28,5.972-0.429l-0.366,1.729c-3.938-1.905-8.173-3.139-12.488-3.959
		c-4.321-0.823-8.727-1.249-13.16-1.576c-4.435-0.329-8.902-0.61-13.396-1.048c-4.49-0.446-9.018-1.076-13.483-2.25l-4.48-1.177
		l4.119-2.159c3.347-1.755,6.893-2.178,10.259-2.394c3.389-0.189,6.708-0.068,9.957,0.039c1.624,0.049,3.232,0.091,4.803,0.063
		l1.159-0.035l0.682-0.029l0.612-0.009l2.451-0.037l9.802-0.146c13.072-0.137,26.146-0.204,39.235-0.043l9.805,0.125l9.76-0.035
		c6.529-0.053,13.07-0.134,19.622-0.07c6.55,0.055,13.112,0.18,19.669,0.569c6.555,0.4,13.106,1.031,19.609,2.007l-0.127,2.175
		c-9.855,0.006-19.626-0.994-29.358-1.991c-9.729-1.026-19.444-2.167-29.182-2.71l-14.652-0.688l-14.659-0.573L129.1,48.785
		c-9.768-0.457-19.532-0.99-29.289-1.622c-4.892-0.307-9.782-0.684-14.661-1.089l-14.615-1.359
		c-19.461-1.866-38.873-3.901-58.437-3.957c-0.11,0-0.2-0.09-0.2-0.201C11.9,40.453,11.984,40.367,12.087,40.359z"/>
</g>
</svg>
