<?xml version="1.0" encoding="utf-8"?>
<!-- Generator: Adobe Illustrator 15.0.0, SVG Export Plug-In . SVG Version: 6.00 Build 0)  -->
<!DOCTYPE svg PUBLIC "-//W3C//DTD SVG 1.1//EN" "http://www.w3.org/Graphics/SVG/1.1/DTD/svg11.dtd">
<svg version="1.1" id="Layer_1" xmlns="http://www.w3.org/2000/svg" xmlns:xlink="http://www.w3.org/1999/xlink" x="0px" y="0px"
	 width="500px" height="500px" viewBox="0 0 500 500" enable-background="new 0 0 500 500" xml:space="preserve">
<path fill="#A0589E" d="M434.668,279.645c-16.491,0-66.276-29.86-66.276-29.86s49.785-29.86,66.276-29.86
	c16.49,0,29.86,13.369,29.86,29.86C464.527,266.274,451.158,279.645,434.668,279.645z"/>
<path fill="#C54F97" d="M424.892,183.41c-14.282,8.246-72.326,7.278-72.326,7.278s28.186-50.75,42.466-58.997
	c14.28-8.246,32.544-3.352,40.79,10.93C444.066,156.903,439.173,175.164,424.892,183.41z"/>
<path fill="#D14C81" d="M309.311,147.422c0,0-0.969-58.043,7.279-72.325c8.243-14.282,26.505-19.176,40.787-10.93
	c14.281,8.246,19.175,26.507,10.932,40.79C360.063,119.239,309.311,147.422,309.311,147.422z"/>
<path fill="#5161AA" d="M368.282,394.597c8.246,14.281,3.354,32.543-10.929,40.789c-14.282,8.245-32.544,3.353-40.79-10.93
	c-8.245-14.28-7.278-72.325-7.278-72.325S360.038,380.315,368.282,394.597z"/>
<path fill="#D25252" d="M220.359,65.307c0-16.492,13.369-29.859,29.86-29.859s29.86,13.369,29.86,29.859
	c0,16.492-29.86,66.275-29.86,66.275S220.359,81.798,220.359,65.307z"/>
<path fill="#49BBDA" d="M280.05,434.232c0,16.49-13.369,29.86-29.86,29.86s-29.861-13.37-29.861-29.86s29.861-66.275,29.861-66.275
	S280.05,417.742,280.05,434.232z"/>
<path fill="#E39C02" d="M132.125,104.943c-8.246-14.282-3.353-32.543,10.93-40.79c14.281-8.246,32.543-3.353,40.79,10.93
	c8.246,14.282,7.278,72.326,7.278,72.326S140.371,119.224,132.125,104.943z"/>
<path fill="#C7CF00" d="M75.532,183.386c-14.282-8.246-19.176-26.507-10.93-40.79c8.246-14.281,26.507-19.175,40.79-10.929
	c14.281,8.246,42.466,58.996,42.466,58.996S89.814,191.631,75.532,183.386z"/>
<path fill="#AFCB36" d="M132.016,249.755c0,0-49.784,29.86-66.274,29.86c-16.491,0-29.86-13.37-29.86-29.86
	c0-16.492,13.369-29.86,29.86-29.86C82.232,219.895,132.016,249.755,132.016,249.755z"/>
<path fill="#55B03A" d="M75.517,316.128c14.281-8.243,72.325-7.275,72.325-7.275s-28.183,50.75-42.465,58.995
	c-14.281,8.246-32.544,3.354-40.79-10.93C56.343,342.637,61.236,324.375,75.517,316.128z"/>
<path fill="#56B99E" d="M191.098,352.116c0,0,0.968,58.045-7.278,72.325c-8.246,14.282-26.507,19.178-40.789,10.931
	c-14.283-8.246-19.176-26.508-10.93-40.789C140.346,380.301,191.098,352.116,191.098,352.116z"/>
<path fill="#59529E" d="M424.876,316.154c14.281,8.245,19.175,26.508,10.93,40.79c-8.245,14.28-26.508,19.175-40.789,10.928
	c-14.28-8.244-42.465-58.995-42.465-58.995S410.597,307.909,424.876,316.154z"/>
</svg>
