<?xml version="1.0" encoding="utf-8"?>
<!-- Generator: Adobe Illustrator 15.0.0, SVG Export Plug-In . SVG Version: 6.00 Build 0)  -->
<!DOCTYPE svg PUBLIC "-//W3C//DTD SVG 1.1//EN" "http://www.w3.org/Graphics/SVG/1.1/DTD/svg11.dtd">
<svg version="1.1" id="Layer_1" xmlns="http://www.w3.org/2000/svg" xmlns:xlink="http://www.w3.org/1999/xlink" x="0px" y="0px"
	 width="632.544px" height="577.854px" viewBox="0 0 632.544 577.854" enable-background="new 0 0 632.544 577.854"
	 xml:space="preserve">
<g>
	<path fill="#FFFFFF" d="M319.057,232.635c-1.403,1.689-2.632,3.481-3.542,5.386c-0.915,1.911-1.49,3.898-1.679,5.998l-1.163-0.128
		c0.035,0.114,0.074,0.228,0.108,0.342c0.381,1.29,0.704,2.592,0.981,3.903c4.842-9.46,11.009-17.8,11.009-17.8
		s3.626,21.432,0.505,34.49c-3.12,13.058-16.044,30.533-16.044,30.533s-0.13-0.769-0.319-2.102
		c-0.705,2.311-1.433,4.606-2.161,6.891l-1.426,4.477c0.996,6.174,2.044,12.34,3.282,18.472c1.635,8.103,3.552,16.171,6.164,24.02
		c1.444,4.338,2.9,8.662,4.272,13.013c0.76,0.766,1.499,1.556,2.229,2.354c0.813-15.685,9.946-37.155,9.946-37.155
		s2.528,5.943,5.042,13.859c-0.094-3.852,0.004-7.72,0.397-11.582c0.483-4.758,1.422-9.511,3.004-14.085
		c0.773-2.284,1.782-4.536,2.888-6.667c1.113-2.141,2.354-4.209,3.696-6.204c0.373-0.553,0.755-1.1,1.141-1.641
		c-1.157-2.76-2.115-5.496-2.745-8.086c-1.813-7.453-1.777-17.221-1.253-25.336c-1.781,2.098-2.941,3.354-2.941,3.354
		s-1.368-23.001,3.416-36.404c0.148-0.417,0.308-0.838,0.477-1.261c-1.679-0.289-2.655-0.484-2.655-0.484s1.528-1.061,4.061-2.67
		c6.076-12.431,18.52-25.925,18.52-25.925s0.422,7.102-0.024,15.711c4.667-2.143,9.492-3.964,13.873-4.871
		c15.445-3.199,40.484,1.825,40.484,1.825s-20.984,14.556-36.43,17.754c-5.866,1.215-13.116,1.243-19.853,0.812
		c-0.41,1.824-0.893,3.568-1.465,5.172c-0.159,0.444-0.329,0.891-0.51,1.341c5.876,1.333,25.344,6.15,36.278,13.692
		c1.325,0.914,2.657,1.961,3.981,3.102c4.289-2.466,8.595-4.884,12.887-7.3l0.766-0.429l0.805-0.436
		c0.466-0.26,0.949-0.537,1.428-0.828c0.955-0.579,1.889-1.196,2.806-1.845c1.834-1.298,3.586-2.734,5.284-4.245
		c3.39-3.033,6.513-6.417,9.459-9.966c2.96-3.542,5.747-7.256,8.448-11.049c0.37-0.521,0.735-1.046,1.104-1.57
		c-1.657-4.461-4.391-12.762-4.391-18.952c0-1.891,0.257-3.979,0.658-6.094c-4.894-0.412-9.805-1.173-13.873-2.506
		c-13.69-4.487-31.241-19.848-31.241-19.848s19.902-1.706,33.72,1.596c2.975-2.551,5.869-5.19,8.472-8.092
		c-3.78-2.412-7.533-5.19-10.215-8.068c-7.848-8.423-14.201-25.945-14.201-25.945s17.028,7.574,24.875,15.997
		c2.1,2.254,4.092,5.159,5.885,8.206c1.305-3.203,2.015-6.633,1.996-10.288c-0.024-4.706-0.95-9.374-2.302-13.868
		c-1.377-4.581-4.461-8.549-7.052-12.507c-1.35-2.062-2.77-4.203-3.959-6.444c-0.046,0.072-0.096,0.143-0.142,0.216
		c-0.653,2.046-1.095,3.275-1.095,3.275s-0.182-0.366-0.494-1.029c-3.149,4.086-7.251,7.508-11.456,10.383
		c-15.263,10.432-24.534,28.14-40.845,37.104c-0.88,2.808-1.907,5.617-2.98,8.303c6.651-3.029,12.186-4.896,12.186-4.896
		s-8.959,18.978-18.64,27.598c-7.616,6.782-21.547,12.379-27.142,14.458c-0.034,0.109-0.068,0.217-0.102,0.324l-0.016,0.052
		c0.004-0.008-0.09,0.247-0.061,0.165l-0.044,0.107l-0.089,0.216l-0.188,0.426c-0.126,0.283-0.262,0.562-0.399,0.838
		c-0.555,1.105-1.196,2.154-1.892,3.153c-1.395,1.996-2.999,3.784-4.663,5.46c-1.433,1.441-2.916,2.801-4.4,4.133
		c-0.357,1.7-0.59,2.681-0.59,2.681s-0.316-0.493-0.862-1.381C324.849,226.69,321.677,229.488,319.057,232.635z"/>
	<path fill="#FFFFFF" d="M342.468,198.93c0.07,0.923,0.072,1.849,0.017,2.769c3.495-6.311,9.154-15.479,15.085-20.761
		c1.633-1.454,3.558-2.854,5.627-4.176c-1.8-8.377-3.558-19.493-2.627-28.02c0.603-5.521,2.54-11.857,4.797-17.754
		c-0.563,0.643-1.133,1.279-1.714,1.902c-0.793,0.85-1.6,1.684-2.418,2.506L360,136.62l-0.624,0.606l-0.078,0.075l-0.106,0.099
		l-0.16,0.142l-0.318,0.284c-3.383,3.049-6.478,6.42-9.256,10.025c-2.771,3.606-5.229,7.457-7.208,11.525
		c-1.973,4.063-3.473,8.363-4.142,12.772c-0.333,2.202-0.452,4.427-0.306,6.626c0.018,0.277,0.041,0.546,0.067,0.816l0.082,0.866
		c0.054,0.549,0.124,1.097,0.208,1.643c0.169,1.091,0.399,2.174,0.682,3.25c0.559,2.155,1.342,4.279,2.077,6.508
		C341.65,194.078,342.295,196.455,342.468,198.93z"/>
	<path fill="#FFFFFF" d="M320.423,364.632c0.31,1.043,0.611,2.089,0.908,3.138c-0.054-0.746-0.089-1.479-0.107-2.199
		C320.959,365.257,320.693,364.943,320.423,364.632z"/>
	<path fill="#FFFFFF" d="M297.003,311.763l0.251-0.867l0.082-0.275l0.067-0.208l0.136-0.417l0.549-1.675l0.444-1.313
		c-1.452-9.101-2.802-18.225-4.495-27.271c-5.717,0.553-14.719,1.141-23.052,0.492c-0.755,1.708-1.618,3.322-2.581,4.82
		c1.29,6.311,2.303,13.616,1.778,19.497c-0.153,1.709-0.455,3.515-0.866,5.362l0.169,0.781l0.468,2.07l0.119,0.521l0.029,0.125
		c0.004,0.018,0.019,0.071,0.022,0.086l0.065,0.253l0.266,1.014c0.728,2.7,1.534,5.38,2.449,8.026
		c3.397,9.917,8.189,19.329,13.638,28.382c-4.459-14.338-3.951-35.661-3.951-35.661s6.004,6.064,12.085,13.933
		c-0.043-1.066-0.06-2.136-0.033-3.203C294.761,321.26,295.682,316.391,297.003,311.763z"/>
	<path fill="#FFFFFF" d="M261.734,245.562c1.034,0.161,2.053,0.304,2.892,0.887c5.089,3.538,8.325,9.607,9.14,16.586
		c6.979,3.082,14.1,7.541,19.149,10.974c-1.365-6.624-2.968-13.194-4.985-19.672c-0.802-2.574-1.693-5.104-2.657-7.597
		c-6.391-2.962-14.201-7.145-19.225-11.794c-1.36-1.259-2.703-2.725-4.005-4.315C261.8,235.604,261.698,240.583,261.734,245.562z"/>
	<path fill="#FFFFFF" d="M359.76,241.314c-2.386,5.385-6.156,11.1-9.736,15.928c4.207,6.419,10.026,16.154,13.037,24.979
		c0.917-0.793,1.844-1.573,2.781-2.34c5.275-4.326,10.816-8.281,16.487-12.011C372.545,259.85,362.985,246.147,359.76,241.314z"/>
	<path fill="#FFFFFF" d="M286.508,98.424c4.33,0.733,9.213,2.502,13.797,4.534c0.122-0.119,0.271-0.262,0.447-0.431
		c-0.169-1.83-0.403-3.65-0.721-5.454c-0.955-5.467-2.885-10.729-5.666-15.55c-2.765-4.834-6.349-9.194-10.25-13.258
		c-0.479-0.502-0.965-0.999-1.454-1.493c-5.197,2.812-11.713,5.04-18.201,6.773c-1.248,6.876-3.568,13.439-5.899,20.013
		c-0.026,2.066-0.256,4.286-0.623,6.556C264.913,98.799,277.554,96.91,286.508,98.424z"/>
	<path fill="#FFFFFF" d="M431.782,310.392c-3.016-1.021-5.429-2.999-7.531-5.328c-3.923,2.348-8.672,4.375-13.483,6.078
		c0.403,0.201,0.808,0.396,1.212,0.584c1.832,0.849,4.071,1.932,6.155,1.75c2.462-0.214,3.875-2.923,4.785-4.914
		c0.261-0.568,2.353-0.75,2.187-0.388c-1.668,3.643-4.645,6.5-8.912,6.212c-2.697-0.182-5.174-1.285-7.585-2.503
		c-7.033,2.348-13.951,4.002-18.361,4.95c14.052,1.536,27.84-1.772,41.092-6.289C431.488,310.495,431.635,310.442,431.782,310.392z"
		/>
	<path fill="#FFFFFF" d="M303.667,343.099c0.701,1.354,1.324,2.697,1.845,4.009c0.681,1.713,1.27,3.581,1.78,5.54
		c0.233-0.227,0.936-0.551,1.481-0.629c-0.127-0.378-0.253-0.758-0.381-1.137c-3.216-9.453-5.457-19.123-7.292-28.883
		c-0.143,1.441-0.224,2.881-0.223,4.318c-0.013,4.329,0.715,8.629,1.804,13.008C302.988,340.576,303.322,341.834,303.667,343.099z"
		/>
	<path fill="#FFFFFF" d="M293.373,130.355c-1.362,2.763-2.681,5.547-3.867,8.375c1.129-0.116,2.303-0.135,3.46-0.35
		c1.075-0.199,2.081-0.682,3.092-1.019c0.936-2.297,1.72-4.671,2.367-7.088c1.33-4.989,2.122-10.143,2.463-15.323
		c-0.433,0.975-0.876,1.944-1.329,2.909C297.576,122.073,295.423,126.196,293.373,130.355z"/>
	<path fill="#FFFFFF" d="M265.052,50.038c-0.029-0.029-0.058-0.057-0.086-0.085c0.002,0.047,0.005,0.096,0.007,0.144
		C265,50.076,265.025,50.057,265.052,50.038z"/>
	<path fill="#FFFFFF" d="M291.89,196.583c-1.126,6.838-0.473,13.944,4.15,19.495c0.123,0.146,0.15,0.294,0.113,0.433
		c0.802,1.036,1.608,2.072,2.413,3.113c2.85,3.685,5.691,7.447,8.191,11.509c1.592,2.583,3.036,5.298,4.234,8.136
		c0.332-0.991,0.731-1.954,1.193-2.878c1.118-2.238,2.559-4.248,4.129-6.075c3.072-3.558,6.584-6.488,9.968-9.413
		c-3.455-5.874-9.492-16.848-12.984-27.287c-0.58,0.445-1.18,0.861-1.804,1.243c-2.106,1.289-2.754,7.611-6.525,8.309
		c-3.769,0.7-6.682-4.971-9.129-5.431C294.489,197.483,293.169,197.094,291.89,196.583z"/>
	<path fill="#FFFFFF" d="M303.433,292.731c1.531-4.557,2.962-9.118,4.139-13.715c-0.269-6.093-0.12-12.816,1.155-18.146
		c0.402-1.688,0.97-3.45,1.652-5.237c-0.188-3.475-0.7-6.925-1.596-10.261c-1.153-4.276-3.018-8.374-5.294-12.282
		c-2.276-3.915-4.947-7.65-7.688-11.38c-2.741-3.733-5.561-7.471-8.134-11.428c-1.287-1.978-2.509-4.011-3.618-6.114
		c-0.554-1.052-1.08-2.122-1.571-3.209c-0.245-0.543-0.481-1.091-0.709-1.644l-0.668-1.618c-1.81-4.457-2.788-9.226-3.02-13.981
		c-0.003-0.062-0.003-0.123-0.006-0.185c-1.858-3.434-3.244-7.341-4.026-11.569c-0.026-0.142-0.047-0.284-0.071-0.425
		c-0.391,0.587-0.768,1.181-1.128,1.783c-0.898,1.498-1.691,3.046-2.364,4.639c2.521-1.885,4.176-3.009,4.176-3.009
		s-2.17,12.624-6.468,23.821c6.014,10.599,12.442,20.974,17.858,31.896c1.538,3.101,2.94,6.234,4.234,9.396
		c3.494,6.137,5.751,11.168,5.751,11.168s-0.705-0.253-1.914-0.723c2.507,7.641,4.463,15.461,6.041,23.478
		C301.39,280.211,302.431,286.468,303.433,292.731z"/>
	<path fill="#FFFFFF" d="M264.549,206.72c-0.085,0.153-0.171,0.304-0.258,0.455c-0.292,2.057-0.559,4.117-0.802,6.181
		c2.457,1.273,4.954,2.679,7.298,4.181C268.724,213.924,266.627,210.327,264.549,206.72z"/>
	<path fill="#FFFFFF" d="M386.512,316.305c1.196-1.693,3.372-4.693,6.17-8.221c-1.05,0.146-2.112,0.363-3.19,0.659
		c-4.545,1.244-8.87,3.107-13.209,4.921C379.616,314.825,383.05,315.71,386.512,316.305z"/>
	<path fill="#FFFFFF" d="M281.102,188.18c0.539,2.907,1.381,5.747,2.557,8.447l0.702,1.585c0.227,0.517,0.463,1.029,0.708,1.538
		c0.49,1.019,1.015,2.022,1.569,3.012c0.925,1.654,1.934,3.268,2.995,4.854c-0.765-3.896-0.583-8.018,0.211-11.979
		C286.556,193.926,283.587,191.377,281.102,188.18z"/>
	<path fill="#FFFFFF" d="M381.938,274.431c-1.473,0.845-2.94,1.703-4.405,2.567c3.186-0.506,6.442-0.493,9.723,0.264
		c6.917,1.596,13.482,4.939,20.074,7.511c0.826,0.322,1.611,0.699,2.367,1.116c1.872-1.408,3.854-2.572,5.92-3.562
		c-7.78-2.055-19.857-5.781-28.298-10.907C385.518,272.401,383.724,273.407,381.938,274.431z"/>
	<path fill="#FFFFFF" d="M161.964,230.201c0.03,0.084,0.061,0.173,0.09,0.253l0.114,0.296l0.036,0.093l0.015,0.033
		c0.235,0.504,0.51,1.009,0.813,1.512c0.319-4.619,2.222-10.294,3.978-14.686c-0.45,0.271-0.883,0.553-1.298,0.845
		C164.494,222.935,163.118,227.017,161.964,230.201z"/>
	<path fill="#FFFFFF" d="M135.886,159.371c-3.321-2.34-8.176-5.957-12.717-10.065c-1.197-0.199-2.332-0.378-3.512-0.529
		c-0.67-0.086-1.342-0.165-2.013-0.238c0.266,0.153,0.538,0.301,0.816,0.434c1.588,0.763,3.486,0.776,4.772,1.906
		c3.67,3.226,6.079,7.821,7.058,13.034c1.798,0.527,3.507,1.143,5.011,1.862c1.595,0.763,3.244,1.78,4.874,2.931
		c-0.378-0.784-0.74-1.565-1.091-2.339C138.008,163.993,136.985,161.666,135.886,159.371z"/>
	<path fill="#FFFFFF" d="M193.001,112.409c-4.009-3.576-7.872-7.35-11.333-11.513c-1.725-2.083-3.348-4.266-4.769-6.591
		c-1.419-2.317-2.641-4.809-3.444-7.425c-0.104-0.331-0.202-0.661-0.297-0.991c-0.135,3.487-0.782,14.443-3.744,21.12
		c-2.298,5.178-7.437,11.049-10.793,14.564c7.564-0.716,16.551-1.01,23.502,0.437c2.711,0.564,5.601,1.496,8.512,2.639
		c1.376-3.698,2.358-6.007,2.358-6.007s1.423,3.346,3.245,8.438c10.924,5.146,20.696,11.938,20.696,11.938
		s-7.253,1.448-16.237,2.237c1.022,3.825,1.92,7.809,2.517,11.672c4.16-6.043,9.947-10.262,16.322-11.641
		c1.743-0.375,3.448,0.142,5.218,0.535c-0.86-0.481-1.338-0.763-1.338-0.763s2.456-0.687,6.253-1.536
		c-3.747-2.477-7.485-4.981-11.189-7.542C209.696,125.896,201.045,119.544,193.001,112.409z"/>
	<path fill="#FFFFFF" d="M414.179,286.795c1.825-1.182,3.87-2.287,6.042-3.316c-0.876-0.207-1.914-0.459-3.081-0.757
		c-2.219,1.02-4.341,2.257-6.319,3.833c0.63,0.4,1.233,0.833,1.817,1.288C413.153,287.479,413.667,287.127,414.179,286.795z"/>
	<path fill="#FFFFFF" d="M175.235,207.462l5.054-1.703c0.487-0.164,0.97-0.329,1.45-0.496c-0.667-0.889-1.415-1.746-2.225-2.569
		c-1.654-1.695-3.551-3.255-5.556-4.728c-1.752-1.288-3.595-2.505-5.475-3.707c0.229,1.898,0.36,3.745,0.36,5.491
		c0,3.307-0.467,6.975-1.191,10.678C170.177,209.25,172.726,208.331,175.235,207.462z"/>
	<path fill="#FFFFFF" d="M448.459,211.993l0.99-1.454l0.496-0.726l0.063-0.091c-0.045,0.072,0.021-0.033,0.026-0.041l0.118-0.186
		l0.236-0.37c2.462-3.889,4.692-7.956,6.717-12.125c0.436-0.901,0.859-1.808,1.281-2.718c-2.261,0.101-5.217,0.186-8.517,0.164
		c0.355,1.97,0.58,3.905,0.58,5.669c0,3.685-0.97,8.117-2.104,12.044L448.459,211.993z"/>
	<path fill="#FFFFFF" d="M304.3,104.822c0.007-0.021,0.014-0.041,0.021-0.062c0.152-0.48,0.295-0.964,0.434-1.45
		c-0.364,0.007-0.711,0.013-1.041,0.018c0.04,0.419,0.075,0.839,0.107,1.26C303.981,104.667,304.141,104.744,304.3,104.822z"/>
	<path fill="#FFFFFF" d="M437.188,84.936c-0.005,1.396-0.083,2.846-0.218,4.325c0.109-0.143,0.22-0.289,0.333-0.438
		C438.297,87.5,437.907,86.185,437.188,84.936z"/>
	<path fill="#FFFFFF" d="M193.143,266.018c-1.291-1.131-2.634-2.232-4.002-3.317c-5.494-4.328-11.283-8.459-16.911-12.944
		c-0.667-0.533-1.331-1.07-1.992-1.616c-0.511,1.27-1.006,2.424-1.444,3.41c1.826-0.35,3.706-0.334,3.662-0.02
		c-0.266,1.931-0.306,3.919,0.129,5.831c1.331,5.835,6.063,9.673,11.208,12.221c4.311,2.135,8.904,3.589,13.559,4.78
		c-0.354-1.6-0.718-3.412-1.039-5.321C195.336,268.008,194.255,266.998,193.143,266.018z"/>
	<path fill="#FFFFFF" d="M340.504,372.883c-0.668,4.263-1.735,8.68-2.913,12.8c3.011,5.305,5.748,10.767,8.226,16.337
		c-0.911-6.088-2.061-12.156-3.223-18.227C341.895,380.162,341.187,376.527,340.504,372.883z"/>
	<path fill="#FFFFFF" d="M374.879,315.612c-0.609-0.201-1.21-0.413-1.807-0.635c-0.745,0.224-1.722,0.042-0.987-0.387
		c-2.275-0.899-4.468-1.947-6.611-3.088c-0.563,8.704-1.684,15.504-1.684,15.504s-8.884-11.911-14.801-24.41
		c-1.284,1.868-2.471,3.796-3.534,5.788c-1.075,2.021-2.014,4.05-2.771,6.202c-1.534,4.279-2.483,8.781-2.998,13.346
		c-0.5,4.423-0.603,8.905-0.458,13.39c4.593-2.477,10.051-4.988,14.752-5.952c6.362-1.302,15.115-0.544,21.014,0.252
		c2.824-7.142,7.798-12.752,14.011-15.473c2.141-0.937,4.523-0.353,6.921-0.548c0.713-0.059,1.409-0.235,2.097-0.419
		C390.19,319.254,382.426,318.099,374.879,315.612z"/>
	<path fill="#FFFFFF" d="M369.024,426.752c0.465-0.189,0.925-0.389,1.383-0.592l0.681-0.313l0.704-0.336
		c1.796-0.807,3.471-1.846,4.973-3.105c1.503-1.26,2.823-2.74,3.965-4.36c2.293-3.25,3.877-7.002,5.353-10.795
		c1.477-3.799,2.85-7.691,4.714-11.402c0.932-1.853,1.989-3.655,3.226-5.336c1.013-1.381,2.158-2.671,3.415-3.841
		c-1.824-1.8-3.313-4.245-4.827-4.692c-0.721-0.212-1.427-0.464-2.122-0.749c-0.818,5.909-2.938,18.292-7.127,25.938
		c-5.026,9.174-17.412,19.511-20.102,21.694c0.986-0.336,1.966-0.672,2.938-1.025C367.151,427.492,368.095,427.133,369.024,426.752z
		"/>
	<path fill="#FFFFFF" d="M408.075,287.206c-0.1-0.051-0.195-0.108-0.296-0.157c-3.433-1.656-7.157-2.814-10.672-4.307
		c-2.975-1.263-5.965-2.576-9.087-3.438c-5.355-1.478-10.453-1.01-15.403,0.617c-0.771,0.463-1.542,0.925-2.312,1.39l-0.073-0.123
		c-0.686,0.526-1.371,1.053-2.045,1.59c-1.348,1.079-2.676,2.182-3.982,3.31c0.005,0.023,0.012,0.047,0.017,0.07
		c1.619,6.651,1.764,15.144,1.403,22.663c0.65,0.367,1.304,0.729,1.964,1.077c2.444,1.287,4.992,2.417,7.608,3.38
		c5.86-2.474,11.923-5.223,18.196-6.083c4.78-5.951,11.175-13.156,17.599-18.128c-0.551-0.425-1.122-0.824-1.716-1.188
		c-0.395,0.358-0.929,0.542-1.46,0.558c-0.22,0.006-0.96-0.138-0.562-0.508C407.523,287.678,407.8,287.444,408.075,287.206z"/>
	<path fill="#FFFFFF" d="M201.636,275.393c0.213,0.049,0.426,0.097,0.64,0.145c-0.156-0.168-0.31-0.338-0.464-0.506
		C201.752,275.154,201.695,275.272,201.636,275.393z"/>
	<path fill="#FFFFFF" d="M349.375,425.457c-0.106,3.104-0.32,6.201-0.619,9.289c0.049-0.029,0.097-0.061,0.146-0.088
		c3.687-2.129,7.632-3.508,11.512-4.832c0.786-0.266,1.57-0.529,2.353-0.795c0.245-2.264,2.239-19.405,7.514-29.032
		c4.154-7.583,13.334-15.958,17.914-19.871c-8.574-4.703-14.612-15.03-15.627-27.423c-0.312-3.801-0.076-7.489,0.622-10.953
		c-4.902,2.756-11.178,5.818-16.487,6.906c-5.039,1.032-11.579,0.771-17.012,0.223c0.198,2.26,0.443,4.519,0.724,6.775
		c0.042,0.333,0.089,0.665,0.132,0.999c0.137,0.898,0.257,1.79,0.355,2.668c1.125,8.021,2.621,16.014,4.069,24.027
		c1.661,9.235,3.32,18.513,4.126,27.933c0.195,2.357,0.331,4.719,0.386,7.088c0.026,1.185,0.032,2.368,0.013,3.554
		C349.482,423.104,349.417,424.32,349.375,425.457z"/>
	<path fill="#FFFFFF" d="M454.315,304.278c7.905,2.237,25.45,7.774,35.589,15.365c8.735,6.539,17.556,18.782,22.627,26.495
		c-0.032-2.468,0.073-5.018,0.265-7.527c-4.656-3.294-8.765-7.369-12.647-11.52c-5.222-5.583-10.129-11.531-15.865-16.609
		c-5.035-4.458-11.104-8.5-18.043-8.751c-4.187-0.152-7.998,1.17-11.897,2.538C454.334,304.272,454.325,304.275,454.315,304.278z"/>
	<path fill="#FFFFFF" d="M429.971,277.708c4.038-0.933,8.224-1.802,11.975-3.625c3.881-1.887,7-4.604,9.392-8.199
		c0.341-0.51,2.531-0.807,2.034-0.06c-4.628,6.954-11.928,10.071-19.78,11.984c-4.173,1.017-8.368,1.927-12.355,3.29
		c0.38,0.557,0.709,1.048,0.989,1.467c14.014-6.14,31.971-9.266,31.971-9.266s-14.508,21.477-28.15,30.626
		c2.141,2.43,4.636,4.457,7.792,5.189c0.307,0.072,0.496,0.199,0.6,0.351c1.565-0.551,3.125-1.114,4.684-1.68
		c2.525-8.098,7.493-22.064,13.933-30.464c4.517-5.89,11.865-11.79,18.322-16.355c-0.063-0.048-0.127-0.097-0.192-0.144
		c-1.675-1.194-3.539-2.108-5.507-2.754c-0.762,0.234-1.188,0.356-1.188,0.356s0.117-0.22,0.334-0.619
		c-1.835-0.527-3.745-0.843-5.681-1.008c-2.174-0.185-4.38-0.185-6.597-0.089c-1.106,0.048-2.218,0.122-3.332,0.209l-1.705,0.14
		l-1.688,0.115c-4.502,0.31-9,0.641-13.477,1.06c-4.478,0.421-8.936,0.928-13.333,1.669c-4.14,0.696-8.218,1.624-12.193,2.875
		c5.809,6.233,10.925,13.255,13.854,17.499C423.679,279.239,426.804,278.439,429.971,277.708z"/>
	<path fill="#FFFFFF" d="M257.549,244.126c0.001-0.676,0.007-1.352,0.013-2.027c-1.082,0.324-2.419,0.711-3.941,1.123
		c0.234-0.008,0.468-0.016,0.702-0.015C255.47,243.21,256.506,243.637,257.549,244.126z"/>
	<path fill="#FFFFFF" d="M280.74,398.733c-3.598-3.588-7.743-8.244-9.982-12.556c-4.496-8.657-5.707-24.403-5.707-24.403
		s7.682,6.339,13.097,13.284c-0.054-3.371-0.101-6.716-0.297-10.035c-0.127-2.222-0.338-4.43-0.67-6.61
		c-0.336-2.177-0.771-4.344-1.465-6.382c-0.687-2.066-1.611-4.059-2.691-5.972c-1.086-1.91-2.351-3.728-3.717-5.475
		c-2.428-3.075-5.193-5.899-8.063-8.632c-1.414,2.987-2.419,4.864-2.419,4.864s-1.285-3.969-2.624-9.545
		c-2.01-1.847-4.024-3.704-5.983-5.633c-3.795-3.141-7.524-6.362-11.199-9.646c0.078,0.504,0.158,1.008,0.241,1.509
		c1.745,10.458,4.368,20.81,7.626,30.896c6.756,20.907,16.603,40.305,27.91,59.082c5.681,9.434,9.58,19.685,12.702,30.214
		c1.07,1.225,2.12,2.467,3.144,3.73c-1.76-6.201-3.454-12.42-5.081-18.655C283.846,412.116,282.236,405.438,280.74,398.733z"/>
	<path fill="#FFFFFF" d="M310.619,453.094c-1.225-1.33-2.349-2.672-3.331-4.014c-9.142-12.475-14.855-36.856-14.855-36.856
		s7.758,4.609,15.938,10.995c-0.313-4.776-0.628-9.542-0.979-14.294c-0.567-7.68-1.227-15.327-2.124-22.924
		c-0.566-0.869-1.135-1.737-1.708-2.602c-3.133-4.728-6.364-9.404-9.578-14.11c-3.211-4.708-6.387-9.46-9.427-14.32
		c-3.038-4.859-5.929-9.835-8.537-14.976c-2.609-5.138-4.933-10.444-6.861-15.9c-0.746-2.112-1.438-4.244-2.062-6.396
		c-1.585,4.677-3.493,9.156-5.077,12.603c3.054,2.867,6.065,5.821,8.767,9.096c2.924,3.523,5.463,7.472,7.14,11.839
		c0.866,2.202,1.426,4.453,1.888,6.712c0.456,2.263,0.78,4.54,1.047,6.812c0.527,4.545,0.78,9.079,1.131,13.549
		c0.086,1.101,0.179,2.197,0.284,3.29c4.049,8.825,5.162,23.284,5.162,23.284s-0.085-0.07-0.232-0.195l3.351,12.783
		c2.728,10.505,5.537,20.989,8.433,31.45c5.956,9.128,10.907,18.923,14.838,29.104c-0.754-4.43-1.395-8.867-1.945-13.303
		C311.4,460.841,310.988,456.967,310.619,453.094z"/>
	<path fill="#FFFFFF" d="M327.841,445.475c-0.068-0.688-0.132-1.373-0.203-2.057c-0.571-5.516-1.221-11.016-1.958-16.498
		c-1.519-4.797-3.31-9.503-5.366-14.093c-1.6-3.607-3.369-7.133-5.256-10.602c0.213,1.994,0.417,3.99,0.615,5.984
		c0.767,7.77,1.438,15.526,2.155,23.253c1.985,1.98,3.792,4.008,5.272,6.029C324.806,439.816,326.391,442.559,327.841,445.475z"/>
	<path fill="#FFFFFF" d="M322.831,411.735c0.327,0.77,0.644,1.543,0.956,2.32c-3.252-20.177-7.813-40.088-14.197-59.574
		c-0.73-0.538-1.47-1.064-2.229-1.567c1.067,4.167,1.78,8.733,2.256,13.101c1.007,4.751,1.87,9.526,2.623,14.306
		c0.746,4.738,1.384,9.484,1.953,14.228c0.334,0.581,0.674,1.159,1.002,1.743C318.018,401.284,320.601,406.438,322.831,411.735z"/>
	<path fill="#FFFFFF" d="M218.803,425.541c-1.51,0.955-3.017,1.807-4.49,2.508c-6.751,3.215-16.339,4.994-23.851,5.959
		c-0.001,0.008-0.002,0.016-0.003,0.023c2.344,0.115,4.686,0.252,7.018,0.383c11.377,0.631,22.773,1.67,33.966,3.861
		c5.446,1.068,10.863,2.414,16.182,4.074c-4.277-3.086-8.639-6.055-13.091-8.879C229.569,430.318,224.272,427.715,218.803,425.541z"
		/>
	<path fill="#FFFFFF" d="M238.695,408.597c-2.072,2.141-4.936,4.984-8.203,7.902c10.808,9.206,21.207,18.888,31.222,28.95
		c2.358,1.818,4.685,3.678,6.98,5.574c5.505,2.906,10.763,6.271,15.675,10.149C273.128,440.525,257.058,423.148,238.695,408.597z"/>
	<path fill="#FFFFFF" d="M284.707,464.733c-1.576-1.344-3.193-2.633-4.843-3.869c3.011,2.836,5.949,5.76,8.765,8.797
		c-0.375-0.816-0.76-1.629-1.152-2.439C286.572,466.376,285.654,465.542,284.707,464.733z"/>
	<path fill="#FFFFFF" d="M548.636,355.173c-6.442-2.37-12.806-4.873-19.042-7.677c0.252,0.996,0.466,1.975,0.629,2.927
		c2.311,13.489-2.795,35.052-2.795,35.052s-11.992-18.632-14.303-32.122c-0.077-0.441-0.144-0.893-0.205-1.351
		c-7.842-2.214-25.52-7.769-35.711-15.4c-10.952-8.198-22.039-25.362-25.702-31.322c-0.338,0.122-0.679,0.24-1.017,0.363
		c-7.138,5.053-13.21,8.485-13.21,8.485s0.401-1.557,1.151-4.083c-10.102,3.635-20.393,7.07-31.079,8.48
		c-1.538,0.203-3.075,0.355-4.611,0.465c11.297,2.817,20.403,14.64,21.617,29.47c0.611,7.45-0.695,14.458-3.501,20.177
		c1.471,3.817,3.162,9.018,3.347,13.161c0.334,7.48-3.906,18.836-3.906,18.836s-5.24-10.932-5.575-18.412
		c-0.078-1.736,0.093-3.683,0.398-5.646c-1.744,1.659-3.695,3.034-5.833,4.061c-2.34,1.124-3.692,7.667-7.708,7.994
		c-1.242,0.102-2.334-0.426-3.323-1.223c-2.659,2.542-4.702,5.676-6.296,9.013c-1.752,3.643-3.045,7.511-4.463,11.367
		c-1.422,3.844-2.971,7.738-5.347,11.244c-1.184,1.741-2.581,3.37-4.192,4.769c-1.608,1.4-3.426,2.57-5.346,3.475l-0.678,0.336
		l-0.708,0.34c-0.474,0.223-0.95,0.436-1.429,0.641c-0.957,0.412-1.919,0.797-2.886,1.166c-1.932,0.738-3.87,1.412-5.791,2.102
		c-3.833,1.377-7.637,2.797-11.021,4.83c-0.571,0.346-1.127,0.709-1.667,1.092c-0.068,0.594-0.14,1.186-0.214,1.777
		c-1.172,9.355-3.064,18.579-5.136,27.735c-0.307,1.355-0.619,2.711-0.932,4.066c0.212-0.24,0.424-0.479,0.642-0.713
		c2.229-2.383,4.905-4.363,7.76-5.842c2.855-1.494,5.85-2.514,8.786-3.361c2.939-0.85,5.838-1.537,8.604-2.391
		c0.966-0.295,1.915-0.615,2.843-0.967c2.923-8.688,9.354-15.069,16.776-16.673c0.164-0.035,0.326-0.057,0.488-0.074
		c1.159-1.932,2.317-3.914,3.652-5.865c0.884-1.281,1.854-2.547,2.974-3.719c1.116-1.168,2.388-2.236,3.788-3.109
		c1.398-0.875,2.916-1.545,4.462-2.023c1.548-0.48,3.128-0.775,4.697-0.945c1.566-0.17,3.143-0.215,4.672-0.182
		c1.565,0.033,3.092,0.145,4.621,0.318c3.051,0.346,6.041,0.93,8.983,1.592c3.227,0.721,6.408,1.545,9.579,2.252
		c9.827-4.998,25.452-7.211,25.452-7.211s-3.126,4.324-7.511,9.195c1.066,0.021,2.132,0.033,3.199,0.033
		c4.546-4.705,10.707-8.297,13.605-14.325c1.505-3.127,2.103-6.6,1.271-9.979c-3.831-1.771-7.5-3.787-10.438-6.006
		c-11.43-8.621-22.995-28.709-22.995-28.709s20.446,5.091,32.257,13.038c0.599-1.187,1.263-2.346,1.952-3.472
		c-6.243-2.587-12.873-5.873-17.619-9.624c-11.845-9.366-23.556-30.827-23.556-30.827s23.582,6.446,35.427,15.812
		c4.356,3.444,8.693,8.525,12.437,13.573c1.524-3.134,2.586-6.44,2.636-10.063c0.016-1.181,4.07-1.743,4.061-1.089
		c-0.071,5.184-2.104,9.695-4.644,13.993c5.356,7.614,9.065,14.412,9.065,14.412s-6.786-1.855-14.904-5.021
		c-0.792,1.408-1.514,2.865-2.084,4.358c11.059,9.026,21.89,27.843,21.89,27.843s-9.34-2.328-19.042-6.289
		c0.043,2.867-0.732,5.777-2.188,8.232c-3.414,5.763-9.207,9.308-13.702,14.104c0.336-0.006,0.673-0.01,1.009-0.02
		c5.167-0.135,10.335-0.49,15.484-1.037c-1.784-3.467-2.846-5.869-2.846-5.869s5.058,1.85,11.195,4.807
		c3.878-0.576,7.74-1.262,11.573-2.084c2.909-0.627,5.802-1.326,8.664-2.133l1.072-0.309c0.392-0.113,0.734-0.191,1.092-0.295
		c0.711-0.193,1.423-0.402,2.13-0.625c1.415-0.441,2.817-0.932,4.217-1.441c2.802-1.018,5.592-2.121,8.486-2.98
		c2.463-0.733,5.018-1.255,7.602-1.39c3.573-3.086,13.291-11.068,21.306-13.887c2.536-0.893,5.531-1.49,8.591-1.883
		c-0.442-1.424-0.816-2.894-1.107-4.409c-2.615-13.62,2.583-26.514,11.999-31.913c1.427-0.818,3.07-0.848,4.739-0.994
		c-1.626-0.676-3.255-1.351-4.896-1.991C563.169,360.38,555.88,357.838,548.636,355.173z M449.698,408.776
		c0,0-12.112,9.65-21.33,12.206c-9.217,2.557-24.57,0.521-24.57,0.521s12.113-9.649,21.331-12.206S449.698,408.776,449.698,408.776z
		 M526.046,408.948c-11.759,7.377-33.951,10.911-33.951,10.911s12.844-18.44,24.604-25.817
		c11.758-7.375,33.951-10.912,33.951-10.912S537.806,401.571,526.046,408.948z"/>
	<path fill="#FFFFFF" d="M147.135,414.634c-1.207,0.025-2.406,0.123-3.6,0.258c-1.407,2.814-4.556,8.819-8.458,14.444
		c1.398,1.133,2.907,2.127,4.564,2.932c8.458,4.1,18.869,2.98,27.931,2.273c4.13-0.322,8.274-0.73,12.42-0.777
		c2.551-2.752,8.904-9.373,16.01-14.952C179.99,415.405,163.448,414.284,147.135,414.634z"/>
	<path fill="#FFFFFF" d="M326.474,578h306.557V0h-633v578h307.024l0.67-9.152c-4.049-9.989-1.7-21.958-1.184-32.708
		c0.15-3.125,0.385-6.222,0.536-9.323c-0.118-0.055-0.184-0.125-0.185-0.215c-0.028-3.373-0.446-6.734-1.246-10.014
		c-1.809-7.426-5.023-14.328-8.1-21.279c-0.046-0.059-0.083-0.125-0.101-0.199c-0.006-0.023-0.012-0.047-0.019-0.07
		c-1.12-2.532-2.216-5.077-3.22-7.653c-2.98-4.52-6.398-8.768-9.945-12.758c-8.561-9.629-18.249-18.241-28.421-26.13
		c-1.074-0.832-2.154-1.656-3.24-2.473c-7.207-2.754-14.676-4.854-22.236-6.365c-11.476-2.297-23.137-3.455-34.816-4.086
		c-1.745-0.094-3.496-0.197-5.25-0.295c-0.616,4.596-2.274,14.635-5.635,20.801c-4.467,8.196-16.316,17.577-16.316,17.577
		s1.46-15.043,5.927-23.237c3.109-5.705,9.792-11.982,13.569-15.271c-2.209-0.111-4.419-0.195-6.625-0.225
		c-1.525,0.107-2.417,0.145-2.417,0.145s0.048-0.053,0.134-0.15c-0.129,0.002-0.26,0-0.389,0.002
		c-4.482,0.055-8.949,0.512-13.415,0.844c-6.297,0.469-13.178,1.086-19.634,0.094c9.202,4.826,15.095,16.641,13.923,29.847
		c-1.194,13.457-8.737,24.264-18.912,27.162c-2.326,0.662-4.598,6.452-8.338,6.12c-3.739-0.332-4.997-6.444-7.184-7.521
		c-9.476-4.664-14.974-16.605-13.781-30.039c0.542-6.118,2.527-11.675,5.484-16.188c-7.704,3.986-15.362,6.602-15.362,6.602
		s7.955-17.016,16.589-24.764c1.962-1.76,4.397-3.434,6.988-4.969c-1.048-1.43-2.057-2.89-3.051-4.347
		c-7.561-0.57-12.927-5.77-17.167-11.771c-1.289-1.822-2.553-3.891-3.843-6.062c-0.516,10.769-1.997,25.592-6.105,36.006
		c-7.175,18.186-29.386,40.729-29.386,40.729s-0.836-31.64,6.338-49.823c4.955-12.558,17.081-27.195,24.111-35.051
		c-6.794-4.257-14.474-7.374-22.521-7.168c-8.062,0.204-15.763,3.633-22.617,7.999c-0.37,0.926-0.591,1.445-0.591,1.445
		s-0.126-0.297-0.347-0.839c-1.821,1.196-3.58,2.451-5.265,3.722c-8.107,6.118-15.398,13.196-22.971,19.942
		c-0.5,0.445-1.334,0.633-1.979,0.693c-0.241,0.023-1.187,0.006-0.686-0.439c8.536-7.604,16.718-15.707,26.143-22.236
		c1.391-0.964,2.828-1.908,4.305-2.814c-2.174-5.5-8.021-21.354-8.021-32.688c0-6.428,1.88-14.308,3.905-20.932
		c-4.75-2.149-9.424-4.771-13.291-7.118c-0.4,1.186-0.846,2.313-1.342,3.337c-4.021,8.304-15.273,18.125-15.273,18.125
		s0.599-12.266,3.708-20.744c-2.624,0.883-5.214,1.859-7.755,2.937c-1.143,0.485-2.383-0.728-0.985-1.32
		c3.113-1.321,6.293-2.5,9.522-3.54c0.084-0.188,0.17-0.373,0.258-0.554c0.683-1.41,1.577-2.863,2.586-4.305
		c-0.136-0.096-0.208-0.148-0.208-0.148s0.125-0.022,0.354-0.062c0.551-0.779,1.136-1.553,1.74-2.314
		c-3.257-0.779-6.479-1.719-9.646-2.889c-0.452-0.167,0.85-0.743,0.901-0.761c0.551-0.191,1.314-0.424,1.891-0.211
		c2.627,0.97,5.296,1.776,7.992,2.465c3.436-4.101,7.173-7.637,8.811-9.134c-1.49,0.38-2.853,1.068-4,2.176
		c-1.144,1.104-3.169,1.561-4.693,1.682c-0.649,0.051-2.817-0.058-1.663-1.173c4.868-4.704,12.471-6.286,19.046-5.785
		c4.975,0.379,9.859,1.669,14.478,3.574c-8.164-10.6-14.474-23.084-14.474-23.084s24.369,7.496,36.407,17.648
		c9.366,7.9,18.406,23.426,21.957,29.93c3.425,1.367,6.884,2.651,10.354,3.907c3.529,1.277,7.062,2.541,10.595,3.802
		c4.239-3.857,11.191-9.639,17.271-12.174c3.996-1.666,9.255-2.611,14.017-3.148c-1.754-7.999-3.617-19.225-2.657-27.709
		c1.669-14.735,13.494-35.631,13.494-35.631s6.851,23.012,5.183,37.747c-0.901,7.955-4.761,17.702-8.124,24.991
		c2.629-0.112,4.334-0.1,4.334-0.1s-3.261,3.337-7.742,7.072c-1.184,2.292-1.963,3.669-1.963,3.669s-0.182-0.613-0.478-1.697
		c-3.482,2.719-7.41,5.38-11.029,6.888c-3.943,1.643-9.116,2.586-13.827,3.126c7.927,2.847,15.835,5.738,23.678,8.821
		c-1.705-6.175-2.602-10.572-2.602-10.572s9.844,6.245,19.43,14.484c2.435-7.059,9.157-25.035,17.583-34.944
		c8.162-9.597,24.053-18.833,31.02-22.616c0.371-0.991,0.772-1.98,1.192-2.955c-6.192-0.633-13.223-1.808-18.495-3.992
		c-11.884-4.922-26.469-19.789-26.469-19.789s8.571-0.082,17.853,1.16c-1.694-0.4-3.382-0.822-5.059-1.295
		c-4.07-1.146-8.642-2.677-12.681-4.862c-0.595,0.167-1.261,0.161-1.285-0.135c-0.018-0.221-0.047-0.434-0.083-0.644
		c-3.127-1.874-5.836-4.188-7.594-7.083c-1.038-0.36-2.085-0.656-3.079-0.915c-5.882-1.53-12.119-2.17-17.755-4.542
		c-2.33-0.98-4.742-2.276-6.28-4.351c-1.075-1.45-1.998-3.063-2.832-4.721c-0.224,6.108-1.042,16.971-3.99,24.143
		c-4.293,10.445-17.31,23.287-17.31,23.287s-0.224-18.284,4.07-28.73c3.397-8.265,12.249-18.023,15.8-21.741
		c-0.207-0.467-0.411-0.934-0.612-1.395c-3.295-7.607-6.183-16.72-3.775-24.987c0.184-0.633,2.374-0.949,2.198-0.344
		c-2.465,8.464,0.698,18.039,4.242,25.744c1.348,2.93,2.758,6.574,5.097,8.875c1.918,1.887,4.377,3.063,6.902,3.919
		c5.345,1.81,10.979,2.481,16.402,3.986c-1.048-2.402-1.475-5.163-1.037-8.346c0.058-0.417,0.404-0.768,0.912-1.058
		c-0.712-2.339-1.73-5.988-2.463-9.875c-1.286-1.273-2.536-2.611-3.712-4.07c-1.202-1.5-2.338-3.121-3.257-4.998l-0.042-0.088
		l-0.021-0.044c-0.037-0.083,0.052,0.125-0.087-0.198l-0.063-0.154l-0.13-0.322c-0.098-0.251-0.19-0.497-0.273-0.731
		c-0.169-0.479-0.326-0.966-0.466-1.465c-0.277-0.999-0.486-2.042-0.59-3.126c-0.065-0.643-0.081-1.305-0.056-1.973
		c-2.503-7.609-5.189-17.622-5.189-25.559c0-4.915,1.029-10.625,2.408-16.066l-0.041-0.033l-0.385-0.313l-0.779-0.646
		c-0.522-0.441-1.041-0.889-1.554-1.349c-5.324-0.534-13.955-1.775-19.646-4.498c-0.033-0.016-0.068-0.035-0.101-0.051
		c-0.568,2.413-1.412,4.833-2.551,7.206c-5.599,11.665-15.113,19.255-25.211,18.428c-2.308-0.189-8.505,5.123-11.746,3.566
		c-3.241-1.554-1.869-9.229-3.468-10.93c-6.926-7.369-6.951-19.484-1.362-31.126c3.822-7.963,10.131-13.696,16.961-16.273
		c-4.617-0.121-9.324-0.191-13.722-0.406v-0.574c4.968-0.244,10.29-0.605,15.498-0.834c5.077-0.202,10.152-0.32,15.287,0.03
		c-2.043-2.084-3.898-4.232-5.354-6.357c-7.541-11.008-11.798-32.187-11.798-32.187s18.209,11.62,25.749,22.629
		c4.817,7.031,8.293,18.212,10.177,25.372l0.002,0.004l0.057,0.108l0.029,0.053c-0.006-0.013,0.035,0.068-0.012-0.022l0.016,0.027
		l0.122,0.216l0.956,1.734c1.263,2.317,2.425,4.689,3.57,6.993c1.152,2.304,2.309,4.498,3.698,6.458
		c1.381,1.967,3.014,3.732,4.838,5.381c0.736,0.664,1.5,1.31,2.279,1.945c2.587-8.643,5.504-15.5,5.504-15.5
		s5.058,11.892,7.761,24.097c3.402,1.982,6.851,4.014,10.195,6.374c2.208,1.561,4.379,3.263,6.393,5.251
		c1.999,1.992,3.852,4.293,5.218,6.988l1.46,2.883l-2.984,1.276c-3.524,1.506-6.922,2.52-10.225,3.673
		c-1.932,0.67-3.831,1.367-5.644,2.138c1.343,4.772,3.073,12.204,2.703,17.778c-0.192,2.896-1.014,6.212-2.033,9.37
		c1.12,0.993,2.266,1.971,3.426,2.938c2.689,2.236,5.461,4.415,8.252,6.604c0.861,0.674,1.722,1.351,2.584,2.03
		c-1.684-4.83-3.784-11.953-3.79-17.465c-0.011-9.203,5.804-22.919,5.804-22.919s5.849,13.703,5.859,22.906
		c0.008,6.596-2.978,15.511-4.669,20.032c0.862,0.698,1.723,1.4,2.579,2.116c1.046,0.875,2.085,1.766,3.112,2.686
		c-0.12-2.095-0.108-4.134,0.104-5.978c0.603-5.233,3.135-11.629,5.363-16.454c-3.806-1.703-6.296-2.998-6.296-2.998
		s3.753-1.264,9.083-2.627c0.535-1.007,0.869-1.595,0.869-1.595s0.138,0.466,0.359,1.286c6.974-1.721,16.177-3.459,23.311-2.907
		c2.892,0.224,6.062,0.872,9.251,1.748c0.836-4.423,4.565-22.591,11.124-32.77c1.844-2.863,4.356-5.782,7.096-8.557
		c-2.267-4.408-4.396-8.886-6.282-13.484c-0.248-0.602-0.483-1.209-0.713-1.818c-0.025,0.254-0.047,0.509-0.077,0.764
		c-1.71,14.428-10.161,25.801-21.189,28.592c-2.52,0.637-5.146,6.791-9.154,6.315c-4.008-0.475-5.167-7.085-7.483-8.313
		c-5.403-2.859-9.497-7.953-11.862-14.291c-2.885,9.317-5.934,16.488-5.934,16.488s-10.977-25.806-10.977-43.127
		c0-6.161,1.39-13.396,3.179-20.161c-2.449-0.153-4.807-0.434-6.966-0.883c-14.764-3.073-34.812-17.008-34.812-17.008
		s5.162-1.03,12.169-1.827c0.26-4.558,1.087-13.591,3.661-19.393c3.217-7.253,12.015-15.872,13.672-17.458
		c-0.545-1.979-0.998-3.956-1.501-5.915c-0.654-2.564-1.357-5.109-2.326-7.551c-0.972-2.427-2.208-4.798-4.072-6.644
		c-0.928-0.916-2.019-1.679-3.233-2.185c-1.211-0.512-2.533-0.765-3.86-0.8c1.327-0.036,2.673,0.144,3.938,0.6
		c1.267,0.45,2.438,1.175,3.449,2.071c2.032,1.807,3.44,4.189,4.569,6.619c1.125,2.446,1.979,4.994,2.777,7.539
		c0.801,2.542,1.516,5.109,2.422,7.547c0.892,2.426,2.153,4.68,3.623,6.818c1.47,2.134,3.136,4.143,4.906,6.06
		c3.549,3.832,7.504,7.303,11.608,10.583c5.916,4.703,12.15,9.013,18.528,13.125c-3.076-8.078-9.02-25.324-9.02-37.978
		c0-17.069,10.817-42.501,10.817-42.501s10.818,25.432,10.818,42.501c0,13.722-6.989,32.844-9.731,39.818
		c1.55,0.979,3.105,1.952,4.667,2.914c4.505,2.767,9.06,5.46,13.642,8.133c1.155,0.675,2.312,1.348,3.47,2.021
		c1.548-0.257,3.153-0.497,4.785-0.707c0.019-0.656,0.036-1.313,0.063-1.966c0.286-6.963,0.976-13.939,2.415-20.765
		c0.119-0.563,0.252-1.123,0.382-1.684c-1.896-6.144-3.684-13.532-3.684-19.536c0-4.755,1.122-10.377,2.529-15.562
		c-5.066,0.792-8.415,1.137-8.415,1.137s5.368-6.859,12.873-14.617c0.672-1.741,1.11-2.772,1.11-2.772s0.176,0.413,0.474,1.154
		c2.259-2.279,4.678-4.598,7.181-6.813c-0.041-0.834-0.083-1.67-0.125-2.507c-0.185-3.703-0.362-7.574-0.247-11.427
		c-2.824-3.7-5.27-7.699-7.071-11.99c-2.23-5.285-3.451-10.947-3.794-16.626c0.554,5.664,1.982,11.24,4.375,16.37
		c1.742,3.8,3.99,7.337,6.559,10.623c0.418-7.854,2.229-15.515,7.893-21.371c1.152-1.19,3.053-1.728,4.666-1.783
		c0.767-0.026,2.934,0.354,1.767,1.561c-3.243,3.353-5.267,7.5-6.261,12.045c-1.255,5.743-1.26,11.537-1.013,17.347
		c0.438,0.432,0.884,0.856,1.329,1.283c1.789-1.268,3.577-2.414,5.339-3.387c16.382-9.048,46.522-12.145,46.522-12.145
		s-17.574,22.459-33.583,32.062c0.371,0.359,0.742,0.717,1.109,1.082c4.067,4.048,7.858,8.48,10.858,13.48
		c3.01,4.981,5.174,10.528,6.292,16.258c0.235,1.179,0.435,2.361,0.602,3.548c0.774-0.709,1.661-1.507,2.643-2.37
		c0.338-2.201,0.501-4.427,0.441-6.66c0.113,2.168,0.014,4.34-0.254,6.495c6.181-5.412,15.921-13.173,24.417-16.568
		c13.709-5.477,37.604-4.949,37.604-4.949s-16.953,16.85-30.662,22.327c-9.754,3.898-24.664,4.754-32.455,4.924
		c-0.133,0.521-0.273,1.041-0.423,1.556c-0.011,0.04-0.024,0.078-0.036,0.118c7.202,3.548,12.799,7.134,12.799,7.134
		s-5.94,1.419-13.449,2.401c-0.25,5.578-0.999,11.139-2.366,16.585c-0.52,2.06-1.13,4.104-1.855,6.116
		c5.175,0.843,10.063,3.633,14.033,7.818c0.484-2.382,0.82-3.798,0.82-3.798s14.971,23.306,17.846,40.173
		c1.881,11.042-0.215,26.407-1.888,35.702c2.011-1.874,3.891-3.824,5.453-5.973c0.637-0.882,1.214-1.795,1.71-2.741
		c0.123-0.237,0.243-0.476,0.355-0.716l0.166-0.362l0.08-0.182l0.035-0.081c0.092-0.275,0.182-0.547,0.257-0.793
		c0.08-0.25,0.155-0.519,0.227-0.778c0.578-2.096,0.862-4.233,0.74-6.365c-0.192-4.275-2.19-8.47-3.312-13.118
		c-0.282-1.158-0.512-2.335-0.675-3.525c-0.082-0.595-0.147-1.192-0.195-1.79l-0.065-0.856c-0.024-0.304-0.044-0.611-0.059-0.908
		c-0.118-2.404,0.055-4.806,0.452-7.153c0.799-4.701,2.46-9.174,4.58-13.357c2.129-4.187,4.727-8.101,7.634-11.75
		c2.913-3.646,6.137-7.036,9.656-10.099l0.331-0.286l0.166-0.143c0.001,0,0.016-0.013,0.023-0.02l0.029-0.027l0.079-0.074
		l0.626-0.588l1.241-1.187c0.821-0.796,1.631-1.604,2.425-2.426c1.586-1.643,3.107-3.344,4.512-5.131
		c0.056-0.071,0.108-0.144,0.162-0.215c3.001-7.106,6.093-12.963,7.183-14.975c0.734-3.317,1.064-6.74,1.202-10.161
		c0.091-2.291,0.095-4.588,0.053-6.886c-0.054-2.292-0.12-4.615-0.089-6.923c0.027-2.312,0.125-4.629,0.404-6.935
		c0.283-2.3,0.754-4.604,1.65-6.766c0.884-2.164,2.253-4.125,3.948-5.719c1.69-1.604,3.635-2.891,5.632-4.043
		c2.002-1.151,4.072-2.174,6.153-3.164c2.083-0.988,4.183-1.937,6.283-2.885c-2.083,0.985-4.166,1.971-6.23,2.994
		c-2.063,1.024-4.111,2.082-6.084,3.263c-1.968,1.182-3.873,2.493-5.503,4.096c-1.635,1.594-2.928,3.52-3.752,5.64
		c-0.835,2.117-1.258,4.381-1.498,6.652c-0.235,2.276-0.292,4.573-0.279,6.869c0.01,2.3,0.115,4.586,0.209,6.898
		c0.082,2.309,0.119,4.623,0.068,6.939c-0.086,3.741-0.406,7.517-1.235,11.205c1.654,5.952,6.594,25.219,5.161,38.349
		c-0.342,3.134-1.115,6.531-2.131,9.961c14.769-9.008,23.387-25.564,37.74-35.213c4.964-3.337,10.025-7.434,13.419-12.535
		c-1.429-3.143-3.839-8.757-5.796-14.86c-3.519,4.717-8.329,10.452-13.037,13.777c-9.003,6.359-26.446,10.126-26.446,10.126
		s9.382-15.18,18.387-21.54c5.305-3.746,13.537-6.592,19.407-8.299c-0.724-2.961-1.241-5.889-1.394-8.566
		c-0.743-13.034,6.412-32.923,6.412-32.923s9.191,18.596,10.084,31.616c0.484-0.158,1.042-0.122,1.299,0.253
		c1.037,1.51,2.436,3.633,1.53,5.537c-0.797,1.672-2.328,2.804-3.056,4.537c-0.153,0.363-0.321,0.721-0.499,1.074
		c-0.197,1.246-0.422,2.491-0.667,3.72c0.279,2.851,0.041,5.753-0.896,8.64c-0.404,1.247-0.903,2.447-1.483,3.604
		c2.057,4.365,4.928,8.278,7.521,12.331c2.588,4.046,4.381,7.943,5.43,12.653c0.902,4.044,1.48,8.248,1.146,12.398
		c-0.305,3.781-1.36,7.19-2.931,10.321c4.239,7.721,7.088,15.577,7.088,15.577s-6.367-2.832-13.109-6.958
		c-2.429,2.718-5.164,5.241-7.969,7.665c0.392,0.114,0.777,0.232,1.153,0.355c3.952,1.295,8.225,3.498,12.305,5.974
		c0.511-1.329,0.849-2.127,0.849-2.127s0.581,1.366,1.367,3.509c5.504,3.523,10.459,7.348,13.521,9.825
		c1.036-2.352,2.029-4.726,2.979-7.12c1.52-3.842,2.945-7.729,4.342-11.635c-2.644-9.234-0.561-18.538,5.166-23.851
		c1.163-1.079,2.761-1.347,4.283-1.908c2.073-5.084,4.341-10.088,6.96-14.911c0.056-0.102,0.183-0.14,0.285-0.084
		c0.099,0.053,0.136,0.173,0.092,0.272c-2.074,4.523-3.896,9.143-5.569,13.817c0.899-0.595,1.741-1.262,2.779-1.412
		c9.18-1.329,19.293,5.032,24.091,15.865c4.531,10.225,3.4,21.073-2.808,27.25c-1.419,1.412-0.743,6.518-3.584,7.775
		c-2.84,1.26-6.201-2.664-8.218-2.566c-8.729,0.422-17.499-6.022-22.02-16.228c-0.016-0.036-0.03-0.073-0.046-0.109
		c-0.951,2.933-1.935,5.859-2.987,8.769c-0.985,2.758-2.035,5.5-3.158,8.217c0.397,0.337,0.61,0.524,0.61,0.524
		s-0.303,0.025-0.857,0.065c-2.441,5.831-5.235,11.535-8.51,17.004l-0.227,0.377l-0.114,0.188l-0.15,0.237l-0.477,0.738
		l-0.961,1.474l-1.937,2.947c-1.296,1.963-2.605,3.923-3.942,5.87c-0.666,0.969-1.339,1.936-2.02,2.897
		c1.741-1.275,3.489-2.416,5.202-3.35c12.839-6.996,36.399-9.282,36.399-9.282s-14.693,18.56-27.532,25.556
		c-10.157,5.535-27.024,8.12-33.626,8.959c-0.764,0.604-1.541,1.196-2.337,1.764c-0.995,0.708-2.017,1.386-3.067,2.025
		c-0.522,0.319-1.056,0.626-1.613,0.938l-0.742,0.402l-0.768,0.433c-3.915,2.184-7.826,4.35-11.72,6.535
		c0.104,0.101,0.205,0.203,0.307,0.304c0.281-0.091,0.561-0.184,0.843-0.272c4.402-1.38,8.917-2.362,13.438-3.067
		c4.524-0.707,9.057-1.167,13.581-1.541c4.525-0.369,9.045-0.649,13.562-0.907l1.694-0.095l1.673-0.118
		c1.14-0.076,2.285-0.138,3.435-0.175c2.299-0.073,4.62-0.048,6.947,0.177c2.27,0.22,4.55,0.638,6.76,1.357
		c3.433-5.974,11.701-19.435,20.124-26.263c11.023-8.937,33.111-15.264,33.111-15.264s-10.76,20.302-21.784,29.239
		c-7.728,6.266-20.894,11.248-28.075,13.667c1.101,0.552,2.16,1.191,3.156,1.92c0.304,0.222,0.601,0.454,0.894,0.691
		c6.105-4.172,10.932-6.901,10.932-6.901s-1.773,6.891-4.858,15.207c0.388,0.822,0.752,1.652,1.101,2.483
		c1.565,3.788,2.83,7.637,4.092,11.466c2.389-2.513,10.97-11.212,18.304-14.562c8.614-3.934,23.94-4.335,23.94-4.335
		s-10.341,11.321-18.955,15.255c-7.388,3.374-19.714,4.148-23.071,4.301c0.081,0.245,0.161,0.49,0.242,0.734
		c1.417,4.285,2.83,8.558,4.586,12.652c0.883,2.042,1.853,4.039,3.004,5.899c1.152,1.852,2.496,3.585,4.146,4.869
		c0.824,0.638,1.725,1.151,2.683,1.485c0.241,0.08,0.482,0.157,0.729,0.214l0.092,0.023c0.004,0.001,0.056,0.014,0.02,0.006
		l0.052,0.01l0.206,0.04c0.107,0.016,0.214,0.035,0.339,0.046c0.479,0.053,0.972,0.039,1.47-0.025
		c1.495-0.207,2.968-0.841,4.37-1.651c-0.926-0.847-1.46-1.362-1.46-1.362s1.38-0.049,3.597-0.037
		c1.545-1.106,3.018-2.348,4.438-3.649c1.646-1.51,3.229-3.102,4.784-4.724c3.112-3.249,6.104-6.631,9.195-9.946
		c1.548-1.656,3.118-3.298,4.782-4.866c0.833-0.784,1.69-1.547,2.598-2.265c0.909-0.716,1.862-1.396,2.941-1.935l0.025-0.012
		l0.021-0.008c2.183-0.87,4.454-1.613,6.854-1.888c1.197-0.131,2.427-0.132,3.64,0.092c1.211,0.218,2.389,0.682,3.423,1.344
		c1.04,0.659,1.935,1.495,2.726,2.389c0.547,0.621,1.047,1.271,1.521,1.934c3.012-0.643,15.677-3.142,23.968-1.67
		c9.463,1.68,22.498,10.182,22.498,10.182s-15.164,3.495-24.628,1.814c-7.632-1.355-17.583-7.146-21.149-9.336
		c1.283,1.914,2.448,3.872,3.703,5.76c1.271,1.923,2.63,3.78,4.153,5.498c0.759,0.865,1.556,1.676,2.401,2.458
		c0.841,0.787,1.705,1.547,2.597,2.274c1.781,1.452,3.671,2.775,5.689,3.864c2.014,1.089,4.162,1.94,6.399,2.405
		c2.233,0.469,4.551,0.531,6.805,0.152c2.257-0.375,4.436-1.177,6.46-2.26c2.028-1.083,3.912-2.436,5.667-3.933
		c1.757-1.498,3.392-3.142,4.938-4.863c3.091-3.45,5.839-7.197,8.453-11.026c2.612-3.833,5.079-7.764,7.573-11.676
		c-2.448,3.941-4.869,7.9-7.438,11.767c-2.573,3.863-5.281,7.649-8.346,11.15c-1.533,1.749-3.159,3.422-4.915,4.955
		c-1.756,1.532-3.647,2.926-5.701,4.053c-2.051,1.128-4.274,1.978-6.595,2.392c-2.319,0.419-4.719,0.382-7.031-0.075
		c-2.315-0.453-4.537-1.305-6.614-2.397c-2.081-1.092-4.024-2.42-5.855-3.877c-0.915-0.729-1.802-1.491-2.665-2.28
		c-0.866-0.783-1.707-1.619-2.489-2.488c-1.577-1.739-2.986-3.62-4.295-5.551c-1.315-1.928-2.525-3.916-3.83-5.805
		c-1.306-1.873-2.738-3.691-4.604-4.849c-0.927-0.577-1.954-0.966-3.028-1.148c-1.074-0.186-2.188-0.175-3.293-0.041
		c-2.207,0.277-4.375,1.002-6.472,1.869c-0.935,0.48-1.823,1.121-2.673,1.809c-0.855,0.695-1.68,1.445-2.484,2.219
		c-1.606,1.55-3.142,3.193-4.661,4.856c-3.034,3.331-5.991,6.753-9.094,10.067c-1.552,1.657-3.137,3.29-4.803,4.855
		c-0.9,0.842-1.823,1.665-2.78,2.456c6.278,0.167,15.837,0.864,22.4,3.384c10.541,4.046,23.679,16.754,23.679,16.754
		s-18.266,0.653-28.807-3.393c-7.532-2.892-16.39-10.205-20.832-14.144c-0.65,0.406-1.322,0.788-2.026,1.124
		c-1.077,0.51-2.232,0.929-3.478,1.109c-0.622,0.088-1.264,0.116-1.909,0.055c-0.157-0.014-0.33-0.038-0.502-0.064l-0.209-0.039
		l-0.136-0.027l-0.114-0.026c-0.304-0.069-0.603-0.159-0.898-0.254c-1.182-0.395-2.275-1.007-3.245-1.741
		c-1.943-1.479-3.421-3.373-4.674-5.332c-1.252-1.969-2.282-4.037-3.217-6.13c-1.857-4.194-3.333-8.499-4.803-12.774
		c-1.47-4.273-2.892-8.552-4.638-12.64c-0.034-0.081-0.073-0.16-0.107-0.241c-2.581,6.509-5.88,13.443-9.698,18.421
		c-3.258,4.249-7.988,8.503-12.795,12.257c1.72-0.565,3.455-1.048,5.205-1.367c6.699-1.217,13.219,0.145,18.986,3.753
		c12.87,8.054,20.768,21.854,32.557,31.204c0.13,0.103,0.264,0.201,0.395,0.302c0.962-9.255,2.841-17.192,2.841-17.192
		s8.933,13.879,12.865,26.353c3.531,1.615,7.124,3.078,10.651,4.49c2.279,0.912,4.571,1.791,6.868,2.652
		c0.052-0.008,0.104-0.014,0.152-0.015c4.691-0.043,9.174-1.064,13.419-2.765c3.271-4.012,11.404-13.443,18.796-17.642
		c9.523-5.412,27.141-7.438,27.141-7.438s-10.758,14.098-20.282,19.509c-9.122,5.184-25.667,7.26-27.046,7.426
		c-2.961,1.01-6.021,1.717-9.17,2.045c7.388,2.722,14.827,5.313,22.163,8.176c2.569,1.001,5.123,2.083,7.69,3.128
		c0.967-0.374,1.922-0.712,2.936-0.628c4.614,0.387,9.058,2.36,12.879,5.528c2.136,0.333,4.311,0.502,6.537,0.444
		c8.022-0.211,15.554-2.919,23.234-4.949c1.806-0.478,2.296,1.344,0.488,1.822c-5.356,1.416-10.639,3.222-16.1,4.216
		c-3.899,0.71-7.792,0.993-11.69,0.771c4.241,4.442,7.433,10.496,8.776,17.494c2.558,13.319-1.745,25.823-10.765,31.426
		c-2.062,1.279-2.659,7.496-6.358,8.203c-3.7,0.713-6.599-4.842-9.006-5.277c-6.135-1.109-11.634-5.032-15.643-10.778
		c-2.962,1.885-6.067,3.57-8.952,4.584c-4.619,1.627-10.754,2.267-16.028,2.489c0.164,0.049,0.329,0.098,0.49,0.15
		c2.866,0.924,5.602,2.162,8.33,3.375c2.728,1.219,5.466,2.416,8.32,3.291c2.847,0.881,5.814,1.412,8.806,1.438
		c-2.992,0.037-5.98-0.438-8.857-1.266c-2.882-0.822-5.658-1.971-8.411-3.133s-5.5-2.338-8.346-3.193
		c-0.747-0.227-1.5-0.428-2.259-0.6c-5.246,0.129-9.227-0.123-9.227-0.123s0.166-0.152,0.459-0.415
		c-2.166,0.241-4.305,0.749-6.39,1.417c-2.824,0.898-5.575,2.049-8.372,3.129c-1.398,0.539-2.807,1.064-4.236,1.541
		c-0.715,0.242-1.432,0.467-2.159,0.684c-0.358,0.107-0.741,0.209-1.064,0.311l-1.078,0.33c-2.875,0.875-5.779,1.639-8.701,2.328
		c-3.104,0.732-6.229,1.373-9.366,1.939c5.074,2.588,10.495,5.824,14.241,9.33c9.068,8.486,17.199,26.88,17.199,26.88
		s-18.888-6.898-27.957-15.386c-5.27-4.932-10.224-13.211-13.448-19.279c-5.412,0.701-10.853,1.199-16.313,1.449
		c-3.271,0.148-6.544,0.209-9.823,0.158c-3.239,3.387-6.932,6.762-10.483,8.904c-9.54,5.756-27.4,8.285-27.4,8.285
		s9.531-13.186,18.662-19.443c-2.279-0.494-4.537-1.01-6.791-1.465c-5.787-1.184-11.637-2.014-17.3-1.328
		c-2.797,0.352-5.469,1.166-7.711,2.639c-2.256,1.457-4.054,3.568-5.622,5.963c-0.925,1.406-1.789,2.896-2.659,4.42
		c0.369,0.078,0.741,0.146,1.119,0.193c1.582,0.188,3.211-0.359,4.645,0.232c8.978,3.707,14.691,14.836,13.23,27.153
		c-1.378,11.631-8.189,20.799-17.079,23.047c-2.031,0.514-4.148,5.476-7.378,5.091c-3.231-0.383-4.165-5.71-6.032-6.698
		c-8.09-4.281-12.546-14.77-11.17-26.375c0.06-0.506,0.135-1.006,0.217-1.502c-0.104,0.035-0.208,0.072-0.312,0.105
		c-2.931,0.963-5.838,1.715-8.625,2.582c-2.786,0.861-5.457,1.85-7.879,3.18c-2.424,1.322-4.583,2.996-6.402,5.016
		c-0.455,0.508-0.891,1.029-1.305,1.572c-0.21,0.273-0.407,0.547-0.598,0.814l-0.16,0.229l-0.04,0.061
		c-0.051,0.066,0.057-0.072-0.124,0.166l-0.078,0.102l-0.311,0.408c-0.817,1.102-1.551,2.262-2.197,3.473
		c-1.295,2.424-2.236,5.055-2.936,7.803c-0.334,1.309-0.615,2.643-0.864,3.996c-0.091,5.632-0.471,11.255-1.326,16.853
		c-0.271,1.768-0.574,3.527-0.897,5.283c0.133,0.291,0.258,0.586,0.393,0.875l-0.607,0.27c-2.501,13.145-6.256,26.03-8.564,39.22
		c-0.031,0.172-0.115,0.342-0.237,0.502c0.391,2.172,0.748,4.346,1.073,6.52c0.042,0.283-0.462,0.559-1.065,0.742
		c0.126,0.326,0.248,0.654,0.38,0.98L326.474,578z M526.791,461.28c-8.145-13.032-12.019-37.61-12.019-37.61
		s20.392,14.256,28.537,27.289c8.144,13.03,12.02,37.608,12.02,37.608S534.936,474.315,526.791,461.28z M108.306,332.704
		c0,0,7.858-21.529,17.529-31.866c9.671-10.336,30.63-19.605,30.63-19.605s-7.858,21.529-17.529,31.865
		C129.265,323.434,108.306,332.704,108.306,332.704z M364.938,111.327c0,0-13.121,14.03-23.972,18.832
		c-10.85,4.801-30.058,5.078-30.058,5.078s13.123-14.03,23.972-18.832C345.731,111.604,364.938,111.327,364.938,111.327z"/>
	<path fill="#FFFFFF" d="M325.068,518.398c-0.238-0.57-0.47-1.135-0.693-1.691c-0.452-1.117-0.888-2.24-1.311-3.367
		c-0.348-0.926-0.681-1.855-1.01-2.785c0.062,0.756,0.115,1.51,0.156,2.268c0.246,4.459,0.06,8.842-0.19,13.252
		c0.739,2.844,1.433,5.699,2.094,8.558c0.299-2.327,0.624-4.653,0.978-6.97c0.404-2.646,0.842-5.285,1.302-7.918l-0.636,0.279
		L325.068,518.398z"/>
	<path fill="#FFFFFF" d="M346.543,439.283c-0.353,0.314-0.693,0.641-1.019,0.979c-1.329,1.369-2.397,2.984-3.3,4.719
		c-1.794,3.48-2.898,7.359-3.716,11.283c-0.797,3.878-1.298,7.837-1.672,11.817c0.058,0.854,0.111,1.709,0.166,2.563
		c0.625,2.303,0.955,3.707,0.955,3.707s-0.267-0.16-0.752-0.457c0.079,1.316,0.156,2.635,0.222,3.951
		c0.718-1.23,1.513-2.422,2.388-3.549l0.377-0.477l0.074-0.092l0.021-0.029l0.136-0.186c0.472-2.164,0.94-4.33,1.397-6.494
		c1.938-9.168,3.688-18.372,4.715-27.657C346.538,439.334,346.54,439.309,346.543,439.283z"/>
	<path fill="#FFFFFF" d="M329.745,469.013c-2.526-1.744-5.414-3.83-8.332-6.135c0.026,0.178,0.05,0.355,0.077,0.531
		c1.897,12.754,4.542,25.334,8.566,37.343c0.218-1.059,0.434-2.119,0.653-3.176c0.123-2.646,0.148-5.306,0.051-7.976
		C330.513,482.735,330.175,475.872,329.745,469.013z"/>
	<path fill="#FFFFFF" d="M343.765,438.537c0.963-0.967,2.014-1.824,3.115-2.594c0.318-3.508,0.526-7.021,0.595-10.537
		c0.028-1.207,0.073-2.332,0.069-3.498c0.001-1.16-0.021-2.318-0.063-3.479c-0.086-2.318-0.253-4.641-0.478-6.957
		c-0.251-2.586-0.573-5.168-0.938-7.746c-0.58,0.328-1.714,0.59-1.882,0.201c-2.267-5.191-4.746-10.312-7.467-15.297
		c-2.655,8.633-5.498,15.316-5.498,15.316s-1.55-3.644-3.429-9.025c3.981,19.884,6.511,40.071,8.122,60.276
		c0.908-3.898,2.102-7.789,4.045-11.418C340.971,441.902,342.212,440.086,343.765,438.537z"/>
	<path fill="#FFFFFF" d="M258.226,225.495c-1.418-2.076-2.75-4.209-3.959-6.266c-6.343,6.055-13.307,11.144-15.915,12.988
		c7.625,2.191,15.218,5.581,19.243,7.498C257.678,234.97,257.888,230.228,258.226,225.495z"/>
	<path fill="#FFFFFF" d="M217.928,393.85c-10.462-6.67-21.31-12.677-32.418-18.174c2.197,3.278,4.177,7.213,5.922,11.329
		c9.704,6.595,19.203,13.464,28.406,20.75c5.341-1.145,10.712-1.848,14.845-2.27C229.255,401.376,223.65,397.499,217.928,393.85z"/>
	<path fill="#FFFFFF" d="M234.856,293.074c2.084,4.885,2.887,10.201,3.652,15.468c0.362,0.352,0.719,0.708,1.083,1.059
		c1.279,1.222,2.574,2.428,3.875,3.627c2.607,2.391,5.235,4.761,7.936,7.047l0.033,0.028l0.024,0.024
		c1.317,1.336,2.678,2.636,4.052,3.927c-1.453-6.669-2.713-14.79-2.14-21.212c0.189-2.122,0.61-4.389,1.18-6.704
		c-1.706,0.545-3.458,0.862-5.23,0.917c-2.208,0.07-5.507,4.698-8.747,3.573c-3.239-1.125-2.996-6.82-4.695-8.26
		c-7.36-6.236-9.579-18.038-5.54-29.675c0.083-0.239,0.172-0.473,0.26-0.708c-1.876-1.354-2.979-2.211-2.979-2.211
		s1.559-0.226,4.12-0.5c3.168-6.698,8.254-11.746,13.949-14.333c-6.126,1.297-13.102,2.304-18.771,1.866
		c-6.269-0.485-13.845-2.963-20.087-5.438c0.917,4.892,1.646,10.75,1.113,15.377c-0.49,4.256-2.258,9.284-4.099,13.608
		c1.119,1.318,2.232,2.642,3.357,3.954c0.735,0.866,1.475,1.727,2.213,2.59C219.717,279.41,230.419,282.674,234.856,293.074z"/>
	<path fill="#FFFFFF" d="M249.804,409.821c4.166,3.479,8.182,7.119,12.026,10.913c0.008-0.004,0.016-0.008,0.024-0.012
		c-3.088-2.876-5.924-5.892-8.083-8.89c-9.458-13.124-15.232-38.672-15.232-38.672s9.172,5.549,18.256,12.984
		c-5.708-10.88-10.717-22.112-14.821-33.683c-1.733,11.581-9.971,26.806-9.971,26.806s-5.788-18.172-4.685-29.9
		c0.69-7.341,4.504-16.659,7.262-22.603c-1.367-6.191-2.482-12.422-3.48-18.711c-0.097-0.607-0.195-1.22-0.296-1.834
		c0.009,2.051-0.107,4.039-0.404,5.831c-1.619,9.729-10.197,23.199-10.197,23.199s-2.346-9.703-2.528-18.574
		c-3.275,7.678-7.734,16.582-12.813,22.554c-8.44,9.923-25.141,19.458-31.696,22.981c1.561,1.389,3.096,2.824,4.565,4.288
		C203.39,378.001,228.21,391.792,249.804,409.821z"/>
	<path fill="#FFFFFF" d="M225.728,291.103c-0.268-0.383-0.547-0.76-0.845-1.126c-2.784-3.418-6.572-5.679-10.643-7.286
		c0.713,0.817,1.431,1.629,2.147,2.443c3.14,2.032,6.225,4.384,8.968,6.642C225.481,291.545,225.606,291.321,225.728,291.103z"/>
	<path fill="#FFFFFF" d="M257.463,75.244c-0.663,0.146-1.32,0.287-1.969,0.422c0.367,1.265,0.723,2.567,1.054,3.887
		C256.899,78.127,257.208,76.691,257.463,75.244z"/>
	<path fill="#FFFFFF" d="M259.799,136.68c0.786,0.102,1.59,0.237,2.406,0.396c0.984-0.411,1.542-0.631,1.542-0.631
		s-0.128,0.31-0.37,0.875c5.903,1.312,12.378,3.891,17.837,6.402c1.561-1.657,3.321-3.063,5.256-4.156
		c0.491-0.277,1.006-0.462,1.538-0.593c1.358-3.097,2.877-6.111,4.438-9.09c2.161-4.121,4.412-8.182,6.491-12.327
		c0.433-0.864,0.854-1.735,1.27-2.609c-5.577,0.559-11.581,0.75-16.48-0.08c-8.989-1.521-20.357-7.503-26.494-11.036
		c-1.843,8.527-5.076,16.963-6.288,19.976c-0.489,4.194-0.757,8.42-0.817,12.645C253.521,136.263,256.837,136.294,259.799,136.68z"
		/>
	<path fill="#FFFFFF" d="M261.112,185.542c1.299-1.143,2.587-2.23,3.822-3.241c0.059-0.234,0.115-0.47,0.179-0.703
		c0.196-0.725,0.411-1.444,0.651-2.156c0.952-2.85,2.258-5.57,3.807-8.105c1.173-1.921,2.476-3.729,3.852-5.457
		c-0.093-4.191,0.529-8.206,1.75-11.843c-5.975,0.822-12.41,1.264-17.708,0.573c-0.784-0.103-1.587-0.236-2.402-0.395
		c-0.983,1.766-2.03,3.565-3.129,5.353c0.832,4.809,2.007,9.576,3.824,14.084C257.384,177.687,259.185,181.645,261.112,185.542z"/>
	<path fill="#FFFFFF" d="M200.273,415.521c0.053,0.01,0.109,0.021,0.163,0.033c2.081-1.414,4.17-2.662,6.199-3.629
		c2.971-1.414,6.492-2.551,10.142-3.463c-4.039-3.221-8.134-6.369-12.292-9.435c-3.802-2.804-7.651-5.556-11.538-8.263
		C196.997,401.327,199.525,412.128,200.273,415.521z"/>
	<path fill="#FFFFFF" d="M125.314,417.767c0.669,0.988,1.348,1.974,2.045,2.948c3.595-1.952,7.294-3.624,10.318-4.888
		C133.565,416.62,129.473,417.55,125.314,417.767z"/>
	<path fill="#FFFFFF" d="M246.847,434.658c-5.962-5.635-12.055-11.131-18.29-16.462c-1.607,1.378-3.287,2.745-4.997,4.036
		c3.431,1.34,6.799,2.834,10.085,4.508C238.21,429.064,242.587,431.777,246.847,434.658z"/>
	<path fill="#FFFFFF" d="M72.867,329.071c0.243,0.053,0.486,0.102,0.729,0.155c-0.442-0.271-0.882-0.542-1.32-0.82
		c-7.382-4.679-13.783-10.471-22.078-13.579c-4.373-1.639-10.206-3.609-14.958-2.769c-0.102,1.574-0.449,6.104-1.344,11.082
		c0.615,0.108,1.23,0.213,1.847,0.314c7.6-0.646,16.992-0.889,24.121,0.734C63.981,325.125,68.509,326.951,72.867,329.071z"/>
	<path fill="#FFFFFF" d="M132.281,414.001c4.112-0.789,8.182-1.738,12.351-2.197c9.846-1.084,20.146-0.471,30,0.279
		c7.859,0.604,15.79,1.557,23.619,3.041c-6.112-4.105-23.059-16.073-30.965-27.545c-3.631-5.27-6.68-12.359-9.077-19.179
		c-3.929-2.337-7.879-4.631-11.848-6.875c-6.191-3.502-12.475-6.877-18.852-10.07c-0.805-0.29-1.609-0.58-2.414-0.866
		c-1.004-0.359-2.011-0.713-3.019-1.068c4.545,4.245,6.851,11.555,5.457,19.25c-1.621,8.945-7.335,15.726-14.331,17.046
		c-1.599,0.302-3.475,4.045-5.961,3.594c-2.485-0.45-2.955-4.624-4.355-5.479c-6.065-3.703-9.021-12.042-7.403-20.971
		c1.658-9.149,8.027-15.956,15.22-17.055c0.303-0.046,0.601-0.048,0.896-0.023c-10.656-3.713-21.293-7.611-31.252-12.834
		c7.344,4.21,12.895,8.223,12.895,8.223s-22.882,4.125-37.14,1.029c1.553,5.691,2.796,11.877,2.796,17.104
		c0,10.577-5.091,25.088-7.538,31.451c7.311-4.202,15.484-7.344,23.852-7.397c6.295-0.039,12.355,1.643,17.968,4.342
		c-4.52-6.058-10.042-10.836-17.808-10.917c-0.75-0.007-2.867-0.21-1.733-1.438c1.049-1.134,3.173-1.766,4.674-1.75
		c5.489,0.057,10.692,1.532,15.019,5.014c2.806,2.26,5.145,5.006,7.239,7.928c0.329-0.342,0.51-0.525,0.51-0.525
		s0.012,0.454,0.021,1.277c0.668,0.96,1.313,1.935,1.942,2.916c1.414,2.211,2.747,4.474,4.104,6.723
		c5.562,4.594,10.636,9.865,14.765,15.738c0.251,0.357,0.501,0.719,0.75,1.08c0.143,0.049,0.282,0.107,0.426,0.152
		C126.215,414.976,129.168,414.599,132.281,414.001z"/>
	<path fill="#FFFFFF" d="M156.262,362.499c-4.235-1.745-8.49-3.443-12.762-5.091c4.581,2.505,9.115,5.099,13.611,7.756
		C156.815,364.262,156.532,363.373,156.262,362.499z"/>
	<path fill="#FFFFFF" d="M133.67,431.299c-0.725,0.977-1.469,1.928-2.228,2.834c2.11-0.518,4.204,0.393,6.431,0.59
		c0.798,0.072,1.602-0.018,2.392-0.09c-0.559-0.184-1.111-0.383-1.657-0.602C136.81,433.311,135.179,432.379,133.67,431.299z"/>
</g>
</svg>
