<?xml version="1.0" encoding="utf-8"?>
<!-- Generator: Adobe Illustrator 15.0.0, SVG Export Plug-In . SVG Version: 6.00 Build 0)  -->
<!DOCTYPE svg PUBLIC "-//W3C//DTD SVG 1.1//EN" "http://www.w3.org/Graphics/SVG/1.1/DTD/svg11.dtd">
<svg version="1.1" id="Layer_1" xmlns="http://www.w3.org/2000/svg" xmlns:xlink="http://www.w3.org/1999/xlink" x="0px" y="0px"
	 width="16px" height="1055px" viewBox="0 0 16 1055" enable-background="new 0 0 16 1055" xml:space="preserve">
<g>
	<path fill-rule="evenodd" clip-rule="evenodd" fill="#FFFFFF" d="M3.214,1014.791c1.679-7.75-2.143-22.25,1.215-43.25
		s1.679-40.5,0-49.75s-2.518-30.75-0.979-44.25c1.539-13.5-0.56-34-0.56-34s0.84,2.25,0.84-4.5s1.259-24.5,3.777-28.5
		s-3.917-9.75-3.218-19.25c0.699-9.5,1.259-8.25,0.979-20c-0.28-11.75-1.26-23.5-0.28-29s1.119-20.75,0.84-29.25
		c-0.28-8.5-0.56-31.5,0.279-46.5c0.84-15,2.099-34.75,1.679-45.25c-0.419-10.5,0.84-30.75-0.14-41.75s-3.218-25.75-2.798-32
		s-0.42-16.25-1.119-25c-0.7-8.75-3.917-17-2.938-28c0.979-11,0.56-13.5,2.099-22.25s1.679-17.25,3.777-20.75s3.218-7,4.197-12.75
		s0.56-11.75,0.56-19.25s0.699-6,0.699-6s-2.798-9.5-3.077-14.25c-0.28-4.75-1.399-13.5-3.638-18.75s-0.28-14-1.399-20.5
		c-1.119-6.5-4.617-21.5-3.917-37.75c0.699-16.25,1.259-23.75,3.078-28.75c1.818-5,0.279-13.5,0.14-22s-2.658-38.75-1.399-51.5
		s3.218-32.25,3.637-39.75c0.42-7.5-1.539-26.5-1.399-31s2.239-4,1.958-13.75c-0.279-9.75-1.399-25.75-1.399-34.25
		s0.42-22.5-1.259-30c-1.679-7.5-2.518-39.75-1.539-48.25c0.979-8.5,1.399-6.75,1.819-13C3.969,6.467,3.205,0,3.205,0H0v1055h3.223
		C3.212,1054.789,1.541,1022.516,3.214,1014.791z"/>
	<path fill-rule="evenodd" clip-rule="evenodd" fill="#FFFFFF" d="M7.087,102.042c2.798,78,0,65-2.238,110s2.798,72,1.679,80
		s-4.477,7-3.917,19c0.56,12,0.56,37,3.917,46c2.3,6.165,8.274,26.878,9.473,50.565V0H7.204C7.204,0,4.813,38.646,7.087,102.042z"/>
	<path fill-rule="evenodd" clip-rule="evenodd" fill="#FFFFFF" d="M13.803,441.042c-7.275,35-12.312,50-5.597,101
		c6.716,51-0.56,140-1.119,199s5.036,59,4.477,68s-5.036,13-5.036,19s-1.119,68,2.238,85s0.56,57-1.679,67
		C4.856,990.009,7.2,1054.582,7.215,1055H16V423.579C15.685,429.428,14.996,435.302,13.803,441.042z"/>
</g>
</svg>
