<?xml version="1.0" encoding="utf-8"?>
<!-- Generator: Adobe Illustrator 15.0.0, SVG Export Plug-In . SVG Version: 6.00 Build 0)  -->
<!DOCTYPE svg PUBLIC "-//W3C//DTD SVG 1.1//EN" "http://www.w3.org/Graphics/SVG/1.1/DTD/svg11.dtd">
<svg version="1.1" id="Layer_1" xmlns="http://www.w3.org/2000/svg" xmlns:xlink="http://www.w3.org/1999/xlink" x="0px" y="0px"
	 width="632.543px" height="577.855px" viewBox="0 0 632.543 577.855" enable-background="new 0 0 632.543 577.855"
	 xml:space="preserve">
<g>
	<path fill="#FFFFFF" d="M318.53,232.635c-1.404,1.689-2.637,3.481-3.548,5.386c-0.917,1.911-1.492,3.898-1.682,5.998l-1.165-0.128
		c0.035,0.114,0.074,0.228,0.108,0.342c0.381,1.29,0.705,2.592,0.982,3.903c4.85-9.46,11.028-17.8,11.028-17.8
		s3.631,21.432,0.505,34.49c-3.124,13.058-16.069,30.533-16.069,30.533s-0.131-0.77-0.32-2.102
		c-0.706,2.311-1.435,4.605-2.165,6.891l-1.428,4.477c0.998,6.174,2.047,12.34,3.287,18.473c1.638,8.104,3.558,16.171,6.174,24.02
		c1.446,4.338,2.905,8.662,4.278,13.014c0.761,0.766,1.502,1.556,2.234,2.354c0.813-15.686,9.961-37.154,9.961-37.154
		s2.531,5.942,5.049,13.858c-0.094-3.853,0.004-7.72,0.399-11.582c0.482-4.758,1.424-9.511,3.008-14.085
		c0.775-2.284,1.784-4.536,2.892-6.667c1.115-2.142,2.359-4.209,3.703-6.204c0.374-0.553,0.755-1.1,1.143-1.641
		c-1.158-2.76-2.119-5.496-2.751-8.086c-1.815-7.454-1.777-17.221-1.254-25.336c-1.783,2.098-2.945,3.354-2.945,3.354
		s-1.37-23.001,3.421-36.404c0.148-0.417,0.31-0.838,0.478-1.261c-1.681-0.289-2.658-0.484-2.658-0.484s1.529-1.061,4.066-2.67
		c6.086-12.431,18.549-25.925,18.549-25.925s0.425,7.102-0.023,15.711c4.676-2.143,9.507-3.964,13.896-4.871
		c15.469-3.199,40.548,1.825,40.548,1.825s-21.018,14.556-36.487,17.754c-5.876,1.215-13.138,1.243-19.885,0.812
		c-0.411,1.824-0.894,3.568-1.467,5.172c-0.159,0.444-0.329,0.891-0.511,1.341c5.884,1.333,25.384,6.15,36.334,13.692
		c1.329,0.914,2.663,1.961,3.987,3.102c4.296-2.466,8.609-4.884,12.909-7.3l0.767-0.429l0.806-0.436
		c0.468-0.26,0.951-0.537,1.431-0.828c0.956-0.579,1.892-1.196,2.811-1.845c1.837-1.298,3.592-2.734,5.292-4.245
		c3.396-3.033,6.523-6.417,9.474-9.966c2.966-3.542,5.757-7.256,8.463-11.049c0.369-0.521,0.735-1.046,1.104-1.57
		c-1.66-4.461-4.397-12.762-4.397-18.952c0-1.891,0.257-3.979,0.659-6.094c-4.902-0.412-9.822-1.173-13.895-2.506
		c-13.713-4.487-31.292-19.848-31.292-19.848s19.935-1.706,33.774,1.596c2.979-2.551,5.878-5.19,8.484-8.092
		c-3.786-2.412-7.544-5.19-10.231-8.068c-7.86-8.423-14.224-25.945-14.224-25.945s17.057,7.574,24.914,15.997
		c2.105,2.254,4.101,5.159,5.896,8.206c1.307-3.203,2.017-6.633,1.999-10.288c-0.025-4.706-0.952-9.374-2.307-13.868
		c-1.379-4.581-4.468-8.549-7.063-12.507c-1.352-2.063-2.774-4.203-3.965-6.444c-0.046,0.072-0.097,0.143-0.142,0.216
		c-0.655,2.046-1.097,3.275-1.097,3.275s-0.183-0.366-0.495-1.029c-3.153,4.086-7.262,7.508-11.474,10.383
		c-15.287,10.432-24.573,28.14-40.91,37.104c-0.882,2.808-1.909,5.617-2.985,8.303c6.661-3.029,12.205-4.896,12.205-4.896
		s-8.973,18.978-18.668,27.598c-7.629,6.782-21.581,12.379-27.186,14.458c-0.033,0.109-0.068,0.217-0.102,0.324l-0.016,0.052
		c0.004-0.008-0.09,0.247-0.063,0.165l-0.043,0.107l-0.09,0.216l-0.188,0.426c-0.125,0.283-0.262,0.562-0.398,0.838
		c-0.556,1.105-1.199,2.154-1.896,3.153c-1.397,1.996-3.003,3.784-4.67,5.46c-1.436,1.441-2.921,2.801-4.407,4.133
		c-0.358,1.7-0.591,2.681-0.591,2.681s-0.316-0.493-0.864-1.381C324.33,226.69,321.153,229.488,318.53,232.635z"/>
	<path fill="#FFFFFF" d="M341.977,198.93c0.07,0.923,0.072,1.849,0.018,2.769c3.502-6.311,9.169-15.479,15.109-20.761
		c1.636-1.454,3.563-2.854,5.636-4.176c-1.804-8.377-3.563-19.493-2.631-28.02c0.603-5.521,2.543-11.857,4.805-17.754
		c-0.565,0.643-1.135,1.279-1.718,1.902c-0.794,0.85-1.602,1.684-2.422,2.506l-1.236,1.224l-0.626,0.606l-0.078,0.075l-0.105,0.099
		l-0.16,0.142l-0.319,0.284c-3.388,3.049-6.486,6.42-9.271,10.025c-2.773,3.606-5.236,7.457-7.218,11.525
		c-1.977,4.063-3.479,8.363-4.149,12.772c-0.333,2.202-0.452,4.427-0.308,6.626c0.02,0.277,0.041,0.546,0.068,0.816l0.083,0.866
		c0.053,0.549,0.123,1.097,0.207,1.643c0.17,1.091,0.399,2.174,0.683,3.25c0.562,2.155,1.344,4.279,2.081,6.508
		C341.16,194.078,341.805,196.455,341.977,198.93z"/>
	<path fill="#FFFFFF" d="M319.897,364.632c0.312,1.043,0.612,2.088,0.91,3.138c-0.053-0.746-0.088-1.479-0.107-2.199
		C320.435,365.257,320.169,364.943,319.897,364.632z"/>
	<path fill="#FFFFFF" d="M296.44,311.763l0.251-0.867l0.082-0.275l0.067-0.207l0.136-0.418l0.549-1.674l0.445-1.314
		c-1.455-9.1-2.806-18.224-4.502-27.27c-5.726,0.553-14.742,1.141-23.088,0.492c-0.756,1.708-1.621,3.322-2.585,4.82
		c1.292,6.311,2.307,13.617,1.781,19.498c-0.153,1.709-0.456,3.515-0.868,5.361l0.169,0.781l0.468,2.07l0.12,0.521l0.029,0.125
		c0.004,0.018,0.019,0.07,0.021,0.086l0.065,0.252l0.266,1.014c0.729,2.701,1.537,5.381,2.453,8.027
		c3.402,9.916,8.201,19.328,13.659,28.381c-4.466-14.338-3.958-35.66-3.958-35.66s6.014,6.063,12.104,13.933
		c-0.043-1.065-0.06-2.136-0.032-3.203C294.195,321.259,295.118,316.391,296.44,311.763z"/>
	<path fill="#FFFFFF" d="M261.116,245.562c1.036,0.161,2.056,0.304,2.896,0.887c5.097,3.538,8.338,9.607,9.155,16.586
		c6.989,3.082,14.122,7.541,19.179,10.974c-1.368-6.624-2.973-13.194-4.992-19.672c-0.804-2.574-1.696-5.104-2.662-7.597
		c-6.402-2.962-14.224-7.146-19.256-11.794c-1.362-1.259-2.707-2.725-4.011-4.315C261.182,235.604,261.08,240.583,261.116,245.562z"
		/>
	<path fill="#FFFFFF" d="M359.297,241.314c-2.391,5.385-6.166,11.1-9.752,15.928c4.214,6.419,10.041,16.154,13.058,24.979
		c0.918-0.793,1.847-1.573,2.786-2.34c5.283-4.326,10.833-8.281,16.512-12.011C372.103,259.85,362.527,246.147,359.297,241.314z"/>
	<path fill="#FFFFFF" d="M285.929,98.424c4.337,0.733,9.229,2.502,13.819,4.534c0.122-0.119,0.271-0.262,0.448-0.431
		c-0.169-1.83-0.404-3.65-0.722-5.454c-0.957-5.467-2.89-10.729-5.675-15.55c-2.769-4.834-6.358-9.194-10.266-13.258
		c-0.48-0.502-0.966-0.999-1.457-1.493c-5.205,2.812-11.731,5.04-18.229,6.773c-1.25,6.876-3.573,13.439-5.908,20.013
		c-0.026,2.066-0.256,4.286-0.624,6.556C264.3,98.799,276.961,96.91,285.929,98.424z"/>
	<path fill="#FFFFFF" d="M431.432,310.392c-3.021-1.021-5.437-2.999-7.543-5.328c-3.928,2.348-8.686,4.375-13.504,6.078
		c0.403,0.201,0.811,0.396,1.215,0.584c1.835,0.85,4.077,1.932,6.164,1.75c2.465-0.214,3.881-2.924,4.793-4.914
		c0.26-0.568,2.357-0.75,2.19-0.389c-1.67,3.644-4.653,6.5-8.926,6.213c-2.701-0.182-5.182-1.285-7.598-2.504
		c-7.045,2.349-13.974,4.002-18.391,4.951c14.075,1.535,27.884-1.772,41.157-6.289C431.139,310.496,431.286,310.442,431.432,310.392
		z"/>
	<path fill="#FFFFFF" d="M303.115,343.099c0.703,1.354,1.327,2.697,1.848,4.009c0.683,1.714,1.272,3.581,1.783,5.54
		c0.234-0.227,0.937-0.551,1.484-0.629c-0.128-0.378-0.254-0.758-0.382-1.137c-3.221-9.453-5.466-19.123-7.304-28.883
		c-0.143,1.44-0.224,2.881-0.223,4.317c-0.013,4.329,0.716,8.63,1.807,13.009C302.435,340.576,302.77,341.833,303.115,343.099z"/>
	<path fill="#FFFFFF" d="M292.805,130.355c-1.364,2.763-2.685,5.547-3.873,8.375c1.13-0.116,2.307-0.135,3.465-0.35
		c1.077-0.199,2.084-0.682,3.098-1.019c0.937-2.297,1.722-4.671,2.37-7.088c1.333-4.989,2.125-10.143,2.467-15.323
		c-0.433,0.975-0.877,1.944-1.331,2.909C297.015,122.073,294.858,126.196,292.805,130.355z"/>
	<path fill="#FFFFFF" d="M264.439,50.038c-0.028-0.029-0.058-0.057-0.086-0.085c0.002,0.047,0.006,0.096,0.008,0.144
		C264.387,50.076,264.413,50.057,264.439,50.038z"/>
	<path fill="#FFFFFF" d="M291.32,196.583c-1.127,6.838-0.474,13.944,4.156,19.495c0.123,0.146,0.15,0.294,0.113,0.433
		c0.803,1.036,1.611,2.072,2.417,3.113c2.854,3.685,5.699,7.447,8.203,11.509c1.595,2.583,3.041,5.298,4.241,8.136
		c0.333-0.991,0.731-1.954,1.194-2.878c1.12-2.238,2.563-4.248,4.136-6.075c3.078-3.558,6.594-6.488,9.985-9.413
		c-3.461-5.874-9.507-16.848-13.006-27.287c-0.581,0.445-1.182,0.861-1.807,1.243c-2.11,1.289-2.758,7.611-6.536,8.309
		c-3.775,0.7-6.692-4.971-9.144-5.431C293.923,197.483,292.6,197.094,291.32,196.583z"/>
	<path fill="#FFFFFF" d="M302.88,292.731c1.534-4.557,2.966-9.118,4.146-13.715c-0.27-6.093-0.12-12.816,1.156-18.146
		c0.403-1.688,0.972-3.45,1.655-5.237c-0.188-3.475-0.701-6.925-1.598-10.261c-1.155-4.276-3.023-8.374-5.302-12.282
		c-2.28-3.915-4.955-7.65-7.701-11.38c-2.745-3.733-5.569-7.471-8.146-11.428c-1.289-1.978-2.513-4.011-3.624-6.114
		c-0.555-1.052-1.081-2.122-1.573-3.209c-0.246-0.543-0.482-1.091-0.71-1.644l-0.669-1.618c-1.813-4.457-2.793-9.226-3.025-13.981
		c-0.003-0.062-0.003-0.123-0.006-0.185c-1.861-3.434-3.25-7.341-4.033-11.569c-0.025-0.142-0.047-0.284-0.071-0.425
		c-0.392,0.587-0.77,1.181-1.129,1.783c-0.9,1.498-1.694,3.046-2.368,4.639c2.524-1.885,4.183-3.009,4.183-3.009
		s-2.173,12.624-6.478,23.821c6.023,10.599,12.461,20.974,17.886,31.896c1.54,3.101,2.945,6.234,4.241,9.396
		c3.5,6.137,5.76,11.168,5.76,11.168s-0.706-0.253-1.917-0.723c2.511,7.641,4.47,15.461,6.05,23.478
		C300.834,280.211,301.876,286.468,302.88,292.731z"/>
	<path fill="#FFFFFF" d="M263.935,206.72c-0.085,0.153-0.171,0.304-0.258,0.455c-0.292,2.057-0.56,4.117-0.803,6.181
		c2.46,1.273,4.962,2.679,7.309,4.181C268.118,213.924,266.017,210.327,263.935,206.72z"/>
	<path fill="#FFFFFF" d="M386.091,316.305c1.197-1.693,3.377-4.693,6.18-8.222c-1.053,0.146-2.114,0.363-3.194,0.66
		c-4.552,1.243-8.885,3.106-13.229,4.92C379.184,314.826,382.624,315.71,386.091,316.305z"/>
	<path fill="#FFFFFF" d="M280.515,188.18c0.54,2.907,1.383,5.747,2.561,8.447l0.703,1.585c0.227,0.517,0.464,1.029,0.709,1.538
		c0.491,1.019,1.017,2.022,1.572,3.012c0.926,1.654,1.937,3.269,2.999,4.854c-0.766-3.896-0.584-8.018,0.211-11.979
		C285.978,193.926,283.003,191.377,280.515,188.18z"/>
	<path fill="#FFFFFF" d="M381.51,274.431c-1.476,0.845-2.944,1.703-4.411,2.567c3.19-0.506,6.451-0.493,9.737,0.264
		c6.927,1.596,13.504,4.939,20.106,7.511c0.827,0.322,1.613,0.699,2.371,1.116c1.874-1.408,3.859-2.572,5.929-3.562
		c-7.793-2.055-19.889-5.781-28.344-10.907C385.096,272.401,383.298,273.407,381.51,274.431z"/>
	<path fill="#FFFFFF" d="M161.188,230.201c0.03,0.084,0.062,0.173,0.091,0.253l0.113,0.296l0.036,0.093l0.015,0.033
		c0.236,0.504,0.512,1.009,0.815,1.512c0.32-4.619,2.225-10.294,3.984-14.686c-0.45,0.271-0.884,0.553-1.3,0.845
		C163.723,222.935,162.344,227.017,161.188,230.201z"/>
	<path fill="#FFFFFF" d="M135.07,159.371c-3.327-2.34-8.189-5.957-12.738-10.065c-1.198-0.199-2.336-0.378-3.517-0.529
		c-0.671-0.086-1.344-0.165-2.016-0.238c0.266,0.153,0.539,0.301,0.817,0.434c1.59,0.763,3.492,0.776,4.78,1.906
		c3.676,3.226,6.089,7.821,7.069,13.034c1.801,0.527,3.512,1.143,5.019,1.862c1.598,0.763,3.25,1.78,4.882,2.931
		c-0.378-0.784-0.74-1.565-1.093-2.339C137.194,163.993,136.17,161.666,135.07,159.371z"/>
	<path fill="#FFFFFF" d="M192.274,112.409c-4.015-3.576-7.885-7.35-11.351-11.513c-1.728-2.083-3.353-4.266-4.776-6.591
		c-1.421-2.317-2.646-4.809-3.45-7.425c-0.104-0.331-0.203-0.661-0.297-0.991c-0.135,3.487-0.784,14.443-3.75,21.12
		c-2.301,5.178-7.448,11.049-10.81,14.564c7.576-0.716,16.577-1.01,23.539,0.437c2.715,0.564,5.61,1.496,8.525,2.639
		c1.379-3.698,2.362-6.007,2.362-6.007s1.425,3.346,3.25,8.438c10.941,5.146,20.729,11.938,20.729,11.938s-7.264,1.448-16.263,2.237
		c1.023,3.825,1.923,7.809,2.521,11.672c4.167-6.043,9.963-10.262,16.348-11.641c1.746-0.375,3.454,0.142,5.226,0.535
		c-0.86-0.481-1.34-0.763-1.34-0.763s2.46-0.687,6.263-1.536c-3.753-2.477-7.496-4.981-11.206-7.542
		C208.996,125.896,200.331,119.544,192.274,112.409z"/>
	<path fill="#FFFFFF" d="M413.801,286.795c1.829-1.182,3.877-2.287,6.053-3.316c-0.879-0.207-1.918-0.459-3.087-0.757
		c-2.223,1.02-4.347,2.257-6.329,3.833c0.632,0.4,1.234,0.833,1.819,1.288C412.774,287.479,413.289,287.127,413.801,286.795z"/>
	<path fill="#FFFFFF" d="M174.48,207.462l5.062-1.703c0.488-0.164,0.971-0.329,1.452-0.496c-0.668-0.889-1.417-1.746-2.228-2.569
		c-1.657-1.695-3.557-3.255-5.565-4.728c-1.754-1.288-3.6-2.505-5.483-3.707c0.229,1.898,0.36,3.745,0.36,5.491
		c0,3.307-0.468,6.975-1.192,10.678C169.414,209.25,171.968,208.331,174.48,207.462z"/>
	<path fill="#FFFFFF" d="M448.136,211.993l0.992-1.454l0.497-0.726l0.063-0.091c-0.045,0.072,0.021-0.033,0.025-0.041l0.119-0.186
		l0.234-0.37c2.467-3.889,4.701-7.956,6.729-12.125c0.437-0.901,0.859-1.808,1.281-2.718c-2.263,0.101-5.225,0.186-8.529,0.164
		c0.354,1.97,0.581,3.905,0.581,5.669c0,3.685-0.972,8.117-2.108,12.044L448.136,211.993z"/>
	<path fill="#FFFFFF" d="M303.749,104.822c0.007-0.021,0.015-0.041,0.021-0.063c0.152-0.479,0.296-0.964,0.435-1.45
		c-0.365,0.007-0.712,0.013-1.042,0.018c0.04,0.419,0.075,0.839,0.107,1.26C303.43,104.667,303.589,104.744,303.749,104.822z"/>
	<path fill="#FFFFFF" d="M436.847,84.936c-0.006,1.396-0.082,2.846-0.219,4.325c0.109-0.143,0.221-0.289,0.334-0.438
		C437.958,87.5,437.567,86.185,436.847,84.936z"/>
	<path fill="#FFFFFF" d="M192.417,266.018c-1.293-1.131-2.639-2.232-4.008-3.317c-5.503-4.328-11.301-8.459-16.938-12.944
		c-0.668-0.533-1.333-1.07-1.996-1.616c-0.511,1.27-1.007,2.424-1.447,3.41c1.829-0.35,3.712-0.334,3.668-0.02
		c-0.266,1.931-0.306,3.919,0.129,5.831c1.333,5.835,6.073,9.673,11.226,12.221c4.318,2.135,8.918,3.589,13.581,4.78
		c-0.355-1.6-0.72-3.412-1.041-5.321C194.613,268.008,193.53,266.998,192.417,266.018z"/>
	<path fill="#FFFFFF" d="M340.011,372.882c-0.669,4.264-1.739,8.681-2.919,12.801c3.017,5.305,5.757,10.768,8.239,16.337
		c-0.911-6.088-2.063-12.155-3.228-18.228C341.404,380.162,340.696,376.527,340.011,372.882z"/>
	<path fill="#FFFFFF" d="M374.44,315.612c-0.61-0.2-1.213-0.413-1.81-0.635c-0.747,0.224-1.725,0.042-0.989-0.388
		c-2.279-0.898-4.474-1.946-6.622-3.088c-0.563,8.705-1.687,15.504-1.687,15.504s-8.896-11.91-14.824-24.41
		c-1.285,1.869-2.475,3.797-3.538,5.789c-1.078,2.021-2.017,4.05-2.776,6.201c-1.535,4.279-2.486,8.781-3.003,13.347
		c-0.5,4.423-0.604,8.905-0.457,13.39c4.599-2.477,10.066-4.988,14.775-5.951c6.371-1.303,15.137-0.545,21.046,0.252
		c2.829-7.143,7.81-12.752,14.032-15.474c2.146-0.937,4.53-0.353,6.933-0.548c0.714-0.059,1.411-0.234,2.102-0.419
		C389.775,319.253,381.999,318.099,374.44,315.612z"/>
	<path fill="#FFFFFF" d="M368.576,426.751c0.466-0.188,0.927-0.389,1.385-0.592l0.683-0.313l0.704-0.336
		c1.8-0.807,3.477-1.846,4.98-3.105c1.507-1.26,2.829-2.74,3.974-4.359c2.296-3.25,3.883-7.002,5.359-10.795
		c1.479-3.799,2.854-7.691,4.723-11.402c0.934-1.854,1.991-3.655,3.231-5.336c1.014-1.381,2.16-2.672,3.42-3.842
		c-1.827-1.799-3.318-4.244-4.834-4.691c-0.724-0.212-1.43-0.464-2.126-0.749c-0.82,5.909-2.942,18.292-7.139,25.938
		c-5.033,9.174-17.439,19.51-20.133,21.693c0.987-0.336,1.968-0.672,2.941-1.025C366.7,427.492,367.644,427.132,368.576,426.751z"/>
	<path fill="#FFFFFF" d="M407.688,287.206c-0.1-0.051-0.195-0.108-0.296-0.157c-3.438-1.656-7.169-2.814-10.688-4.307
		c-2.981-1.263-5.976-2.576-9.102-3.438c-5.364-1.478-10.47-1.01-15.427,0.617c-0.773,0.463-1.546,0.925-2.316,1.39l-0.072-0.123
		c-0.688,0.526-1.373,1.053-2.051,1.59c-1.35,1.079-2.68,2.182-3.986,3.31c0.004,0.023,0.012,0.047,0.016,0.07
		c1.622,6.651,1.769,15.144,1.406,22.664c0.651,0.366,1.305,0.729,1.966,1.076c2.449,1.287,5.001,2.417,7.622,3.38
		c5.868-2.474,11.94-5.223,18.224-6.083c4.787-5.951,11.193-13.156,17.628-18.128c-0.552-0.425-1.125-0.824-1.72-1.188
		c-0.396,0.358-0.932,0.542-1.461,0.558c-0.222,0.006-0.963-0.138-0.563-0.508C407.136,287.678,407.413,287.444,407.688,287.206z"/>
	<path fill="#FFFFFF" d="M200.924,275.393c0.213,0.049,0.426,0.097,0.641,0.145c-0.157-0.168-0.311-0.338-0.465-0.506
		C201.039,275.154,200.982,275.272,200.924,275.393z"/>
	<path fill="#FFFFFF" d="M348.896,425.457c-0.107,3.105-0.32,6.201-0.62,9.289c0.049-0.029,0.096-0.061,0.146-0.088
		c3.691-2.129,7.644-3.508,11.53-4.832c0.786-0.266,1.572-0.529,2.355-0.795c0.246-2.264,2.243-19.404,7.527-29.031
		c4.159-7.584,13.354-15.959,17.942-19.871c-8.588-4.703-14.637-15.03-15.651-27.424c-0.313-3.801-0.077-7.488,0.622-10.953
		c-4.91,2.756-11.195,5.818-16.513,6.906c-5.047,1.032-11.599,0.771-17.039,0.223c0.198,2.261,0.442,4.52,0.725,6.775
		c0.043,0.333,0.09,0.665,0.133,0.999c0.137,0.897,0.256,1.79,0.355,2.668c1.127,8.021,2.626,16.015,4.075,24.027
		c1.663,9.235,3.325,18.513,4.132,27.933c0.195,2.357,0.332,4.719,0.387,7.088c0.025,1.186,0.031,2.369,0.014,3.555
		C349.003,423.105,348.937,424.32,348.896,425.457z"/>
	<path fill="#FFFFFF" d="M454.001,304.278c7.916,2.237,25.489,7.774,35.646,15.365c8.748,6.539,17.583,18.782,22.663,26.495
		c-0.033-2.469,0.072-5.018,0.264-7.527c-4.663-3.294-8.777-7.369-12.666-11.52c-5.231-5.584-10.146-11.531-15.891-16.609
		c-5.043-4.458-11.121-8.5-18.071-8.751c-4.194-0.151-8.011,1.17-11.915,2.538C454.021,304.272,454.011,304.275,454.001,304.278z"/>
	<path fill="#FFFFFF" d="M429.619,277.708c4.044-0.933,8.238-1.802,11.994-3.625c3.887-1.887,7.011-4.604,9.407-8.199
		c0.34-0.51,2.535-0.807,2.036-0.06c-4.634,6.954-11.946,10.071-19.811,11.984c-4.181,1.017-8.382,1.927-12.375,3.29
		c0.382,0.557,0.71,1.048,0.99,1.467c14.037-6.14,32.022-9.266,32.022-9.266s-14.53,21.477-28.194,30.626
		c2.144,2.43,4.642,4.457,7.804,5.189c0.309,0.071,0.496,0.198,0.603,0.35c1.566-0.551,3.13-1.113,4.69-1.68
		c2.529-8.098,7.504-22.063,13.954-30.463c4.524-5.89,11.884-11.79,18.351-16.355c-0.063-0.048-0.127-0.097-0.191-0.144
		c-1.679-1.194-3.545-2.108-5.517-2.754c-0.763,0.234-1.189,0.356-1.189,0.356s0.117-0.22,0.335-0.619
		c-1.837-0.527-3.75-0.843-5.689-1.008c-2.179-0.185-4.388-0.185-6.607-0.089c-1.107,0.048-2.223,0.122-3.338,0.209l-1.707,0.14
		l-1.69,0.115c-4.509,0.31-9.015,0.641-13.5,1.06c-4.483,0.421-8.949,0.928-13.353,1.669c-4.147,0.696-8.232,1.624-12.213,2.875
		c5.817,6.233,10.943,13.255,13.875,17.499C423.316,279.239,426.446,278.439,429.619,277.708z"/>
	<path fill="#FFFFFF" d="M256.924,244.126c0.001-0.676,0.008-1.352,0.014-2.027c-1.083,0.324-2.422,0.711-3.947,1.123
		c0.234-0.008,0.468-0.016,0.703-0.015C254.843,243.21,255.879,243.637,256.924,244.126z"/>
	<path fill="#FFFFFF" d="M280.152,398.733c-3.603-3.588-7.755-8.243-9.998-12.556c-4.502-8.657-5.716-24.403-5.716-24.403
		s7.694,6.339,13.118,13.284c-0.054-3.371-0.102-6.717-0.297-10.035c-0.127-2.223-0.338-4.43-0.671-6.609
		c-0.336-2.178-0.773-4.345-1.468-6.383c-0.688-2.066-1.613-4.059-2.695-5.972c-1.087-1.91-2.355-3.728-3.723-5.476
		c-2.432-3.074-5.201-5.898-8.076-8.631c-1.416,2.986-2.422,4.863-2.422,4.863s-1.288-3.969-2.628-9.545
		c-2.013-1.848-4.03-3.704-5.993-5.633c-3.801-3.141-7.536-6.362-11.216-9.646c0.079,0.504,0.159,1.008,0.241,1.51
		c1.748,10.457,4.375,20.81,7.639,30.896c6.767,20.907,16.629,40.306,27.953,59.082c5.69,9.435,9.595,19.685,12.722,30.214
		c1.072,1.225,2.124,2.467,3.149,3.73c-1.763-6.201-3.459-12.42-5.089-18.655C283.263,412.117,281.65,405.438,280.152,398.733z"/>
	<path fill="#FFFFFF" d="M310.078,453.093c-1.228-1.33-2.354-2.672-3.336-4.014c-9.156-12.475-14.878-36.855-14.878-36.855
		s7.77,4.609,15.963,10.994c-0.314-4.775-0.629-9.541-0.981-14.293c-0.567-7.68-1.229-15.327-2.127-22.924
		c-0.566-0.869-1.137-1.737-1.711-2.603c-3.138-4.728-6.373-9.403-9.592-14.11c-3.216-4.707-6.398-9.459-9.441-14.32
		c-3.043-4.858-5.939-9.834-8.551-14.975c-2.613-5.139-4.941-10.445-6.872-15.9c-0.748-2.112-1.441-4.244-2.066-6.396
		c-1.587,4.678-3.498,9.156-5.084,12.604c3.059,2.867,6.074,5.82,8.78,9.096c2.929,3.523,5.472,7.473,7.151,11.839
		c0.868,2.202,1.429,4.453,1.892,6.712c0.457,2.264,0.781,4.54,1.049,6.813c0.528,4.545,0.781,9.078,1.132,13.549
		c0.086,1.102,0.179,2.197,0.285,3.29c4.055,8.825,5.17,23.284,5.17,23.284s-0.085-0.07-0.233-0.195l3.357,12.783
		c2.732,10.504,5.545,20.988,8.446,31.449c5.966,9.129,10.925,18.924,14.861,29.105c-0.755-4.432-1.397-8.867-1.948-13.305
		C310.86,460.841,310.448,456.966,310.078,453.093z"/>
	<path fill="#FFFFFF" d="M327.327,445.474c-0.066-0.688-0.131-1.373-0.203-2.057c-0.571-5.516-1.223-11.016-1.96-16.498
		c-1.522-4.797-3.316-9.502-5.374-14.092c-1.604-3.607-3.375-7.134-5.266-10.603c0.214,1.993,0.418,3.989,0.616,5.983
		c0.769,7.771,1.442,15.527,2.16,23.254c1.987,1.98,3.797,4.008,5.28,6.029C324.287,439.816,325.875,442.558,327.327,445.474z"/>
	<path fill="#FFFFFF" d="M322.309,411.735c0.329,0.771,0.646,1.543,0.959,2.32c-3.258-20.177-7.827-40.089-14.221-59.574
		c-0.731-0.538-1.472-1.063-2.232-1.567c1.068,4.168,1.782,8.733,2.26,13.102c1.008,4.751,1.873,9.525,2.627,14.307
		c0.748,4.737,1.386,9.483,1.956,14.227c0.335,0.582,0.675,1.16,1.004,1.744C317.489,401.285,320.076,406.438,322.309,411.735z"/>
	<path fill="#FFFFFF" d="M218.118,425.541c-1.513,0.955-3.022,1.807-4.497,2.508c-6.762,3.215-16.365,4.994-23.89,5.959
		c-0.001,0.008-0.002,0.018-0.003,0.023c2.348,0.115,4.694,0.252,7.03,0.383c11.395,0.631,22.809,1.67,34.02,3.861
		c5.455,1.068,10.88,2.414,16.207,4.074c-4.283-3.086-8.652-6.055-13.111-8.879C228.9,430.318,223.595,427.714,218.118,425.541z"/>
	<path fill="#FFFFFF" d="M238.041,408.597c-2.075,2.141-4.944,4.984-8.216,7.902c10.825,9.205,21.24,18.887,31.271,28.949
		c2.362,1.818,4.693,3.678,6.991,5.574c5.514,2.906,10.78,6.271,15.7,10.148C272.528,440.525,256.433,423.148,238.041,408.597z"/>
	<path fill="#FFFFFF" d="M284.125,464.734c-1.579-1.346-3.197-2.635-4.85-3.869c3.015,2.836,5.958,5.76,8.778,8.797
		c-0.375-0.816-0.761-1.629-1.153-2.439C285.993,466.376,285.074,465.542,284.125,464.734z"/>
	<path fill="#FFFFFF" d="M548.47,355.173c-6.451-2.371-12.825-4.873-19.071-7.678c0.253,0.996,0.466,1.976,0.63,2.928
		c2.314,13.488-2.799,35.052-2.799,35.052s-12.012-18.632-14.325-32.122c-0.078-0.441-0.145-0.893-0.206-1.352
		c-7.854-2.213-25.56-7.769-35.767-15.399c-10.971-8.198-22.074-25.362-25.744-31.321c-0.338,0.121-0.679,0.239-1.018,0.362
		c-7.149,5.054-13.231,8.485-13.231,8.485s0.401-1.558,1.152-4.084c-10.117,3.636-20.425,7.07-31.127,8.48
		c-1.54,0.203-3.079,0.355-4.619,0.465c11.315,2.817,20.437,14.641,21.651,29.471c0.612,7.449-0.696,14.457-3.505,20.176
		c1.473,3.818,3.167,9.02,3.351,13.162c0.335,7.479-3.912,18.836-3.912,18.836s-5.249-10.932-5.583-18.412
		c-0.078-1.736,0.094-3.684,0.398-5.646c-1.747,1.659-3.701,3.034-5.843,4.062c-2.344,1.124-3.697,7.667-7.72,7.993
		c-1.244,0.103-2.337-0.426-3.329-1.223c-2.662,2.543-4.709,5.676-6.305,9.014c-1.755,3.643-3.05,7.511-4.47,11.367
		c-1.425,3.844-2.976,7.737-5.356,11.244c-1.186,1.74-2.584,3.369-4.198,4.768c-1.611,1.4-3.431,2.57-5.354,3.477l-0.681,0.336
		l-0.709,0.34c-0.475,0.223-0.95,0.436-1.432,0.641c-0.958,0.412-1.921,0.797-2.89,1.166c-1.935,0.738-3.877,1.412-5.8,2.102
		c-3.84,1.377-7.648,2.797-11.039,4.83c-0.571,0.346-1.129,0.709-1.67,1.092c-0.067,0.594-0.14,1.186-0.214,1.777
		c-1.174,9.355-3.069,18.578-5.145,27.734c-0.308,1.355-0.62,2.711-0.934,4.066c0.214-0.24,0.425-0.479,0.644-0.713
		c2.232-2.383,4.912-4.363,7.772-5.842c2.86-1.494,5.858-2.514,8.799-3.361c2.944-0.85,5.848-1.537,8.619-2.391
		c0.967-0.295,1.917-0.615,2.847-0.967c2.928-8.688,9.368-15.07,16.804-16.674c0.164-0.035,0.324-0.057,0.487-0.074
		c1.161-1.932,2.321-3.914,3.657-5.865c0.887-1.279,1.856-2.547,2.979-3.719c1.117-1.168,2.393-2.234,3.793-3.107
		c1.401-0.875,2.921-1.547,4.471-2.023c1.549-0.48,3.132-0.775,4.704-0.945c1.569-0.17,3.147-0.215,4.68-0.182
		c1.566,0.033,3.097,0.145,4.628,0.318c3.056,0.346,6.051,0.93,8.997,1.592c3.231,0.721,6.418,1.545,9.595,2.252
		c9.842-4.998,25.491-7.211,25.491-7.211s-3.132,4.324-7.523,9.193c1.068,0.021,2.137,0.033,3.204,0.033
		c4.555-4.705,10.725-8.297,13.627-14.324c1.509-3.127,2.107-6.6,1.273-9.979c-3.838-1.771-7.512-3.787-10.455-6.006
		c-11.448-8.621-23.031-28.71-23.031-28.71s20.478,5.091,32.31,13.038c0.599-1.188,1.264-2.346,1.954-3.473
		c-6.252-2.586-12.894-5.872-17.647-9.623c-11.864-9.366-23.594-30.827-23.594-30.827s23.619,6.446,35.483,15.812
		c4.362,3.444,8.707,8.525,12.457,13.574c1.526-3.135,2.591-6.441,2.64-10.064c0.018-1.18,4.076-1.742,4.068-1.088
		c-0.072,5.184-2.108,9.695-4.651,13.992c5.363,7.614,9.078,14.412,9.078,14.412s-6.795-1.855-14.928-5.021
		c-0.792,1.407-1.516,2.864-2.087,4.358c11.078,9.025,21.925,27.842,21.925,27.842s-9.354-2.328-19.07-6.289
		c0.043,2.867-0.734,5.777-2.193,8.232c-3.419,5.764-9.222,9.309-13.723,14.104c0.336-0.006,0.673-0.01,1.012-0.02
		c5.174-0.135,10.35-0.49,15.507-1.037c-1.786-3.467-2.851-5.869-2.851-5.869s5.066,1.852,11.213,4.807
		c3.885-0.574,7.753-1.262,11.591-2.084c2.914-0.627,5.812-1.324,8.678-2.133l1.073-0.309c0.394-0.113,0.736-0.191,1.094-0.295
		c0.712-0.193,1.427-0.402,2.135-0.625c1.416-0.441,2.82-0.932,4.224-1.441c2.807-1.018,5.601-2.121,8.499-2.979
		c2.467-0.733,5.025-1.255,7.614-1.39c3.577-3.086,13.312-11.068,21.34-13.887c2.539-0.894,5.54-1.49,8.604-1.883
		c-0.442-1.425-0.815-2.895-1.107-4.41c-2.619-13.619,2.586-26.514,12.017-31.912c1.431-0.818,3.075-0.849,4.746-0.994
		c-1.627-0.676-3.259-1.352-4.902-1.991C563.027,360.38,555.726,357.837,548.47,355.173z M449.376,408.776
		c0,0-12.13,9.649-21.363,12.206c-9.231,2.557-24.609,0.521-24.609,0.521s12.133-9.649,21.366-12.207
		C434,406.74,449.376,408.776,449.376,408.776z M525.845,408.949c-11.776,7.377-34.005,10.91-34.005,10.91
		s12.865-18.439,24.645-25.816c11.775-7.375,34.004-10.912,34.004-10.912S537.624,401.572,525.845,408.949z"/>
	<path fill="#FFFFFF" d="M146.335,414.634c-1.208,0.025-2.409,0.123-3.605,0.258c-1.41,2.814-4.563,8.818-8.471,14.443
		c1.4,1.133,2.912,2.127,4.571,2.932c8.472,4.102,18.898,2.98,27.975,2.273c4.136-0.322,8.287-0.729,12.439-0.777
		c2.555-2.752,8.918-9.373,16.035-14.951C179.243,415.406,162.675,414.285,146.335,414.634z"/>
	<path fill="#FFFFFF" d="M325.958,578H633V0H-1v578h307.508l0.671-9.152c-4.056-9.988-1.702-21.957-1.186-32.707
		c0.15-3.125,0.385-6.223,0.537-9.322c-0.118-0.057-0.185-0.125-0.186-0.217c-0.027-3.371-0.446-6.732-1.247-10.014
		c-1.813-7.426-5.031-14.328-8.113-21.279c-0.046-0.059-0.083-0.125-0.101-0.197c-0.006-0.023-0.012-0.047-0.02-0.07
		c-1.121-2.533-2.219-5.078-3.225-7.654c-2.984-4.52-6.408-8.768-9.961-12.758c-8.574-9.629-18.277-18.24-28.466-26.129
		c-1.075-0.832-2.157-1.656-3.245-2.473c-7.218-2.754-14.7-4.855-22.271-6.365c-11.494-2.297-23.173-3.455-34.872-4.086
		c-1.748-0.094-3.501-0.197-5.258-0.295c-0.616,4.596-2.277,14.635-5.644,20.801c-4.474,8.195-16.341,17.576-16.341,17.576
		s1.462-15.043,5.936-23.236c3.113-5.705,9.808-11.982,13.59-15.271c-2.212-0.111-4.426-0.195-6.635-0.225
		c-1.527,0.107-2.421,0.145-2.421,0.145s0.049-0.053,0.135-0.15c-0.129,0.002-0.261,0-0.39,0.002
		c-4.488,0.057-8.962,0.512-13.436,0.844c-6.307,0.471-13.199,1.086-19.665,0.096c9.217,4.824,15.119,16.641,13.945,29.846
		c-1.195,13.457-8.75,24.264-18.942,27.162c-2.329,0.662-4.605,6.453-8.351,6.121c-3.744-0.332-5.005-6.445-7.195-7.521
		c-9.492-4.664-14.998-16.605-13.803-30.039c0.543-6.119,2.532-11.676,5.493-16.188c-7.716,3.984-15.387,6.602-15.387,6.602
		s7.968-17.016,16.615-24.764c1.965-1.76,4.404-3.434,7-4.969c-1.05-1.431-2.06-2.891-3.056-4.348
		c-7.574-0.57-12.948-5.77-17.194-11.771c-1.291-1.822-2.558-3.891-3.85-6.062c-0.517,10.769-2,25.593-6.114,36.007
		c-7.186,18.186-29.432,40.729-29.432,40.729s-0.837-31.641,6.348-49.824c4.963-12.557,17.108-27.194,24.148-35.051
		c-6.805-4.256-14.497-7.373-22.556-7.168c-8.075,0.205-15.788,3.633-22.653,8c-0.371,0.926-0.592,1.444-0.592,1.444
		s-0.126-0.297-0.347-0.839c-1.824,1.195-3.586,2.451-5.274,3.723c-8.12,6.117-15.422,13.195-23.007,19.941
		c-0.5,0.445-1.336,0.633-1.982,0.693c-0.241,0.022-1.188,0.006-0.687-0.439c8.549-7.604,16.744-15.707,26.184-22.236
		c1.394-0.963,2.833-1.908,4.313-2.813c-2.177-5.5-8.034-21.354-8.034-32.688c0-6.428,1.883-14.308,3.912-20.932
		c-4.757-2.148-9.439-4.771-13.312-7.118c-0.401,1.187-0.847,2.313-1.344,3.337C25.513,343,14.243,352.82,14.243,352.82
		s0.601-12.266,3.714-20.744c-2.628,0.883-5.222,1.859-7.767,2.938c-1.145,0.484-2.387-0.729-0.987-1.32
		c3.118-1.32,6.303-2.5,9.538-3.54c0.084-0.188,0.17-0.372,0.258-0.554c0.685-1.41,1.58-2.863,2.59-4.305
		c-0.136-0.096-0.208-0.148-0.208-0.148s0.125-0.021,0.355-0.063c0.552-0.778,1.138-1.553,1.742-2.313
		c-3.262-0.778-6.489-1.72-9.661-2.89c-0.453-0.166,0.851-0.742,0.903-0.76c0.552-0.191,1.315-0.424,1.894-0.211
		c2.631,0.969,5.304,1.775,8.005,2.465c3.441-4.102,7.184-7.637,8.824-9.135c-1.493,0.381-2.857,1.068-4.006,2.176
		c-1.145,1.104-3.174,1.562-4.7,1.683c-0.65,0.051-2.822-0.058-1.666-1.173c4.875-4.704,12.49-6.286,19.076-5.785
		c4.982,0.379,9.874,1.669,14.5,3.574c-8.177-10.6-14.497-23.084-14.497-23.084s24.408,7.496,36.465,17.647
		c9.38,7.899,18.434,23.427,21.992,29.931c3.43,1.367,6.895,2.65,10.37,3.906c3.535,1.277,7.074,2.541,10.612,3.803
		c4.246-3.857,11.209-9.64,17.298-12.174c4.002-1.666,9.27-2.611,14.039-3.148c-1.757-7.999-3.622-19.225-2.661-27.709
		c1.672-14.735,13.515-35.631,13.515-35.631s6.862,23.012,5.192,37.747c-0.903,7.955-4.769,17.703-8.137,24.992
		c2.633-0.113,4.341-0.101,4.341-0.101s-3.266,3.337-7.754,7.071c-1.186,2.293-1.966,3.67-1.966,3.67s-0.182-0.613-0.479-1.697
		c-3.487,2.719-7.421,5.38-11.045,6.889c-3.95,1.643-9.131,2.586-13.849,3.125c7.939,2.848,15.86,5.738,23.715,8.821
		c-1.708-6.175-2.606-10.571-2.606-10.571s9.859,6.244,19.46,14.483c2.438-7.06,9.172-25.035,17.611-34.944
		c8.175-9.597,24.091-18.832,31.069-22.615c0.371-0.992,0.773-1.98,1.193-2.955c-6.201-0.633-13.244-1.809-18.524-3.992
		c-11.902-4.922-26.51-19.789-26.51-19.789s8.584-0.082,17.88,1.16c-1.696-0.4-3.387-0.822-5.066-1.295
		c-4.077-1.146-8.655-2.677-12.701-4.862c-0.597,0.167-1.264,0.161-1.287-0.135c-0.019-0.221-0.047-0.434-0.083-0.644
		c-3.132-1.874-5.845-4.188-7.605-7.083c-1.04-0.36-2.088-0.656-3.084-0.915c-5.891-1.53-12.138-2.17-17.783-4.542
		c-2.334-0.98-4.75-2.276-6.291-4.351c-1.077-1.45-2.001-3.063-2.836-4.721c-0.224,6.108-1.043,16.971-3.997,24.143
		c-4.3,10.445-17.337,23.287-17.337,23.287s-0.225-18.284,4.076-28.73c3.403-8.265,12.269-18.023,15.826-21.741
		c-0.208-0.467-0.412-0.934-0.613-1.395c-3.3-7.607-6.192-16.72-3.782-24.987c0.185-0.633,2.378-0.949,2.202-0.344
		c-2.468,8.464,0.7,18.039,4.249,25.744c1.35,2.93,2.762,6.574,5.105,8.875c1.921,1.887,4.384,3.063,6.913,3.919
		c5.353,1.81,10.996,2.481,16.428,3.986c-1.05-2.402-1.478-5.163-1.039-8.346c0.058-0.417,0.404-0.768,0.914-1.058
		c-0.714-2.339-1.733-5.988-2.468-9.875c-1.288-1.273-2.54-2.611-3.718-4.07c-1.204-1.5-2.342-3.121-3.262-4.998l-0.042-0.088
		l-0.021-0.044c-0.037-0.083,0.052,0.125-0.087-0.198l-0.064-0.154l-0.13-0.322c-0.098-0.251-0.191-0.497-0.274-0.731
		c-0.169-0.479-0.326-0.966-0.466-1.465c-0.277-0.999-0.486-2.042-0.591-3.126c-0.066-0.643-0.082-1.305-0.056-1.973
		c-2.507-7.609-5.197-17.622-5.197-25.559c0-4.915,1.031-10.625,2.412-16.066l-0.042-0.033l-0.385-0.313l-0.78-0.646
		c-0.523-0.441-1.043-0.889-1.556-1.349c-5.333-0.534-13.977-1.775-19.678-4.498c-0.033-0.016-0.067-0.035-0.101-0.051
		c-0.569,2.413-1.415,4.833-2.555,7.206c-5.609,11.665-15.137,19.255-25.252,18.428c-2.311-0.189-8.518,5.123-11.764,3.566
		c-3.246-1.554-1.872-9.229-3.474-10.93c-6.937-7.369-6.961-19.484-1.364-31.126c3.828-7.963,10.147-13.696,16.988-16.273
		c-4.625-0.121-9.339-0.191-13.744-0.406v-0.574c4.977-0.244,10.306-0.605,15.522-0.834c5.085-0.202,10.168-0.32,15.311,0.03
		c-2.046-2.084-3.903-4.232-5.362-6.357c-7.553-11.008-11.816-32.187-11.816-32.187s18.238,11.62,25.79,22.629
		c4.824,7.031,8.306,18.212,10.193,25.372l0.002,0.004l0.057,0.108l0.029,0.053c-0.006-0.013,0.035,0.068-0.012-0.022l0.016,0.027
		l0.123,0.216l0.958,1.734c1.265,2.317,2.429,4.689,3.576,6.993c1.153,2.304,2.313,4.498,3.703,6.458
		c1.384,1.967,3.02,3.731,4.846,5.381c0.737,0.664,1.502,1.31,2.283,1.945c2.591-8.643,5.513-15.5,5.513-15.5
		s5.067,11.892,7.774,24.097c3.407,1.982,6.861,4.014,10.21,6.374c2.211,1.561,4.386,3.263,6.404,5.251
		c2.002,1.992,3.857,4.293,5.226,6.988l1.462,2.883l-2.989,1.276c-3.529,1.506-6.933,2.52-10.241,3.673
		c-1.935,0.67-3.837,1.367-5.653,2.138c1.346,4.772,3.078,12.204,2.707,17.778c-0.191,2.896-1.015,6.212-2.035,9.37
		c1.121,0.993,2.269,1.971,3.431,2.938c2.692,2.236,5.469,4.415,8.265,6.604c0.862,0.674,1.725,1.351,2.588,2.03
		c-1.688-4.83-3.79-11.953-3.796-17.465c-0.011-9.203,5.813-22.919,5.813-22.919s5.859,13.703,5.869,22.906
		c0.008,6.596-2.983,15.511-4.676,20.032c0.863,0.698,1.726,1.4,2.583,2.116c1.048,0.875,2.088,1.766,3.117,2.687
		c-0.121-2.095-0.108-4.134,0.104-5.979c0.604-5.233,3.14-11.629,5.372-16.454c-3.813-1.703-6.307-2.998-6.307-2.998
		s3.759-1.264,9.097-2.627c0.536-1.007,0.871-1.595,0.871-1.595s0.139,0.466,0.36,1.286c6.985-1.721,16.202-3.459,23.348-2.907
		c2.897,0.224,6.072,0.872,9.265,1.748c0.837-4.423,4.573-22.591,11.142-32.77c1.848-2.863,4.363-5.782,7.108-8.557
		c-2.271-4.408-4.403-8.886-6.292-13.484c-0.249-0.602-0.484-1.209-0.714-1.818c-0.025,0.254-0.047,0.509-0.078,0.764
		c-1.712,14.428-10.177,25.801-21.223,28.592c-2.523,0.637-5.154,6.791-9.168,6.315c-4.015-0.475-5.175-7.085-7.495-8.313
		c-5.412-2.859-9.512-7.953-11.881-14.291c-2.889,9.317-5.943,16.488-5.943,16.488s-10.994-25.806-10.994-43.127
		c0-6.161,1.392-13.396,3.184-20.161c-2.453-0.153-4.815-0.434-6.977-0.883c-14.788-3.073-34.868-17.008-34.868-17.008
		s5.17-1.03,12.188-1.827c0.26-4.558,1.088-13.591,3.667-19.393c3.222-7.253,12.033-15.872,13.693-17.458
		c-0.546-1.979-1-3.956-1.503-5.915c-0.655-2.564-1.358-5.109-2.33-7.551c-0.973-2.427-2.211-4.798-4.078-6.644
		c-0.93-0.916-2.022-1.679-3.238-2.185c-1.213-0.512-2.537-0.765-3.867-0.8c1.33-0.036,2.678,0.144,3.945,0.6
		c1.269,0.45,2.441,1.175,3.455,2.071c2.035,1.807,3.445,4.189,4.576,6.619c1.127,2.446,1.982,4.994,2.782,7.539
		c0.802,2.542,1.518,5.109,2.426,7.547c0.893,2.426,2.157,4.68,3.628,6.818c1.472,2.134,3.141,4.143,4.914,6.06
		c3.555,3.832,7.516,7.303,11.626,10.583c5.925,4.703,12.169,9.013,18.558,13.125c-3.081-8.078-9.034-25.324-9.034-37.978
		c0-17.069,10.833-42.501,10.833-42.501s10.835,25.432,10.835,42.501c0,13.722-7,32.844-9.747,39.818
		c1.552,0.979,3.11,1.952,4.674,2.914c4.512,2.767,9.075,5.46,13.664,8.133c1.156,0.675,2.315,1.348,3.475,2.021
		c1.55-0.257,3.159-0.497,4.793-0.707c0.019-0.656,0.036-1.313,0.063-1.966c0.287-6.963,0.978-13.939,2.419-20.765
		c0.119-0.563,0.252-1.123,0.382-1.684c-1.898-6.144-3.689-13.532-3.689-19.536c0-4.755,1.124-10.377,2.533-15.562
		c-5.074,0.792-8.428,1.137-8.428,1.137s5.377-6.859,12.894-14.617c0.673-1.741,1.111-2.772,1.111-2.772s0.177,0.413,0.476,1.154
		c2.262-2.279,4.685-4.598,7.192-6.813c-0.041-0.834-0.083-1.67-0.125-2.507c-0.185-3.703-0.363-7.574-0.248-11.427
		c-2.829-3.7-5.278-7.699-7.083-11.99c-2.233-5.285-3.456-10.947-3.8-16.626c0.556,5.664,1.985,11.24,4.382,16.37
		c1.745,3.8,3.997,7.337,6.57,10.623c0.419-7.854,2.232-15.515,7.905-21.371c1.154-1.19,3.059-1.728,4.673-1.783
		c0.769-0.026,2.939,0.354,1.77,1.561c-3.248,3.353-5.275,7.5-6.271,12.045c-1.257,5.743-1.262,11.537-1.014,17.347
		c0.439,0.432,0.885,0.856,1.331,1.283c1.792-1.268,3.583-2.414,5.348-3.387c16.408-9.048,46.594-12.145,46.594-12.145
		s-17.601,22.459-33.635,32.062c0.372,0.359,0.743,0.717,1.11,1.082c4.074,4.048,7.871,8.48,10.875,13.48
		c3.015,4.981,5.182,10.528,6.302,16.258c0.235,1.179,0.436,2.361,0.603,3.548c0.776-0.709,1.664-1.507,2.647-2.37
		c0.339-2.201,0.503-4.427,0.442-6.66c0.114,2.168,0.014,4.34-0.254,6.495c6.19-5.412,15.946-13.173,24.456-16.568
		c13.73-5.477,37.662-4.949,37.662-4.949s-16.978,16.85-30.708,22.327c-9.77,3.898-24.704,4.754-32.507,4.924
		c-0.133,0.521-0.274,1.041-0.423,1.556c-0.012,0.04-0.024,0.078-0.037,0.118c7.213,3.548,12.82,7.134,12.82,7.134
		s-5.95,1.419-13.471,2.401c-0.25,5.578-1,11.139-2.37,16.585c-0.521,2.06-1.132,4.104-1.857,6.116
		c5.183,0.843,10.078,3.633,14.055,7.818c0.484-2.382,0.821-3.798,0.821-3.798s14.996,23.306,17.876,40.173
		c1.884,11.042-0.218,26.407-1.892,35.702c2.013-1.874,3.896-3.824,5.461-5.973c0.638-0.882,1.215-1.795,1.712-2.741
		c0.123-0.237,0.245-0.476,0.356-0.716l0.166-0.362l0.08-0.182l0.035-0.081c0.092-0.275,0.183-0.547,0.259-0.793
		c0.078-0.25,0.154-0.519,0.227-0.778c0.579-2.096,0.862-4.233,0.741-6.365c-0.193-4.275-2.194-8.47-3.317-13.118
		c-0.284-1.158-0.513-2.335-0.677-3.525c-0.082-0.595-0.146-1.192-0.196-1.79l-0.064-0.856c-0.023-0.304-0.043-0.611-0.059-0.908
		c-0.117-2.404,0.055-4.806,0.452-7.153c0.8-4.701,2.465-9.174,4.587-13.357c2.133-4.188,4.736-8.101,7.647-11.75
		c2.916-3.646,6.146-7.036,9.671-10.099l0.331-0.286l0.166-0.143c0.002,0,0.016-0.013,0.023-0.02l0.029-0.027l0.078-0.074
		l0.628-0.588l1.242-1.187c0.824-0.796,1.634-1.604,2.43-2.426c1.589-1.643,3.112-3.344,4.52-5.131
		c0.057-0.071,0.107-0.144,0.162-0.215c3.005-7.106,6.104-12.963,7.194-14.975c0.734-3.317,1.064-6.74,1.203-10.161
		c0.093-2.291,0.097-4.588,0.054-6.886c-0.054-2.292-0.12-4.615-0.089-6.923c0.025-2.312,0.126-4.629,0.403-6.935
		c0.283-2.3,0.757-4.604,1.653-6.766c0.886-2.164,2.257-4.125,3.955-5.719c1.692-1.604,3.641-2.891,5.64-4.043
		c2.005-1.151,4.079-2.174,6.164-3.164c2.085-0.988,4.188-1.937,6.291-2.885c-2.085,0.985-4.172,1.971-6.238,2.994
		c-2.067,1.024-4.117,2.082-6.094,3.263c-1.972,1.182-3.879,2.493-5.513,4.096c-1.637,1.594-2.932,3.52-3.758,5.64
		c-0.835,2.117-1.26,4.381-1.5,6.652c-0.234,2.276-0.292,4.573-0.279,6.869c0.01,2.3,0.115,4.586,0.209,6.898
		c0.082,2.309,0.119,4.623,0.068,6.939c-0.086,3.741-0.407,7.517-1.236,11.205c1.657,5.952,6.604,25.219,5.168,38.349
		c-0.342,3.134-1.116,6.531-2.134,9.961c14.793-9.008,23.424-25.564,37.8-35.213c4.973-3.337,10.041-7.434,13.441-12.535
		c-1.433-3.143-3.847-8.757-5.807-14.86c-3.524,4.717-8.341,10.452-13.058,13.777c-9.016,6.359-26.487,10.126-26.487,10.126
		s9.396-15.18,18.416-21.54c5.313-3.746,13.559-6.592,19.437-8.299c-0.724-2.961-1.242-5.889-1.395-8.566
		c-0.745-13.034,6.421-32.923,6.421-32.923s9.205,18.596,10.1,31.616c0.485-0.158,1.045-0.122,1.303,0.253
		c1.039,1.51,2.439,3.633,1.531,5.537c-0.798,1.672-2.331,2.804-3.062,4.537c-0.152,0.363-0.32,0.721-0.498,1.074
		c-0.198,1.246-0.423,2.491-0.669,3.72c0.279,2.851,0.041,5.753-0.896,8.64c-0.405,1.247-0.905,2.447-1.486,3.604
		c2.06,4.365,4.936,8.278,7.533,12.331c2.592,4.046,4.388,7.943,5.438,12.653c0.903,4.044,1.482,8.248,1.148,12.398
		c-0.306,3.781-1.362,7.19-2.937,10.321c4.247,7.721,7.099,15.577,7.099,15.577s-6.377-2.832-13.13-6.958
		c-2.432,2.718-5.172,5.241-7.981,7.665c0.394,0.114,0.778,0.232,1.156,0.355c3.957,1.295,8.237,3.498,12.324,5.974
		c0.511-1.329,0.851-2.127,0.851-2.127s0.581,1.366,1.368,3.509c5.512,3.523,10.475,7.348,13.542,9.825
		c1.039-2.352,2.033-4.726,2.983-7.12c1.524-3.842,2.95-7.729,4.351-11.635c-2.648-9.234-0.563-18.538,5.175-23.851
		c1.163-1.079,2.764-1.347,4.287-1.908c2.078-5.084,4.35-10.088,6.973-14.911c0.057-0.102,0.184-0.14,0.285-0.084
		c0.1,0.053,0.135,0.173,0.092,0.272c-2.077,4.523-3.902,9.143-5.577,13.817c0.9-0.595,1.743-1.262,2.782-1.412
		c9.196-1.329,19.323,5.032,24.13,15.865c4.538,10.225,3.405,21.073-2.813,27.25c-1.42,1.412-0.743,6.518-3.59,7.775
		c-2.844,1.26-6.211-2.664-8.229-2.566c-8.744,0.422-17.527-6.022-22.054-16.228c-0.018-0.036-0.031-0.073-0.047-0.109
		c-0.953,2.933-1.939,5.859-2.991,8.769c-0.988,2.758-2.039,5.5-3.163,8.217c0.396,0.337,0.61,0.524,0.61,0.524
		s-0.304,0.025-0.859,0.065c-2.445,5.831-5.242,11.535-8.523,17.004l-0.227,0.377l-0.113,0.188l-0.15,0.237l-0.478,0.738
		l-0.965,1.474l-1.938,2.947c-1.299,1.963-2.609,3.923-3.949,5.87c-0.667,0.969-1.34,1.936-2.022,2.896
		c1.744-1.275,3.495-2.416,5.211-3.35c12.858-6.996,36.456-9.282,36.456-9.282s-14.717,18.56-27.575,25.556
		c-10.174,5.535-27.067,8.12-33.68,8.959c-0.765,0.604-1.544,1.196-2.342,1.764c-0.995,0.708-2.019,1.386-3.071,2.025
		c-0.522,0.319-1.059,0.626-1.615,0.938l-0.744,0.402l-0.769,0.433c-3.92,2.184-7.838,4.35-11.737,6.535
		c0.104,0.101,0.204,0.203,0.308,0.304c0.281-0.091,0.562-0.184,0.843-0.272c4.409-1.38,8.932-2.362,13.461-3.067
		c4.53-0.707,9.07-1.167,13.602-1.541c4.532-0.369,9.059-0.649,13.584-0.907l1.695-0.095l1.677-0.118
		c1.141-0.076,2.289-0.138,3.439-0.175c2.304-0.073,4.628-0.048,6.958,0.177c2.275,0.22,4.558,0.638,6.771,1.357
		c3.438-5.974,11.72-19.435,20.156-26.263c11.041-8.937,33.164-15.264,33.164-15.264s-10.777,20.302-21.819,29.239
		c-7.739,6.266-20.926,11.248-28.119,13.667c1.104,0.552,2.164,1.191,3.161,1.92c0.304,0.222,0.603,0.454,0.896,0.691
		c6.113-4.172,10.948-6.901,10.948-6.901s-1.775,6.891-4.866,15.207c0.389,0.822,0.753,1.652,1.103,2.483
		c1.567,3.788,2.835,7.637,4.099,11.466c2.393-2.513,10.988-11.212,18.334-14.562c8.627-3.934,23.977-4.335,23.977-4.335
		s-10.355,11.321-18.984,15.255c-7.398,3.374-19.744,4.148-23.107,4.301c0.08,0.245,0.161,0.49,0.243,0.734
		c1.418,4.285,2.834,8.558,4.593,12.652c0.885,2.042,1.856,4.039,3.009,5.899c1.154,1.852,2.5,3.584,4.153,4.869
		c0.823,0.638,1.727,1.15,2.686,1.484c0.242,0.08,0.483,0.157,0.731,0.215l0.092,0.022c0.004,0.001,0.055,0.015,0.02,0.006
		l0.053,0.011l0.206,0.039c0.107,0.016,0.215,0.035,0.34,0.047c0.479,0.053,0.973,0.039,1.472-0.025
		c1.498-0.207,2.974-0.842,4.378-1.651c-0.928-0.847-1.464-1.362-1.464-1.362s1.384-0.049,3.604-0.037
		c1.548-1.105,3.022-2.348,4.444-3.648c1.649-1.51,3.234-3.102,4.791-4.725c3.118-3.248,6.115-6.631,9.21-9.945
		c1.552-1.656,3.124-3.298,4.791-4.866c0.833-0.784,1.692-1.547,2.602-2.265c0.909-0.716,1.864-1.396,2.946-1.935l0.023-0.012
		l0.021-0.008c2.187-0.87,4.462-1.613,6.864-1.888c1.199-0.131,2.432-0.132,3.646,0.092c1.213,0.218,2.393,0.682,3.429,1.344
		c1.041,0.659,1.937,1.495,2.729,2.389c0.548,0.621,1.048,1.271,1.523,1.934c3.017-0.643,15.702-3.142,24.007-1.67
		c9.478,1.68,22.533,10.182,22.533,10.182s-15.188,3.495-24.668,1.814c-7.643-1.355-17.609-7.146-21.182-9.336
		c1.285,1.914,2.451,3.872,3.709,5.76c1.273,1.923,2.633,3.78,4.159,5.499c0.761,0.865,1.559,1.676,2.406,2.457
		c0.841,0.787,1.706,1.548,2.6,2.275c1.784,1.451,3.678,2.774,5.698,3.863c2.017,1.089,4.169,1.939,6.409,2.404
		c2.237,0.47,4.558,0.531,6.815,0.152c2.261-0.375,4.444-1.177,6.471-2.26c2.03-1.083,3.918-2.436,5.675-3.934
		c1.761-1.497,3.398-3.141,4.947-4.862c3.095-3.45,5.848-7.197,8.467-11.026c2.615-3.833,5.086-7.764,7.584-11.676
		c-2.451,3.941-4.877,7.9-7.449,11.767c-2.578,3.863-5.29,7.649-8.358,11.15c-1.536,1.749-3.166,3.423-4.924,4.955
		c-1.759,1.532-3.652,2.927-5.711,4.054c-2.054,1.127-4.28,1.978-6.604,2.391c-2.324,0.42-4.729,0.383-7.043-0.074
		c-2.319-0.453-4.544-1.305-6.625-2.396c-2.084-1.092-4.03-2.42-5.863-3.877c-0.917-0.729-1.806-1.492-2.67-2.281
		c-0.867-0.782-1.71-1.618-2.492-2.487c-1.581-1.739-2.991-3.62-4.302-5.551c-1.318-1.928-2.529-3.916-3.836-5.805
		c-1.309-1.873-2.743-3.691-4.613-4.849c-0.927-0.577-1.956-0.966-3.032-1.148c-1.075-0.186-2.19-0.175-3.298-0.041
		c-2.21,0.277-4.382,1.002-6.482,1.869c-0.936,0.48-1.825,1.121-2.677,1.809c-0.856,0.695-1.682,1.445-2.488,2.219
		c-1.607,1.55-3.147,3.193-4.667,4.856c-3.04,3.332-6.002,6.753-9.108,10.067c-1.555,1.657-3.144,3.29-4.813,4.854
		c-0.899,0.843-1.825,1.666-2.783,2.457c6.287,0.166,15.862,0.863,22.436,3.384c10.558,4.046,23.715,16.754,23.715,16.754
		s-18.294,0.653-28.852-3.394c-7.543-2.892-16.415-10.205-20.865-14.144c-0.649,0.405-1.324,0.788-2.028,1.124
		c-1.078,0.51-2.236,0.93-3.484,1.109c-0.622,0.088-1.266,0.115-1.911,0.055c-0.158-0.014-0.33-0.038-0.503-0.064l-0.209-0.039
		l-0.137-0.027l-0.114-0.025c-0.305-0.068-0.604-0.158-0.899-0.254c-1.184-0.395-2.279-1.007-3.249-1.74
		c-1.946-1.48-3.428-3.373-4.684-5.332c-1.254-1.97-2.284-4.037-3.222-6.131c-1.858-4.193-3.337-8.499-4.811-12.774
		c-1.471-4.273-2.895-8.552-4.644-12.64c-0.035-0.081-0.074-0.16-0.107-0.241c-2.587,6.509-5.891,13.443-9.715,18.421
		c-3.263,4.25-7.999,8.503-12.815,12.257c1.724-0.565,3.461-1.049,5.214-1.367c6.709-1.217,13.239,0.145,19.016,3.753
		c12.892,8.054,20.801,21.854,32.608,31.204c0.131,0.104,0.266,0.201,0.397,0.302c0.962-9.255,2.844-17.192,2.844-17.192
		s8.948,13.879,12.886,26.354c3.537,1.615,7.136,3.078,10.667,4.49c2.283,0.912,4.58,1.791,6.88,2.652
		c0.051-0.008,0.104-0.015,0.153-0.016c4.696-0.043,9.188-1.064,13.438-2.766c3.277-4.012,11.423-13.442,18.827-17.641
		c9.536-5.412,27.184-7.439,27.184-7.439s-10.775,14.099-20.313,19.51c-9.138,5.184-25.709,7.26-27.09,7.426
		c-2.966,1.01-6.031,1.717-9.185,2.045c7.4,2.723,14.85,5.313,22.197,8.176c2.574,1.002,5.131,2.084,7.703,3.129
		c0.969-0.375,1.926-0.713,2.94-0.629c4.621,0.387,9.073,2.36,12.899,5.528c2.14,0.333,4.317,0.503,6.548,0.444
		c8.034-0.211,15.579-2.92,23.271-4.949c1.808-0.479,2.299,1.344,0.489,1.822c-5.366,1.416-10.657,3.222-16.127,4.216
		c-3.904,0.71-7.804,0.993-11.708,0.771c4.247,4.442,7.445,10.496,8.789,17.494c2.563,13.319-1.747,25.823-10.78,31.426
		c-2.066,1.279-2.665,7.496-6.37,8.203c-3.705,0.713-6.607-4.842-9.02-5.277c-6.145-1.107-11.651-5.031-15.667-10.777
		c-2.966,1.885-6.076,3.57-8.966,4.584c-4.626,1.627-10.771,2.268-16.055,2.489c0.165,0.049,0.331,0.098,0.491,0.149
		c2.872,0.924,5.61,2.162,8.344,3.375c2.732,1.219,5.475,2.416,8.333,3.291c2.853,0.881,5.823,1.412,8.82,1.438
		c-2.997,0.037-5.989-0.438-8.871-1.266c-2.888-0.822-5.667-1.971-8.426-3.133c-2.756-1.162-5.509-2.338-8.358-3.193
		c-0.747-0.227-1.503-0.428-2.262-0.6c-5.254,0.129-9.241-0.123-9.241-0.123s0.166-0.152,0.46-0.414
		c-2.169,0.24-4.313,0.748-6.4,1.416c-2.829,0.898-5.585,2.049-8.387,3.129c-1.398,0.539-2.811,1.064-4.241,1.541
		c-0.718,0.242-1.436,0.467-2.163,0.684c-0.358,0.107-0.741,0.209-1.066,0.313l-1.08,0.33c-2.879,0.875-5.786,1.639-8.713,2.328
		c-3.11,0.73-6.24,1.373-9.382,1.938c5.082,2.588,10.513,5.824,14.265,9.33c9.081,8.486,17.225,26.881,17.225,26.881
		s-18.917-6.898-28.001-15.387c-5.278-4.932-10.239-13.211-13.469-19.279c-5.421,0.701-10.871,1.199-16.338,1.449
		c-3.277,0.148-6.556,0.209-9.84,0.158c-3.243,3.387-6.942,6.762-10.499,8.904c-9.555,5.756-27.443,8.285-27.443,8.285
		s9.546-13.186,18.691-19.443c-2.283-0.494-4.545-1.01-6.802-1.465c-5.797-1.184-11.655-2.014-17.326-1.328
		c-2.802,0.352-5.478,1.166-7.724,2.639c-2.259,1.457-4.061,3.568-5.632,5.963c-0.925,1.406-1.792,2.896-2.662,4.42
		c0.37,0.078,0.741,0.146,1.121,0.193c1.584,0.188,3.216-0.359,4.651,0.232c8.993,3.707,14.715,14.836,13.252,27.152
		c-1.382,11.631-8.203,20.799-17.107,23.047c-2.034,0.516-4.155,5.477-7.389,5.092c-3.237-0.383-4.173-5.711-6.043-6.697
		c-8.103-4.281-12.564-14.771-11.188-26.375c0.061-0.506,0.136-1.006,0.218-1.502c-0.104,0.033-0.208,0.07-0.312,0.104
		c-2.937,0.963-5.847,1.715-8.639,2.582c-2.791,0.861-5.466,1.852-7.892,3.18c-2.429,1.322-4.591,2.996-6.412,5.018
		c-0.456,0.508-0.892,1.029-1.307,1.572c-0.211,0.271-0.409,0.547-0.601,0.813l-0.16,0.23l-0.039,0.061
		c-0.051,0.066,0.057-0.072-0.123,0.166l-0.079,0.102l-0.313,0.408c-0.817,1.102-1.554,2.262-2.201,3.473
		c-1.297,2.424-2.237,5.055-2.939,7.803c-0.335,1.309-0.616,2.643-0.865,3.996c-0.092,5.633-0.472,11.256-1.328,16.854
		c-0.271,1.768-0.575,3.527-0.897,5.283c0.133,0.291,0.258,0.586,0.393,0.875l-0.608,0.27c-2.504,13.145-6.266,26.029-8.578,39.221
		c-0.029,0.172-0.113,0.342-0.236,0.502c0.392,2.172,0.749,4.346,1.074,6.52c0.043,0.283-0.462,0.559-1.066,0.742
		c0.127,0.326,0.248,0.654,0.382,0.98L325.958,578z M526.592,461.281c-8.157-13.033-12.039-37.611-12.039-37.611
		s20.425,14.256,28.582,27.289c8.158,13.031,12.039,37.609,12.039,37.609S534.75,474.316,526.592,461.281z M107.446,332.705
		c0,0,7.87-21.529,17.556-31.867c9.686-10.336,30.678-19.604,30.678-19.604s-7.87,21.528-17.556,31.865
		C128.438,323.434,107.446,332.705,107.446,332.705z M364.483,111.327c0,0-13.142,14.03-24.011,18.832
		c-10.866,4.801-30.104,5.078-30.104,5.078s13.145-14.03,24.01-18.832C345.246,111.604,364.483,111.327,364.483,111.327z"/>
	<path fill="#FFFFFF" d="M324.551,518.398c-0.239-0.57-0.472-1.135-0.694-1.691c-0.454-1.117-0.891-2.24-1.313-3.367
		c-0.351-0.926-0.684-1.854-1.014-2.785c0.063,0.758,0.115,1.512,0.156,2.27c0.247,4.459,0.061,8.842-0.189,13.252
		c0.739,2.844,1.436,5.699,2.097,8.557c0.3-2.326,0.626-4.652,0.98-6.969c0.404-2.646,0.843-5.285,1.303-7.918l-0.636,0.279
		L324.551,518.398z"/>
	<path fill="#FFFFFF" d="M346.059,439.283c-0.354,0.314-0.694,0.641-1.021,0.979c-1.33,1.369-2.4,2.984-3.306,4.721
		c-1.796,3.479-2.901,7.357-3.721,11.281c-0.799,3.879-1.302,7.838-1.675,11.818c0.057,0.854,0.111,1.709,0.166,2.563
		c0.626,2.303,0.957,3.707,0.957,3.707s-0.269-0.16-0.754-0.457c0.079,1.316,0.157,2.635,0.222,3.951
		c0.72-1.23,1.516-2.422,2.393-3.549l0.377-0.477l0.074-0.094l0.021-0.027l0.136-0.188c0.473-2.164,0.942-4.33,1.4-6.494
		c1.94-9.168,3.693-18.371,4.722-27.656C346.053,439.333,346.055,439.308,346.059,439.283z"/>
	<path fill="#FFFFFF" d="M329.234,469.013c-2.529-1.744-5.422-3.83-8.345-6.135c0.027,0.178,0.051,0.355,0.078,0.531
		c1.899,12.754,4.548,25.334,8.578,37.342c0.219-1.059,0.437-2.119,0.655-3.176c0.123-2.646,0.148-5.307,0.051-7.977
		C330.003,482.736,329.665,475.873,329.234,469.013z"/>
	<path fill="#FFFFFF" d="M343.276,438.537c0.967-0.967,2.019-1.824,3.12-2.594c0.319-3.508,0.528-7.021,0.597-10.537
		c0.027-1.207,0.072-2.332,0.068-3.498c0.002-1.16-0.02-2.318-0.063-3.479c-0.086-2.318-0.252-4.641-0.479-6.957
		c-0.25-2.586-0.573-5.168-0.938-7.746c-0.581,0.328-1.718,0.59-1.886,0.201c-2.27-5.191-4.752-10.313-7.479-15.297
		c-2.659,8.633-5.507,15.316-5.507,15.316s-1.552-3.645-3.434-9.025c3.987,19.884,6.521,40.07,8.134,60.275
		c0.91-3.898,2.105-7.789,4.052-11.418C340.479,441.902,341.721,440.085,343.276,438.537z"/>
	<path fill="#FFFFFF" d="M257.603,225.495c-1.42-2.076-2.754-4.209-3.965-6.266c-6.354,6.055-13.329,11.144-15.94,12.988
		c7.637,2.191,15.242,5.581,19.274,7.498C257.054,234.97,257.264,230.228,257.603,225.495z"/>
	<path fill="#FFFFFF" d="M217.241,393.85c-10.479-6.67-21.344-12.677-32.47-18.175c2.201,3.279,4.185,7.214,5.933,11.33
		c9.718,6.595,19.232,13.463,28.45,20.75c5.351-1.146,10.729-1.848,14.869-2.271C228.585,401.376,222.972,397.5,217.241,393.85z"/>
	<path fill="#FFFFFF" d="M234.196,293.074c2.087,4.885,2.891,10.201,3.657,15.469c0.363,0.352,0.721,0.707,1.084,1.059
		c1.281,1.223,2.579,2.428,3.881,3.627c2.611,2.391,5.244,4.762,7.949,7.047l0.034,0.027l0.023,0.025
		c1.319,1.336,2.683,2.635,4.059,3.926c-1.456-6.668-2.718-14.789-2.144-21.211c0.189-2.123,0.611-4.39,1.182-6.705
		c-1.708,0.545-3.464,0.863-5.238,0.918c-2.211,0.07-5.516,4.697-8.761,3.572c-3.244-1.125-3-6.82-4.703-8.26
		c-7.371-6.236-9.594-18.038-5.549-29.675c0.083-0.239,0.173-0.473,0.261-0.708c-1.879-1.354-2.984-2.211-2.984-2.211
		s1.562-0.226,4.126-0.5c3.173-6.698,8.267-11.746,13.971-14.333c-6.136,1.297-13.123,2.304-18.801,1.866
		c-6.278-0.485-13.866-2.963-20.119-5.438c0.918,4.892,1.649,10.75,1.115,15.377c-0.491,4.256-2.261,9.284-4.105,13.608
		c1.12,1.318,2.235,2.642,3.362,3.954c0.736,0.866,1.477,1.727,2.216,2.59C219.032,279.41,229.751,282.674,234.196,293.074z"/>
	<path fill="#FFFFFF" d="M249.167,409.822c4.173,3.479,8.195,7.118,12.044,10.912c0.008-0.004,0.017-0.008,0.024-0.012
		c-3.093-2.876-5.933-5.893-8.096-8.891c-9.473-13.123-15.256-38.672-15.256-38.672s9.187,5.549,18.285,12.984
		c-5.717-10.88-10.734-22.111-14.844-33.684c-1.736,11.582-9.987,26.807-9.987,26.807s-5.797-18.172-4.692-29.9
		c0.69-7.341,4.511-16.658,7.273-22.603c-1.369-6.19-2.485-12.423-3.485-18.712c-0.098-0.605-0.196-1.219-0.296-1.834
		c0.009,2.052-0.107,4.039-0.405,5.832c-1.622,9.729-10.213,23.199-10.213,23.199s-2.35-9.703-2.533-18.574
		c-3.279,7.678-7.746,16.582-12.833,22.554c-8.454,9.923-25.18,19.458-31.746,22.981c1.564,1.389,3.101,2.824,4.572,4.287
		C202.68,378.001,227.539,391.792,249.167,409.822z"/>
	<path fill="#FFFFFF" d="M225.053,291.103c-0.269-0.383-0.547-0.76-0.847-1.126c-2.788-3.418-6.582-5.679-10.66-7.286
		c0.714,0.817,1.433,1.629,2.151,2.443c3.145,2.032,6.234,4.384,8.982,6.642C224.806,291.544,224.931,291.322,225.053,291.103z"/>
	<path fill="#FFFFFF" d="M256.838,75.244c-0.664,0.146-1.321,0.287-1.972,0.422c0.368,1.265,0.724,2.567,1.055,3.887
		C256.273,78.127,256.583,76.691,256.838,75.244z"/>
	<path fill="#FFFFFF" d="M259.178,136.68c0.787,0.102,1.593,0.237,2.41,0.396c0.986-0.411,1.544-0.631,1.544-0.631
		s-0.128,0.31-0.371,0.875c5.913,1.312,12.397,3.891,17.865,6.402c1.564-1.657,3.327-3.063,5.265-4.156
		c0.491-0.277,1.007-0.462,1.54-0.593c1.36-3.097,2.882-6.111,4.445-9.09c2.165-4.121,4.419-8.182,6.501-12.327
		c0.433-0.864,0.855-1.735,1.271-2.609c-5.586,0.559-11.599,0.75-16.505-0.08c-9.003-1.521-20.39-7.503-26.536-11.036
		c-1.846,8.527-5.084,16.963-6.298,19.976c-0.49,4.194-0.758,8.42-0.819,12.645C252.89,136.263,256.211,136.294,259.178,136.68z"/>
	<path fill="#FFFFFF" d="M260.493,185.542c1.301-1.143,2.591-2.23,3.828-3.241c0.059-0.234,0.115-0.47,0.179-0.703
		c0.196-0.725,0.412-1.444,0.652-2.156c0.953-2.85,2.261-5.57,3.813-8.105c1.175-1.921,2.479-3.729,3.858-5.457
		c-0.093-4.191,0.53-8.206,1.752-11.843c-5.984,0.822-12.429,1.264-17.736,0.573c-0.784-0.103-1.589-0.236-2.405-0.395
		c-0.985,1.766-2.033,3.565-3.134,5.353c0.833,4.809,2.01,9.576,3.83,14.084C256.759,177.687,258.563,181.645,260.493,185.542z"/>
	<path fill="#FFFFFF" d="M199.558,415.521c0.053,0.01,0.109,0.021,0.164,0.033c2.084-1.414,4.176-2.662,6.208-3.629
		c2.976-1.414,6.502-2.551,10.159-3.463c-4.046-3.221-8.147-6.369-12.312-9.436c-3.808-2.804-7.664-5.557-11.556-8.263
		C196.277,401.328,198.809,412.128,199.558,415.521z"/>
	<path fill="#FFFFFF" d="M124.481,417.767c0.67,0.988,1.35,1.975,2.048,2.947c3.6-1.951,7.305-3.623,10.333-4.887
		C132.745,416.621,128.646,417.55,124.481,417.767z"/>
	<path fill="#FFFFFF" d="M246.206,434.658c-5.972-5.635-12.075-11.131-18.319-16.462c-1.61,1.378-3.292,2.745-5.005,4.036
		c3.436,1.34,6.809,2.834,10.101,4.508C237.555,429.064,241.938,431.777,246.206,434.658z"/>
	<path fill="#FFFFFF" d="M71.951,329.072c0.244,0.053,0.487,0.102,0.731,0.154c-0.443-0.271-0.884-0.542-1.322-0.82
		c-7.394-4.679-13.805-10.471-22.113-13.578c-4.38-1.64-10.222-3.609-14.981-2.77c-0.102,1.574-0.45,6.104-1.346,11.082
		c0.615,0.107,1.231,0.213,1.85,0.314c7.612-0.646,17.019-0.89,24.159,0.733C63.051,325.125,67.585,326.951,71.951,329.072z"/>
	<path fill="#FFFFFF" d="M131.458,414.001c4.119-0.789,8.195-1.738,12.37-2.197c9.862-1.084,20.179-0.471,30.047,0.279
		c7.872,0.604,15.815,1.557,23.657,3.041c-6.121-4.105-23.095-16.074-31.014-27.545c-3.637-5.271-6.69-12.359-9.092-19.18
		c-3.935-2.337-7.891-4.631-11.866-6.875c-6.201-3.502-12.494-6.877-18.882-10.07c-0.806-0.289-1.611-0.58-2.417-0.865
		c-1.006-0.359-2.015-0.713-3.024-1.068c4.552,4.245,6.863,11.555,5.466,19.25c-1.624,8.945-7.347,15.727-14.354,17.046
		c-1.601,0.302-3.48,4.045-5.97,3.595c-2.489-0.451-2.96-4.625-4.362-5.479c-6.075-3.703-9.036-12.042-7.415-20.972
		c1.661-9.148,8.04-15.955,15.244-17.055c0.303-0.046,0.603-0.048,0.898-0.023c-10.673-3.713-21.327-7.61-31.301-12.834
		c7.355,4.211,12.915,8.224,12.915,8.224S69.44,345.397,55.16,342.3c1.555,5.691,2.8,11.877,2.8,17.104
		c0,10.577-5.099,25.089-7.55,31.451c7.322-4.202,15.509-7.345,23.889-7.397c6.305-0.039,12.375,1.644,17.997,4.342
		c-4.528-6.057-10.058-10.836-17.836-10.916c-0.751-0.008-2.872-0.211-1.735-1.438c1.05-1.134,3.178-1.767,4.681-1.75
		c5.498,0.058,10.708,1.532,15.042,5.015c2.811,2.26,5.153,5.006,7.25,7.928c0.33-0.342,0.511-0.525,0.511-0.525
		s0.013,0.454,0.021,1.277c0.669,0.96,1.314,1.936,1.944,2.916c1.417,2.211,2.751,4.474,4.111,6.723
		c5.57,4.594,10.653,9.865,14.788,15.738c0.251,0.357,0.502,0.719,0.751,1.08c0.144,0.049,0.283,0.107,0.427,0.152
		C125.383,414.976,128.34,414.599,131.458,414.001z"/>
	<path fill="#FFFFFF" d="M155.478,362.5c-4.242-1.746-8.503-3.443-12.783-5.092c4.588,2.506,9.129,5.1,13.633,7.756
		C156.032,364.261,155.748,363.373,155.478,362.5z"/>
	<path fill="#FFFFFF" d="M132.85,431.298c-0.726,0.979-1.471,1.93-2.231,2.834c2.113-0.518,4.21,0.395,6.441,0.59
		c0.799,0.072,1.605-0.018,2.396-0.09c-0.561-0.184-1.113-0.383-1.66-0.602C135.995,433.312,134.362,432.378,132.85,431.298z"/>
</g>
</svg>
