<?xml version="1.0" encoding="utf-8"?>
<!-- Generator: Adobe Illustrator 15.0.0, SVG Export Plug-In . SVG Version: 6.00 Build 0)  -->
<!DOCTYPE svg PUBLIC "-//W3C//DTD SVG 1.1//EN" "http://www.w3.org/Graphics/SVG/1.1/DTD/svg11.dtd">
<svg version="1.1" id="Layer_1" xmlns="http://www.w3.org/2000/svg" xmlns:xlink="http://www.w3.org/1999/xlink" x="0px" y="0px"
	 width="100px" height="100px" viewBox="0 0 100 100" enable-background="new 0 0 100 100" xml:space="preserve">
<path fill-rule="evenodd" clip-rule="evenodd" fill="#221E1B" d="M49.998,17.69c-18.292,0-33.125,14.832-33.125,33.13
	c0,14.635,9.491,27.052,22.656,31.432c1.657,0.305,2.261-0.718,2.261-1.597c0-0.786-0.028-2.87-0.045-5.635
	c-9.215,2.004-11.159-4.439-11.159-4.439c-1.506-3.827-3.678-4.846-3.678-4.846c-3.008-2.057,0.228-2.015,0.228-2.015
	c3.324,0.234,5.074,3.414,5.074,3.414c2.955,5.063,7.753,3.601,9.641,2.753c0.301-2.141,1.157-3.601,2.103-4.429
	c-7.356-0.836-15.09-3.678-15.09-16.373c0-3.617,1.292-6.574,3.41-8.89c-0.34-0.838-1.477-4.206,0.326-8.767
	c0,0,2.781-0.891,9.109,3.396c2.642-0.734,5.477-1.102,8.294-1.115c2.814,0.013,5.646,0.38,8.295,1.115
	c6.323-4.287,9.098-3.396,9.098-3.396c1.809,4.561,0.673,7.929,0.331,8.767c2.123,2.315,3.404,5.273,3.404,8.89
	c0,12.726-7.747,15.526-15.126,16.347c1.191,1.023,2.249,3.044,2.249,6.135c0,4.43-0.04,8.002-0.04,9.087
	c0,0.888,0.597,1.916,2.278,1.593c13.151-4.389,22.635-16.797,22.635-31.428C83.127,32.522,68.294,17.69,49.998,17.69z"/>
<path fill-rule="evenodd" clip-rule="evenodd" fill="#221E1B" d="M50,0.833C22.846,0.833,0.833,22.846,0.833,50
	S22.846,99.167,50,99.167S99.167,77.154,99.167,50S77.154,0.833,50,0.833z M50,96.669C24.226,96.669,3.331,75.775,3.331,50
	C3.331,24.226,24.226,3.331,50,3.331c25.775,0,46.669,20.895,46.669,46.669C96.669,75.775,75.775,96.669,50,96.669z"/>
</svg>
