<?xml version="1.0" encoding="utf-8"?>
<!-- Generator: Adobe Illustrator 15.0.0, SVG Export Plug-In . SVG Version: 6.00 Build 0)  -->
<!DOCTYPE svg PUBLIC "-//W3C//DTD SVG 1.1//EN" "http://www.w3.org/Graphics/SVG/1.1/DTD/svg11.dtd">
<svg version="1.1" id="Layer_1" xmlns="http://www.w3.org/2000/svg" xmlns:xlink="http://www.w3.org/1999/xlink" x="0px" y="0px"
	 width="1200px" height="800px" viewBox="0 0 1200 800" enable-background="new 0 0 1200 800" xml:space="preserve">
<symbol  id="leaf" viewBox="-28 -110 56 220">
	<path d="M28,0C28-44.18,0-110,0-110S-28-44.18-28,0c0,44.18,28,110,28,110S28,44.18,28,0z"/>
	<polygon display="none" fill="none" points="-28,110 28,110 28,-110 -28,-110 	"/>
</symbol>
<g>
	
		<use xlink:href="#leaf"  width="56" height="220" x="-28" y="-110" transform="matrix(0.5292 0.6528 0.6528 -0.5292 974.7373 217.6099)" overflow="visible"/>
	
		<use xlink:href="#leaf"  width="56" height="220" x="-28" y="-110" transform="matrix(0.4143 0.7603 0.7603 -0.4143 873.7783 203.0171)" overflow="visible"/>
	
		<use xlink:href="#leaf"  width="56" height="220" x="-28" y="-110" transform="matrix(-0.5126 0.2662 0.2662 0.5126 410.4043 602.5947)" overflow="visible"/>
	
		<use xlink:href="#leaf"  width="56" height="220" x="-28" y="-110" transform="matrix(0.1271 0.6207 0.6207 -0.1271 617.3535 494.5088)" overflow="visible"/>
	
		<use xlink:href="#leaf"  width="56" height="220" x="-28" y="-110" transform="matrix(-0.7732 -0.1848 -0.1848 0.7732 517.0405 287.395)" overflow="visible"/>
	
		<use xlink:href="#leaf"  width="56" height="220" x="-28" y="-110" transform="matrix(-0.7772 0.5601 0.5601 0.7772 373.3687 661.4854)" overflow="visible"/>
	
		<use xlink:href="#leaf"  width="56" height="220" x="-28" y="-110" transform="matrix(0.2657 -0.8107 -0.8107 -0.2657 809.6133 78.0786)" overflow="visible"/>
	
		<use xlink:href="#leaf"  width="56" height="220" x="-28" y="-110" transform="matrix(0.2915 -0.7038 -0.7038 -0.2915 226.1899 354.8809)" overflow="visible"/>
	
		<use xlink:href="#leaf"  width="56" height="220" x="-28" y="-110" transform="matrix(-0.5304 0.769 0.769 0.5304 710.498 284.8218)" overflow="visible"/>
	
		<use xlink:href="#leaf"  width="56" height="220" x="-28" y="-110" transform="matrix(-0.8363 0.3324 0.3324 0.8363 463.5679 517.1436)" overflow="visible"/>
	
		<use xlink:href="#leaf"  width="56" height="220" x="-28" y="-110" transform="matrix(-0.7324 -0.5616 -0.5616 0.7324 893.5166 340.9888)" overflow="visible"/>
	
		<use xlink:href="#leaf"  width="56" height="220" x="-28" y="-110" transform="matrix(0.6112 0.3349 0.3349 -0.6112 673.5537 655.5859)" overflow="visible"/>
	
		<use xlink:href="#leaf"  width="56" height="220" x="-28" y="-110" transform="matrix(-0.9149 0.2226 0.2226 0.9149 614.9717 354.6128)" overflow="visible"/>
	
		<use xlink:href="#leaf"  width="56" height="220" x="-28" y="-110" transform="matrix(-0.3587 -0.7533 -0.7533 0.3587 238.3257 698.502)" overflow="visible"/>
	
		<use xlink:href="#leaf"  width="56" height="220" x="-28" y="-110" transform="matrix(0.7717 -0.4823 -0.4823 -0.7717 1087.5391 793.0293)" overflow="visible"/>
	
		<use xlink:href="#leaf"  width="56" height="220" x="-28" y="-110" transform="matrix(0.4429 -0.0199 -0.0199 -0.4429 785.124 599.1475)" overflow="visible"/>
	
		<use xlink:href="#leaf"  width="56" height="220" x="-28" y="-110" transform="matrix(0.233 0.5101 0.5101 -0.233 1010.585 312.8892)" overflow="visible"/>
	
		<use xlink:href="#leaf"  width="56" height="220" x="-28" y="-110" transform="matrix(-0.5343 0.5773 0.5773 0.5343 398.6899 198.2339)" overflow="visible"/>
	
		<use xlink:href="#leaf"  width="56" height="220" x="-28" y="-110" transform="matrix(-0.2088 -0.5934 -0.5934 0.2088 1135.208 674.2725)" overflow="visible"/>
	
		<use xlink:href="#leaf"  width="56" height="220" x="-28" y="-110" transform="matrix(0.4988 -0.4647 -0.4647 -0.4988 818.0645 -2.2627)" overflow="visible"/>
	
		<use xlink:href="#leaf"  width="56" height="220" x="-28" y="-110" transform="matrix(0.2352 0.5644 0.5644 -0.2352 59.7432 486.0508)" overflow="visible"/>
	
		<use xlink:href="#leaf"  width="56" height="220" x="-28" y="-110" transform="matrix(0.2396 -0.6242 -0.6242 -0.2396 1078.9883 424.7969)" overflow="visible"/>
	
		<use xlink:href="#leaf"  width="56" height="220" x="-28" y="-110" transform="matrix(0.58 0.0668 0.0668 -0.58 215.4644 270.082)" overflow="visible"/>
	
		<use xlink:href="#leaf"  width="56" height="220" x="-28" y="-110" transform="matrix(0.5026 -0.537 -0.537 -0.5026 986.0918 766.1543)" overflow="visible"/>
	
		<use xlink:href="#leaf"  width="56" height="220" x="-28" y="-110" transform="matrix(-0.5105 -0.5733 -0.5733 0.5105 637.4785 89.1558)" overflow="visible"/>
	
		<use xlink:href="#leaf"  width="56" height="220" x="-28" y="-110" transform="matrix(-0.2269 0.8601 0.8601 0.2269 377.7964 304.8359)" overflow="visible"/>
	
		<use xlink:href="#leaf"  width="56" height="220" x="-28" y="-110" transform="matrix(0.475 0.2108 0.2108 -0.475 117.5972 -126.2095)" overflow="visible"/>
	
		<use xlink:href="#leaf"  width="56" height="220" x="-28" y="-110" transform="matrix(0.5268 0.035 0.035 -0.5268 128.9331 208.8389)" overflow="visible"/>
	
		<use xlink:href="#leaf"  width="56" height="220" x="-28" y="-110" transform="matrix(0.182 -0.8743 -0.8743 -0.182 159.0537 -56.582)" overflow="visible"/>
	
		<use xlink:href="#leaf"  width="56" height="220" x="-28" y="-110" transform="matrix(-0.7388 0.5414 0.5414 0.7388 512.3154 759.4561)" overflow="visible"/>
	
		<use xlink:href="#leaf"  width="56" height="220" x="-28" y="-110" transform="matrix(0.5105 -0.6769 -0.6769 -0.5105 908.2471 630.8359)" overflow="visible"/>
	
		<use xlink:href="#leaf"  width="56" height="220" x="-28" y="-110" transform="matrix(0.5449 -6.539289e-004 -6.539289e-004 -0.5449 181.0195 218.896)" overflow="visible"/>
	
		<use xlink:href="#leaf"  width="56" height="220" x="-28" y="-110" transform="matrix(-0.6186 -0.2543 -0.2543 0.6186 19.5171 307.208)" overflow="visible"/>
	
		<use xlink:href="#leaf"  width="56" height="220" x="-28" y="-110" transform="matrix(-0.6012 0.7129 0.7129 0.6012 -121.124 423.5859)" overflow="visible"/>
	
		<use xlink:href="#leaf"  width="56" height="220" x="-28" y="-110" transform="matrix(0.2474 -0.5172 -0.5172 -0.2474 34.7207 47.9175)" overflow="visible"/>
	
		<use xlink:href="#leaf"  width="56" height="220" x="-28" y="-110" transform="matrix(-0.1918 0.8427 0.8427 0.1918 -161.0981 471.4688)" overflow="visible"/>
	
		<use xlink:href="#leaf"  width="56" height="220" x="-28" y="-110" transform="matrix(0.6518 -0.4465 -0.4465 -0.6518 4.7881 -47.7446)" overflow="visible"/>
	
		<use xlink:href="#leaf"  width="56" height="220" x="-28" y="-110" transform="matrix(-0.3766 -0.5332 -0.5332 0.3766 751.5498 -122.0684)" overflow="visible"/>
	
		<use xlink:href="#leaf"  width="56" height="220" x="-28" y="-110" transform="matrix(0.2843 0.6426 0.6426 -0.2843 571.7827 -77.7368)" overflow="visible"/>
	
		<use xlink:href="#leaf"  width="56" height="220" x="-28" y="-110" transform="matrix(-0.13 0.7682 0.7682 0.13 433.6187 -121.2559)" overflow="visible"/>
	
		<use xlink:href="#leaf"  width="56" height="220" x="-28" y="-110" transform="matrix(0.5358 0.9702 0.9702 -0.5358 413.0972 -253.2251)" overflow="visible"/>
	
		<use xlink:href="#leaf"  width="56" height="220" x="-28" y="-110" transform="matrix(0.6898 0.4445 0.4445 -0.6898 357.3701 133.3218)" overflow="visible"/>
	
		<use xlink:href="#leaf"  width="56" height="220" x="-28" y="-110" transform="matrix(0.3244 0.8119 0.8119 -0.3244 561.6689 -165.6138)" overflow="visible"/>
	
		<use xlink:href="#leaf"  width="56" height="220" x="-28" y="-110" transform="matrix(-0.1091 0.8376 0.8376 0.1091 364.3252 -19.2285)" overflow="visible"/>
	
		<use xlink:href="#leaf"  width="56" height="220" x="-28" y="-110" transform="matrix(0.7718 -0.044 -0.044 -0.7718 809.7461 -182.3521)" overflow="visible"/>
	
		<use xlink:href="#leaf"  width="56" height="220" x="-28" y="-110" transform="matrix(0.7937 0.2833 0.2833 -0.7937 609.543 216.0288)" overflow="visible"/>
	
		<use xlink:href="#leaf"  width="56" height="220" x="-28" y="-110" transform="matrix(0.4587 0.5114 0.5114 -0.4587 9.0142 731.3682)" overflow="visible"/>
	
		<use xlink:href="#leaf"  width="56" height="220" x="-28" y="-110" transform="matrix(1.0768 0.4249 0.4249 -1.0768 -94.6265 728.3252)" overflow="visible"/>
	
		<use xlink:href="#leaf"  width="56" height="220" x="-28" y="-110" transform="matrix(0.4917 0.2381 0.2381 -0.4917 -246.2544 468.6855)" overflow="visible"/>
	
		<use xlink:href="#leaf"  width="56" height="220" x="-28" y="-110" transform="matrix(-0.7411 -0.6303 -0.6303 0.7411 202.8892 469.5752)" overflow="visible"/>
	
		<use xlink:href="#leaf"  width="56" height="220" x="-28" y="-110" transform="matrix(0.529 0.8172 0.8172 -0.529 786.1055 372.9277)" overflow="visible"/>
	
		<use xlink:href="#leaf"  width="56" height="220" x="-28" y="-110" transform="matrix(0.3409 0.5649 0.5649 -0.3409 831.4785 742.4346)" overflow="visible"/>
	
		<use xlink:href="#leaf"  width="56" height="220" x="-28" y="-110" transform="matrix(-0.0995 0.5604 0.5604 0.0995 1202.4922 348.0967)" overflow="visible"/>
	
		<use xlink:href="#leaf"  width="56" height="220" x="-28" y="-110" transform="matrix(0.3204 0.564 0.564 -0.3204 1210.6396 482.4648)" overflow="visible"/>
	
		<use xlink:href="#leaf"  width="56" height="220" x="-28" y="-110" transform="matrix(-0.9296 -0.1014 -0.1014 0.9296 657.0625 -8.2881)" overflow="visible"/>
	
		<use xlink:href="#leaf"  width="56" height="220" x="-28" y="-110" transform="matrix(0.7028 0.7134 0.7134 -0.7028 299.231 34.0103)" overflow="visible"/>
	
		<use xlink:href="#leaf"  width="56" height="220" x="-28" y="-110" transform="matrix(0.4854 0.2645 0.2645 -0.4854 157.2104 785.5225)" overflow="visible"/>
	
		<use xlink:href="#leaf"  width="56" height="220" x="-28" y="-110" transform="matrix(0.8244 0 0 -0.8244 -181.3364 540.0049)" overflow="visible"/>
	
		<use xlink:href="#leaf"  width="56" height="220" x="-28" y="-110" transform="matrix(0.8373 -0.577 -0.577 -0.8373 148.7729 597.5576)" overflow="visible"/>
	
		<use xlink:href="#leaf"  width="56" height="220" x="-28" y="-110" transform="matrix(0.1514 0.5459 0.5459 -0.1514 804.1797 685.8193)" overflow="visible"/>
	
		<use xlink:href="#leaf"  width="56" height="220" x="-28" y="-110" transform="matrix(0.5546 -0.7015 -0.7015 -0.5546 892.7217 554.8848)" overflow="visible"/>
	
		<use xlink:href="#leaf"  width="56" height="220" x="-28" y="-110" transform="matrix(0.7988 -0.1369 -0.1369 -0.7988 1052.543 520.3418)" overflow="visible"/>
	
		<use xlink:href="#leaf"  width="56" height="220" x="-28" y="-110" transform="matrix(0.4368 0.6964 0.6964 -0.4368 1051.752 650.123)" overflow="visible"/>
	
		<use xlink:href="#leaf"  width="56" height="220" x="-28" y="-110" transform="matrix(0.5931 -0.7923 -0.7923 -0.5931 952.8125 458.167)" overflow="visible"/>
	
		<use xlink:href="#leaf"  width="56" height="220" x="-28" y="-110" transform="matrix(0.1894 0.9147 0.9147 -0.1894 682.2402 182.6934)" overflow="visible"/>
	
		<use xlink:href="#leaf"  width="56" height="220" x="-28" y="-110" transform="matrix(0.9988 -0.1702 -0.1702 -0.9988 529.4766 79.0942)" overflow="visible"/>
	
		<use xlink:href="#leaf"  width="56" height="220" x="-28" y="-110" transform="matrix(1.0108 0 0 -1.0108 251.5938 -178.0776)" overflow="visible"/>
	
		<use xlink:href="#leaf"  width="56" height="220" x="-28" y="-110" transform="matrix(0.7567 0 0 -0.7567 342.9644 -156.5498)" overflow="visible"/>
	
		<use xlink:href="#leaf"  width="56" height="220" x="-28" y="-110" transform="matrix(0.8803 0 0 -0.8803 104.7583 122.3198)" overflow="visible"/>
	
		<use xlink:href="#leaf"  width="56" height="220" x="-28" y="-110" transform="matrix(-0.0607 0.7843 0.7843 0.0607 283.0469 223.9956)" overflow="visible"/>
	
		<use xlink:href="#leaf"  width="56" height="220" x="-28" y="-110" transform="matrix(0.9349 0 0 -0.9349 554.2368 553.6973)" overflow="visible"/>
	
		<use xlink:href="#leaf"  width="56" height="220" x="-28" y="-110" transform="matrix(0.7854 0.0702 0.0702 -0.7854 372.5518 394.5181)" overflow="visible"/>
	
		<use xlink:href="#leaf"  width="56" height="220" x="-28" y="-110" transform="matrix(0.6121 0.5727 0.5727 -0.6121 34.0166 402.8223)" overflow="visible"/>
	
		<use xlink:href="#leaf"  width="56" height="220" x="-28" y="-110" transform="matrix(0.5762 0.0959 0.0959 -0.5762 274.3262 413.4355)" overflow="visible"/>
	
		<use xlink:href="#leaf"  width="56" height="220" x="-28" y="-110" transform="matrix(0.6945 0.0653 0.0653 -0.6945 301.8423 515.5791)" overflow="visible"/>
	
		<use xlink:href="#leaf"  width="56" height="220" x="-28" y="-110" transform="matrix(1.0257 0 0 -1.0257 192.5879 22.9546)" overflow="visible"/>
	
		<use xlink:href="#leaf"  width="56" height="220" x="-28" y="-110" transform="matrix(0.8726 0.0988 0.0988 -0.8726 107.3105 392.2886)" overflow="visible"/>
	
		<use xlink:href="#leaf"  width="56" height="220" x="-28" y="-110" transform="matrix(0.5258 0 0 -0.5258 851.4697 123.2773)" overflow="visible"/>
</g>
<g>
	<g>
		<path d="M544.678,1070.203c-6.868-45.916-19.292-91.81-37.174-134.663c-8.157-19.545-17.809-39.103-31.354-55.527
			c-18.469-22.396-37.494-44.335-57.042-65.796c-40.388-44.339-83.278-86.451-128.968-125.322
			c-45.619-38.811-94.506-72.954-144.928-105.188C93.91,550.909,40.846,520.544-15.093,496.331
			c-27.113-11.735-54.939-21.832-83.366-29.892c-29.641-8.404-59.432-12.762-89.968-16.353
			c-26.364-3.101-52.803-6.793-77.826-16.036c-1.509-0.557-3.505,0.053-4.946,0.554c-0.137,0.048-3.539,1.555-2.359,1.991
			c28.237,10.43,58.104,13.912,87.821,17.382c15.209,1.775,30.406,3.664,45.455,6.531c14.856,2.83,29.514,6.945,44.003,11.247
			c58.447,17.351,113.904,43.857,166.86,73.798c52.379,29.614,103.635,62.398,152.075,98.11
			c48.145,35.495,93.163,75.139,135.632,117.221c21.296,21.102,41.9,42.896,61.943,65.188
			c10.287,11.441,20.396,23.044,30.373,34.757c8.153,9.573,16.657,19.032,23.96,29.283c12.917,18.13,22.093,38.937,30.075,59.614
			c8.868,22.974,15.931,46.651,21.854,70.543c4.254,17.162,7.843,34.514,10.458,52.003
			C537.147,1073.588,544.942,1071.966,544.678,1070.203L544.678,1070.203z"/>
	</g>
</g>
<g>
	<g>
		<path d="M543.308,1033.666c-8.943-43.155-18.858-86.567-36.347-127.188c-16.08-37.349-39.606-70.817-71.048-96.796
			c-40.77-33.686-91.255-53.25-142.726-63.333c-29.285-5.736-59.102-8.451-88.867-10.104c-14.772-0.819-29.684-1.779-44.481-1.718
			c-11.271,0.047-22.536,1.177-33.763,2.052c-23.709,1.848-50.948,4.776-73.079-5.951c-21.236-10.294-33.333-32.456-46.388-51.019
			c-13.782-19.596-31.573-36.652-50.924-50.706c-20.742-15.063-45.236-26.133-71.259-25.968
			c-28.522,0.181-56.193,14.073-79.12,29.952c-24.66,17.079-46.066,38.28-68.4,58.172c-1.312,1.168,1.163,1.212,1.794,1.152
			c1.689-0.16,3.87-0.65,5.179-1.816c19.813-17.646,38.89-36.167,60.102-52.169c21.567-16.27,47.673-31.547,75.403-32.252
			c27.315-0.695,53.025,13.228,74.137,29.336c19.673,15.012,36.25,33.005,50.204,53.357c12.53,18.277,25.159,37.989,46.573,46.576
			c21.489,8.617,46.877,6.208,69.401,4.532c11.686-0.87,23.373-2.067,35.099-2.21c14.782-0.179,29.724,0.923,44.481,1.718
			c30.555,1.647,61.065,4.674,91.093,10.682c51.694,10.344,101.813,31.162,142.175,65.603
			c31.464,26.847,53.959,61.756,69.552,99.801c15.819,38.598,25.042,79.643,33.481,120.367
			C535.899,1037.275,543.672,1035.422,543.308,1033.666L543.308,1033.666z"/>
	</g>
</g>
<g>
	<path d="M526.455,962.617c-0.341-5.835-1.497-11.553-3.189-17.11c-1.652-5.569-3.797-10.989-6.188-16.308
		c-4.758-10.654-10.429-20.929-15.979-31.386c-2.749-5.244-5.482-10.533-8.038-15.974c-2.55-5.441-4.939-11.031-6.838-16.935
		l-0.345-1.112l-0.167-0.559l-0.083-0.28c-0.028-0.098,0.101,0.346,0.024,0.096l-0.045-0.13l-0.728-2.091l-1.456-4.181l-2.895-8.393
		c-1.925-5.593-3.789-11.205-5.653-16.817c-14.892-44.911-28.153-90.352-40.095-136.126c-5.907-22.905-11.345-45.932-16.236-69.077
		l-0.076-0.368l-0.023-0.136l-0.047-0.273l-0.093-0.545l-0.188-1.133l-0.354-2.292c-0.218-1.516-0.419-3.03-0.597-4.543
		c-0.354-3.024-0.64-6.041-0.857-9.05c-0.417-6.018-0.622-11.995-0.758-17.936c-0.272-11.877-0.257-23.627-0.944-35.255
		c-0.333-5.813-0.884-11.588-1.753-17.291c-0.88-5.696-2.019-11.367-3.833-16.696c-1.797-5.408-4.216-10.619-7.042-15.623
		c-2.842-4.999-6.148-9.755-9.726-14.323c-7.199-9.118-15.529-17.394-24.11-25.431c-8.589-8.04-17.452-15.878-25.926-24.229
		l0.15,0.138c-28.703-23.741-56.017-49.158-82.326-75.549c-13.142-13.208-26.03-26.664-38.725-40.278
		c-6.322-6.83-12.605-13.691-18.863-20.568c-2.845-3.145-6.119-6.204-9.478-9.163c-3.376-2.961-6.89-5.841-10.47-8.679
		c-14.374-11.323-29.52-22.133-44.247-33.865c-7.36-5.885-14.64-11.994-21.565-18.784c-3.456-3.404-6.812-6.992-9.967-10.907
		c-3.144-3.922-6.118-8.163-8.521-13.074l-0.112-0.23l-0.056-0.115c-0.096-0.219,0.136,0.327-0.229-0.52l-0.164-0.403l-0.339-0.843
		c-0.257-0.657-0.498-1.299-0.715-1.912c-0.444-1.251-0.854-2.527-1.219-3.832c-0.726-2.612-1.274-5.342-1.545-8.179
		c-0.567-5.645,0.13-11.84,2.472-17.396c2.293-5.581,5.988-10.281,10.026-13.981c4.054-3.733,8.45-6.63,12.879-9.115
		c8.883-4.944,17.997-8.27,26.92-11.361l13.224-4.455c4.328-1.458,8.583-2.93,12.503-4.578l-3.987,10.883
		c-2.521-5.125-6.204-9.914-10.545-14.325c-4.328-4.435-9.288-8.516-14.536-12.369c-5.251-3.859-10.809-7.479-16.47-11.069
		c-5.66-3.598-11.451-7.129-17.262-10.774c-5.809-3.648-11.648-7.4-17.371-11.538c-1.43-1.036-2.853-2.096-4.262-3.19l-1.121-0.876
		l-1.006-0.819l-2.038-1.69c-2.695-2.274-5.361-4.623-7.921-7.132c-5.124-4.99-9.938-10.594-13.905-16.741
		c-3.997-6.138-7.059-12.602-9.887-18.835c-2.834-6.25-5.525-12.374-8.419-18.41l-2.204-4.505l-0.281-0.561l-0.204-0.416
		l-0.135-0.289L39.75,9.607l-1.075-2.389l-2.042-4.744c-0.66-1.547-1.304-3.068-1.942-4.334C34.04-3.149,33.463-4,32.891-4.502
		c-0.561-0.524-1.514-1.014-2.846-1.439c-1.314-0.422-2.857-0.766-4.44-1.075c-1.588-0.313-3.229-0.602-4.884-0.879L10.675-9.525
		c-3.421-0.572-6.617-1.084-9.958-1.512c-13.275-1.697-26.579-2.405-40.133-2.775C-52.974-14.218-67-14.37-80-15.005v-1.5
		c13-0.639,26.924-1.584,40.55-2.184c13.621-0.541,27.234-0.864,41.019,0.141c3.423,0.233,6.917,0.59,10.228,0.946l10.141,1.042
		c3.443,0.396,6.823,0.709,10.705,1.698c0.977,0.263,1.994,0.588,3.063,1.057c1.064,0.466,2.18,1.096,3.201,1.902
		c1.024,0.8,1.91,1.75,2.618,2.676c0.712,0.931,1.271,1.838,1.765,2.7c0.975,1.726,1.723,3.308,2.476,4.851l2.211,4.52l1.125,2.209
		l0.569,1.089l0.149,0.281l0.074,0.141c-0.017-0.034,0.091,0.177-0.029-0.06l0.04,0.071l0.318,0.564l2.501,4.539
		c3.305,6.062,6.347,12.266,9.341,18.293c3.013,6.027,6.041,11.769,9.674,16.897c3.613,5.146,7.885,9.767,12.661,14.08
		c2.388,2.151,4.859,4.256,7.423,6.287l1.929,1.511l0.992,0.763l0.907,0.667c1.302,0.954,2.631,1.888,3.979,2.809
		c5.397,3.681,11.096,7.132,16.894,10.552c11.604,6.841,23.651,13.503,35.217,21.665c5.778,4.083,11.458,8.538,16.727,13.738
		c5.23,5.21,10.08,11.23,13.651,18.281l3.822,7.546l-7.809,3.338c-9.221,3.941-18.11,6.591-26.753,9.61
		c-8.602,2.985-16.978,6.15-24.374,10.186c-3.676,2.023-7.078,4.289-9.874,6.838c-2.796,2.553-4.96,5.339-6.259,8.346
		c-1.314,3.001-1.795,6.299-1.514,9.885c0.141,1.789,0.47,3.635,0.956,5.503c0.246,0.934,0.531,1.874,0.847,2.816
		c0.163,0.484,0.323,0.931,0.48,1.358l0.298,0.777l0.158,0.406c-0.339-0.779-0.072-0.169-0.138-0.322l0.038,0.081l0.076,0.162
		c1.619,3.467,3.917,6.942,6.528,10.295c2.615,3.36,5.563,6.611,8.659,9.782c6.209,6.344,13.044,12.341,20.069,18.191
		c7.035,5.85,14.288,11.55,21.589,17.276c7.306,5.724,14.66,11.474,21.894,17.527c3.618,3.026,7.209,6.126,10.73,9.381
		c3.506,3.284,6.997,6.618,10.224,10.501c5.975,7.092,11.969,14.162,17.999,21.197c12.008,14.116,24.131,28.12,36.549,41.854
		c12.426,13.724,25.092,27.237,38.264,40.248c3.287,3.258,6.597,6.494,9.931,9.705c3.347,3.197,6.732,6.353,10.136,9.489
		c6.823,6.254,13.698,12.457,20.765,18.438l0.088,0.073l0.063,0.064c8.224,8.341,17.019,16.189,25.676,24.263
		c8.652,8.072,17.24,16.358,24.883,25.621c7.65,9.22,14.295,19.548,18.682,30.975c2.265,5.76,3.731,11.649,4.94,17.562
		c1.192,5.919,2.039,11.875,2.74,17.818c1.379,11.894,2.039,23.754,2.958,35.449c0.461,5.847,0.986,11.653,1.707,17.384
		c0.35,2.866,0.743,5.713,1.206,8.532c0.231,1.41,0.482,2.812,0.748,4.207l0.416,2.066l0.409,1.891l17.923,68.374
		c11.839,45.602,24.261,91.05,37.341,136.325l4.946,16.967l2.493,8.473l1.262,4.243l0.631,2.122l0.143,0.493l0.063,0.254
		l0.126,0.508l0.261,1.017c2.864,10.882,7.672,21.604,12.508,32.307c4.811,10.745,9.846,21.544,13.872,32.813
		c1.986,5.64,3.723,11.396,4.943,17.278c1.171,5.882,1.854,11.915,1.52,17.894L526.455,962.617z"/>
</g>
<g>
	<path d="M550.563,942.014c1.433-14.826,2.78-29.659,3.856-44.506c1.109-14.842,1.964-29.698,2.313-44.555
		c0.331-14.855,0.241-29.711-0.608-44.512c-0.842-14.8-2.421-29.542-4.899-44.118c-4.858-29.169-13.451-57.635-25.512-84.555
		c-11.973-26.968-27.456-52.255-43.841-76.99c-8.198-12.368-16.651-24.603-25.061-36.915c-8.402-12.317-16.711-24.75-24.665-37.463
		c-7.948-12.713-15.513-25.73-22.335-39.181c-6.828-13.442-12.904-27.322-17.953-41.597c-2.522-7.137-4.812-14.363-6.782-21.68
		l-0.729-2.746l-0.179-0.687l-0.197-0.805l-0.316-1.36l-1.253-5.475l-2.413-10.968c-3.132-14.643-5.929-29.365-8.336-44.156
		c-4.818-29.581-8.083-59.448-9.475-89.429c-2.694-59.963,2.407-120.321,15.258-178.933c0.805-3.663,1.638-7.319,2.499-10.968
		l0.621-2.729c0.23-0.96,0.468-1.909,0.725-2.857c0.513-1.896,1.075-3.779,1.702-5.641c2.49-7.455,5.906-14.573,9.961-21.204
		c8.13-13.312,18.604-24.546,28.879-35.339c10.306-10.792,20.535-21.348,28.91-33.123c2.098-2.935,4.078-5.939,5.917-9.02
		c0.918-1.541,1.8-3.101,2.646-4.679c0.076-0.14-0.083,0.185,0.054-0.104l0.148-0.316l0.297-0.632l0.565-1.229l1.08-2.448
		c2.825-6.619,5.116-13.516,6.997-20.539c3.748-14.059,5.882-28.618,6.648-43.222c0.729-14.603,0.084-29.315-2.446-43.639
		c-2.499-14.303-7.549-28.068-14.822-40.681c-7.237-12.646-16.612-24.053-26.82-34.686c-10.204-10.666-21.272-20.595-32.214-30.727
		c-10.933-10.132-21.816-20.482-31.447-32.005c-9.635-11.483-18.009-24.168-23.819-38.009c-5.834-13.825-9.029-28.638-9.926-43.497
		c1.449,14.819,5.185,29.407,11.446,42.826c6.173,13.469,14.768,25.673,24.606,36.687c9.858,11.028,20.83,21.021,31.995,30.834
		c11.162,9.822,22.542,19.511,33.212,30.107c10.642,10.59,20.56,22.187,28.411,35.267c7.875,13.03,13.535,27.541,16.46,42.534
		c2.988,14.962,3.825,30.198,3.296,45.336c-0.578,15.142-2.561,30.247-6.272,45.031c-1.865,7.388-4.17,14.695-7.09,21.82
		l-1.136,2.678l-0.583,1.317l-0.288,0.636l-0.144,0.318c0.043-0.075-0.218,0.458-0.255,0.522c-0.889,1.716-1.815,3.412-2.779,5.083
		c-1.929,3.342-4.004,6.59-6.191,9.745c-8.777,12.633-19.313,23.602-29.45,34.429c-10.14,10.819-19.991,21.667-27.307,33.911
		c-3.658,6.104-6.663,12.527-8.835,19.221c-0.547,1.672-1.035,3.362-1.48,5.064c-0.223,0.85-0.43,1.709-0.626,2.561l-0.594,2.722
		c-0.817,3.605-1.607,7.217-2.369,10.833c-6.108,28.93-10.536,58.209-12.935,87.665c-2.43,29.452-2.891,59.056-1.524,88.582
		c1.287,29.532,4.419,58.989,9.093,88.214c2.335,14.614,5.056,29.17,8.113,43.662l2.355,10.856l1.224,5.417l0.312,1.361l0.078,0.34
		c-0.033-0.13,0.04,0.154,0.055,0.212l0.171,0.664l0.696,2.653c1.902,7.064,4.014,14.075,6.406,20.997
		c9.503,27.736,23.173,53.962,38.656,79.142c7.723,12.614,15.902,24.994,24.119,37.394c8.212,12.402,16.516,24.795,24.594,37.371
		c8.081,12.572,15.936,25.333,23.285,38.406c7.382,13.062,14.14,26.542,19.977,40.398c11.74,27.689,19.954,56.879,24.238,86.58
		c4.28,29.719,4.856,59.785,3.229,89.58c-0.812,14.907-2.109,29.769-3.698,44.588C554.438,912.475,552.542,927.251,550.563,942.014z
		"/>
</g>
<g>
	<path d="M557.551,966.701c0.994-24.573,4.604-48.974,9.18-73.105c4.606-24.141,10.179-48.063,15.245-72.054
		c5.07-23.983,9.648-48.068,12.336-72.356c1.346-12.14,2.217-24.321,2.46-36.506c0.073-3.159,0.19-6.099,0.18-9.154
		c0.005-3.032-0.053-6.066-0.165-9.102c-0.226-6.07-0.663-12.141-1.251-18.201c-2.35-24.26-6.924-48.332-11.536-72.411
		c-4.632-24.085-9.459-48.216-12.794-72.69c-1.66-12.234-2.947-24.554-3.532-36.957c-0.582-12.398-0.472-24.89,0.794-37.35
		c1.262-12.448,3.72-24.88,7.859-36.849c2.023-5.976,4.661-11.867,7.556-17.44c2.91-5.603,6.159-11.012,9.67-16.229
		c7.023-10.439,15.086-20.092,23.739-29.097c8.664-9.001,17.924-17.363,27.534-25.242c19.228-15.767,39.786-29.669,60.765-42.679
		c21.037-12.929,42.543-24.952,63.893-36.971l2.003-1.123l2.107-1.139c1.221-0.681,2.484-1.404,3.736-2.166
		c2.497-1.513,4.944-3.127,7.343-4.827c4.801-3.396,9.384-7.153,13.824-11.107c8.87-7.934,17.038-16.787,24.748-26.072
		c7.745-9.265,15.035-18.984,22.103-28.908c3.534-4.963,7.012-9.979,10.467-15.026l5.172-7.59l2.588-3.803l1.3-1.9l0.163-0.237
		c-0.118,0.187,0.056-0.087,0.069-0.109l0.31-0.485l0.616-0.967c6.443-10.174,12.277-20.816,17.575-31.72
		c5.289-10.917,10.106-22.094,14.611-33.427c8.969-22.687,16.719-45.967,25.075-69.092c8.411-23.088,17.464-46.109,29.215-67.744
		c0.146-0.267,0.479-0.366,0.746-0.221c0.256,0.139,0.356,0.452,0.238,0.713c-10.224,22.295-18.139,45.478-25.439,68.862
		c-7.366,23.368-14.199,46.983-22.598,70.218c-8.302,23.251-18.333,46.082-31.172,67.525l-0.596,0.989l-0.297,0.492l-0.393,0.62
		l-1.251,1.929l-2.516,3.855l-5.063,7.708c-3.391,5.137-6.818,10.264-10.316,15.357c-6.998,10.186-14.273,20.243-22.108,29.944
		c-7.873,9.664-16.298,18.989-25.646,27.513c-4.667,4.267-9.61,8.277-14.813,11.99c-2.604,1.853-5.277,3.625-8.025,5.296
		c-1.368,0.834-2.765,1.64-4.222,2.453l-1.94,1.051l-2.009,1.131c-21.465,11.976-42.953,23.665-63.833,36.287
		c-20.916,12.528-41.332,25.862-60.295,40.96c-18.89,15.108-36.474,32.015-50.136,51.713c-3.396,4.925-6.531,10.017-9.336,15.275
		c-2.814,5.286-5.269,10.596-7.25,16.225c-4.013,11.194-6.496,22.973-7.841,34.915c-1.35,11.95-1.601,24.066-1.167,36.183
		c0.436,12.12,1.562,24.248,3.066,36.349c3.022,24.209,7.555,48.293,11.922,72.452c4.345,24.16,8.685,48.434,10.796,73.08
		c0.509,6.161,0.866,12.342,1.008,18.538c0.069,3.098,0.084,6.199,0.034,9.302c-0.032,3.081-0.202,6.272-0.313,9.245
		c-0.423,12.35-1.482,24.659-3.017,36.891c-3.065,24.475-8.017,48.608-13.439,72.561c-5.421,23.959-11.323,47.773-16.27,71.783
		c-4.966,23.991-8.966,48.228-10.367,72.708c-0.018,0.304-0.277,0.535-0.581,0.518C557.769,967.259,557.539,967,557.551,966.701z"/>
</g>
<g>
	<path d="M651.393,327.103c10.207-5.992,20.453-11.954,30.826-17.749c10.376-5.787,20.882-11.424,31.703-16.563
		c10.814-5.138,21.988-9.735,33.514-13.322c11.518-3.611,23.33-6.179,35.159-8.024c11.836-1.852,23.694-3.055,35.531-4.03
		c11.839-0.967,23.665-1.699,35.483-2.374l4.431-0.249l4.379-0.309c2.982-0.201,5.977-0.362,8.984-0.459
		c6.015-0.19,12.089-0.125,18.179,0.464c6.083,0.589,12.194,1.715,18.108,3.682c5.91,1.955,11.6,4.793,16.666,8.499
		c1.268,0.924,2.497,1.898,3.684,2.92l1.714,1.517c0.654,0.599,1.205,1.153,1.77,1.747c2.22,2.361,4.086,4.917,5.746,7.539
		c3.311,5.256,5.874,10.767,8.195,16.313c4.595,11.113,8.197,22.43,11.913,33.645c3.708,11.209,7.404,22.389,12.001,33.099
		c2.309,5.341,4.847,10.569,7.861,15.434c3.012,4.845,6.526,9.379,10.847,12.737c2.155,1.67,4.511,3.012,7.019,3.884
		c0.629,0.209,1.261,0.411,1.906,0.562l0.241,0.061c0.01,0.004,0.147,0.035,0.053,0.016l0.136,0.026l0.539,0.105
		c0.28,0.041,0.559,0.089,0.884,0.119c1.255,0.137,2.548,0.101,3.849-0.067c5.241-0.724,10.383-3.454,15.113-6.617
		c4.756-3.205,9.218-6.967,13.522-10.909c4.304-3.952,8.446-8.115,12.517-12.36c8.143-8.497,15.972-17.346,24.059-26.02
		c4.05-4.332,8.159-8.629,12.512-12.73c2.179-2.048,4.422-4.045,6.795-5.926c2.378-1.871,4.874-3.651,7.697-5.062l0.063-0.032
		l0.054-0.021c5.712-2.278,11.655-4.221,17.932-4.938c3.13-0.344,6.353-0.347,9.523,0.24c3.17,0.57,6.25,1.783,8.958,3.514
		c2.719,1.725,5.063,3.912,7.132,6.252c2.069,2.348,3.889,4.853,5.61,7.391c3.428,5.088,6.516,10.303,9.858,15.328
		c3.326,5.031,6.884,9.89,10.865,14.383c1.987,2.262,4.07,4.384,6.285,6.432c2.2,2.057,4.461,4.049,6.793,5.95
		c4.661,3.8,9.605,7.26,14.884,10.11c5.27,2.849,10.89,5.077,16.743,6.292c5.844,1.227,11.909,1.391,17.807,0.396
		c5.903-0.979,11.604-3.078,16.902-5.911c5.307-2.834,10.233-6.373,14.828-10.289c4.597-3.92,8.872-8.22,12.918-12.724
		c8.086-9.024,15.276-18.829,22.115-28.846c6.835-10.028,13.293-20.312,19.818-30.547c-6.406,10.311-12.743,20.668-19.467,30.784
		c-6.728,10.105-13.814,20.011-21.833,29.172c-4.012,4.573-8.264,8.952-12.859,12.964c-4.594,4.008-9.542,7.653-14.916,10.604
		c-5.364,2.949-11.181,5.175-17.254,6.254c-6.065,1.096-12.347,1.001-18.396-0.196c-6.059-1.185-11.87-3.414-17.304-6.27
		c-5.443-2.857-10.529-6.333-15.318-10.144c-2.396-1.906-4.715-3.904-6.973-5.965c-2.268-2.047-4.467-4.235-6.513-6.511
		c-4.126-4.549-7.813-9.469-11.24-14.521c-3.439-5.045-6.604-10.246-10.019-15.187c-3.417-4.9-7.163-9.658-12.046-12.687
		c-2.426-1.508-5.111-2.528-7.922-3.003c-2.811-0.486-5.725-0.459-8.617-0.107c-5.802,0.728-11.498,2.641-17.013,4.919l0.116-0.053
		c-2.458,1.261-4.792,2.948-7.031,4.756c-2.239,1.818-4.395,3.779-6.498,5.804c-4.206,4.056-8.224,8.354-12.195,12.704
		c-7.938,8.712-15.676,17.667-23.793,26.339c-4.061,4.334-8.211,8.605-12.568,12.702c-4.362,4.087-8.915,8.029-13.927,11.496
		c-2.509,1.727-5.139,3.33-7.957,4.677c-2.818,1.333-5.841,2.43-9.101,2.902c-1.627,0.23-3.308,0.305-4.994,0.142
		c-0.411-0.034-0.863-0.099-1.313-0.168l-0.551-0.102l-0.353-0.073l-0.298-0.069c-0.796-0.179-1.577-0.414-2.352-0.664
		c-3.094-1.034-5.953-2.634-8.489-4.553c-5.083-3.87-8.949-8.826-12.229-13.95c-3.274-5.152-5.97-10.563-8.415-16.04
		c-4.859-10.972-8.719-22.231-12.566-33.417c-3.847-11.179-7.565-22.375-12.136-33.067c-2.299-5.326-4.818-10.541-7.871-15.258
		c-1.526-2.353-3.199-4.566-5.054-6.492c-0.458-0.472-0.958-0.959-1.398-1.353l-1.622-1.402c-1.063-0.895-2.162-1.744-3.292-2.549
		c-4.52-3.223-9.563-5.672-14.893-7.369c-5.331-1.705-10.931-2.68-16.613-3.164c-5.688-0.484-11.46-0.485-17.257-0.233
		c-2.898,0.127-5.806,0.318-8.719,0.548l-4.462,0.366l-4.418,0.3c-11.778,0.811-23.544,1.678-35.26,2.772
		c-11.713,1.102-23.379,2.427-34.885,4.365c-11.506,1.933-22.832,4.54-33.841,8.132c-11.017,3.57-21.714,8.112-32.192,13.241
		c-10.48,5.126-20.759,10.792-30.962,16.641c-10.201,5.856-20.323,11.904-30.437,18L651.393,327.103z"/>
</g>
<g>
	<g>
		<path d="M597.161,385.808c23.243,14.374,45.063,30.981,71.311,39.629c27.567,9.083,56.235,11.414,84.962,7.624
			c27.996-3.693,54.952-12.7,81.417-22.223c13.857-4.986,27.631-10.206,41.53-15.078c10.203-3.577,20.173-7.036,31.127-6.639
			c18.156,0.657,34.035,11.233,47.209,22.896c15.005,13.283,27.844,28.848,41.507,43.452c13.335,14.253,27.677,28.178,44.957,37.564
			c26.31,14.292,53.834,25.574,81.905,35.902c18.953,6.973,38.023,13.623,56.84,20.964c18.617,7.263,36.535,16.184,56.346,19.823
			c15.078,2.77,30.075,2.452,45.121-0.287c14.286-2.601,28.104-7.327,42.12-11.03c4.729-1.25,3.447-6.014-1.277-4.766
			c-20.095,5.31-39.8,12.396-60.789,12.948c-28.127,0.741-53.101-12.216-78.601-22.163c-27.789-10.841-56.14-20.174-83.835-31.262
			c-24.142-9.665-49.456-20.221-69.989-36.504c-30.844-24.46-51.509-60.564-85.182-81.635c-15.086-9.44-32.146-13.002-49.672-9.818
			c-12.45,2.262-24.602,7.7-36.445,12.018c-13.823,5.04-27.597,10.211-41.524,14.957c-35.666,12.153-72.813,20.969-110.67,16.078
			c-19.448-2.513-38.795-8.642-56.131-17.773c-16.075-8.467-30.778-19.329-46.208-28.871
			C600.579,380,593.633,383.625,597.161,385.808L597.161,385.808z"/>
	</g>
</g>
<g>
	<path d="M534.092,1011.481c1.133-10.443,2.532-20.899,4.116-31.281c1.585-10.39,3.359-20.737,5.255-31.05
		c3.793-20.626,8.071-41.111,12.341-61.562l-0.059,0.38c1.225-10.438,1.883-21.119,2.654-31.801
		c0.756-10.692,1.556-21.428,2.731-32.163c1.182-10.733,2.708-21.479,5.085-32.128c2.41-10.622,5.586-21.244,10.883-31.133
		c2.656-4.907,5.904-9.663,9.966-13.71c4.026-4.043,8.635-7.362,13.437-10.15c9.647-5.566,19.97-9.175,30.121-12.641
		c5.085-1.727,10.154-3.397,15.138-5.204c2.491-0.902,4.96-1.841,7.393-2.84c1.218-0.498,2.422-1.018,3.617-1.551l1.783-0.816
		l1.842-0.873c4.699-2.113,9.081-4.83,13.012-8.13c3.932-3.295,7.385-7.167,10.374-11.408c5.998-8.502,10.144-18.317,14.004-28.238
		c3.863-9.938,7.458-20.123,12.336-29.831c2.438-4.847,5.203-9.563,8.44-13.964c3.229-4.402,6.944-8.474,11.11-12.021
		c8.444-6.866,17.441-12.633,25.778-19.259c4.157-3.309,8.148-6.819,11.679-10.745c3.525-3.92,6.585-8.27,8.77-13.055
		c1.096-2.388,1.977-4.874,2.632-7.422c0.313-1.264,0.615-2.592,0.777-3.839c0.158-1.295,0.234-2.61,0.243-3.92
		c0.038-5.251-1.284-10.469-3.596-15.217c-2.298-4.769-5.472-9.093-8.918-13.153c-3.453-4.068-7.202-7.891-10.878-11.789
		c-3.663-3.902-7.312-7.873-10.287-12.354c-1.478-2.239-2.771-4.616-3.685-7.143c-0.917-2.521-1.425-5.198-1.398-7.878
		c0.021,2.68,0.575,5.337,1.53,7.829c0.953,2.496,2.279,4.834,3.787,7.034c3.035,4.4,6.735,8.289,10.461,12.12
		c3.737,3.827,7.561,7.589,11.111,11.626c3.544,4.031,6.845,8.355,9.291,13.208c2.458,4.828,3.939,10.232,3.995,15.709
		c0.014,1.368-0.04,2.73-0.182,4.097c-0.162,1.409-0.439,2.701-0.743,4.041c-0.632,2.65-1.5,5.246-2.594,7.745
		c-2.18,5.007-5.276,9.573-8.834,13.67c-3.563,4.106-7.581,7.764-11.739,11.193c-8.317,6.848-17.289,12.841-25.348,19.637
		c-7.901,6.929-13.814,15.836-18.36,25.347c-4.583,9.531-7.965,19.652-11.678,29.734c-3.72,10.06-7.771,20.248-13.987,29.413
		c-3.098,4.564-6.752,8.823-10.969,12.484c-4.206,3.665-8.962,6.725-13.987,9.092l-1.772,0.877l-1.853,0.888
		c-1.24,0.577-2.485,1.14-3.737,1.676c-2.503,1.078-5.023,2.085-7.551,3.05c-5.053,1.928-10.127,3.695-15.152,5.497
		c-10.029,3.604-19.982,7.317-28.832,12.637c-4.408,2.658-8.503,5.736-11.979,9.349c-3.476,3.58-6.272,7.805-8.635,12.343
		c-4.691,9.104-7.583,19.25-9.722,29.517c-2.118,10.297-3.438,20.814-4.42,31.384c-0.978,10.574-1.592,21.215-2.166,31.897
		c-0.593,10.688-1.065,21.407-2.151,32.264l-0.015,0.15l-0.044,0.23c-3.923,20.519-7.842,41.006-11.26,61.535
		c-1.708,10.265-3.292,20.539-4.684,30.826c-1.393,10.295-2.592,20.572-3.538,30.916L534.092,1011.481z"/>
</g>
<g>
	<path d="M539.95,960.218l-1.803-4.258c-0.625-1.491-1.23-2.966-1.814-4.421c-1.182-2.924-2.324-5.862-3.43-8.812
		c-2.217-5.896-4.292-11.836-6.231-17.81c-3.885-11.944-7.236-24.017-10.141-36.15c-5.814-24.275-9.855-48.773-12.889-73.232
		c-6.054-48.944-8.175-97.712-11.745-145.978c-1.781-24.134-3.901-48.159-7.045-71.975c-3.144-23.809-7.305-47.419-13.192-70.542
		l-4.511-17.67c-1.501-5.91-3.005-11.888-4.35-17.999c-1.343-6.108-2.518-12.363-3.29-18.753c-0.777-6.386-1.133-12.9-0.967-19.393
		c0.31-13.015,2.719-25.751,6.175-37.86l0.659-2.27l0.214-0.72l0.175-0.542l0.353-1.093l1.438-4.383l2.936-8.703l5.974-17.26
		c7.943-22.902,15.637-45.699,20.004-69.019c2.176-11.641,3.487-23.392,3.468-35.104c-0.014-11.695-1.39-23.391-4.4-34.599
		c-3.017-11.188-7.894-21.909-13.853-32.133c-5.954-10.241-12.942-20.014-20.113-29.775c-7.17-9.765-14.549-19.544-21.283-29.896
		c-3.364-5.174-6.563-10.493-9.464-15.997c-1.45-2.752-2.826-5.55-4.109-8.395c-0.642-1.422-1.261-2.856-1.854-4.301l-1.748-4.232
		c-4.738-11.66-7.296-24.135-7.903-36.577c-0.632-12.46,0.577-24.855,2.729-36.954c2.159-12.112,5.25-23.965,8.595-35.685
		c1.674-5.861,3.417-11.692,5.159-17.515l0.082-0.273l0.055-0.2l0.143-0.552l0.295-1.117l0.62-2.232
		c0.425-1.481,0.874-2.955,1.344-4.419c0.943-2.93,1.972-5.826,3.068-8.691c4.396-11.465,9.847-22.415,15.495-33.195
		c5.655-10.782,11.542-21.406,16.982-32.248c5.43-10.837,10.441-21.913,14.085-33.479c3.646-11.539,5.833-23.636,5.506-35.805
		c0.631,12.157-1.258,24.369-4.638,36.066c-3.375,11.724-8.142,22.996-13.322,34.01c-5.19,11.02-10.823,21.807-16.189,32.689
		c-5.361,10.878-10.487,21.868-14.518,33.216c-1.005,2.836-1.94,5.692-2.789,8.57c-0.423,1.439-0.824,2.883-1.201,4.333
		l-0.546,2.173l-0.26,1.094l-0.128,0.555l-0.087,0.352l-0.075,0.275c-1.597,5.863-3.19,11.719-4.709,17.584
		c-3.035,11.728-5.79,23.505-7.602,35.381c-1.809,11.864-2.659,23.851-1.762,35.671c0.874,11.81,3.574,23.414,8.26,34.177
		l1.835,4.149c0.595,1.351,1.214,2.692,1.855,4.024c1.282,2.664,2.655,5.289,4.103,7.878c2.896,5.178,6.093,10.21,9.477,15.142
		c6.771,9.868,14.278,19.329,21.736,28.969c7.455,9.64,14.891,19.486,21.43,30.11c6.537,10.601,12.134,22.053,15.758,34.273
		c3.604,12.194,5.389,24.808,5.721,37.407c0.333,12.602-0.765,25.147-2.747,37.445c-3.99,24.631-11.357,48.25-18.748,71.432
		l-5.523,17.34l-2.678,8.642l-1.297,4.313l-0.321,1.084l-0.162,0.546c-0.038,0.126,0.039-0.117-0.027,0.111l-0.071,0.266
		l-0.559,2.121c-2.929,11.323-4.748,22.726-4.733,34.042c-0.035,11.324,1.873,22.575,4.718,34.031
		c1.41,5.727,3.013,11.501,4.65,17.331l4.945,17.543c6.706,23.842,11.593,48.085,15.417,72.378
		c3.824,24.301,6.581,48.666,8.982,72.962c4.799,48.582,8.137,96.984,15.218,144.415c7.048,47.374,18.012,93.85,37.703,136.423
		L539.95,960.218z"/>
</g>
<g>
	<g>
		<path d="M508.948,972.51c-0.241-28.329-12.176-54.366-23.472-79.766c-5.681-12.774-11.667-25.713-15.446-39.209
			c-3.736-13.348-7.035-26.816-10.273-40.293c-12.933-53.828-24.225-109.917-53.139-157.929
			c-29.583-49.122-55.345-99.871-73.021-154.568c-8.527-26.387-15.39-53.47-19.955-80.829c-2.979-17.854-4.347-36.627-11.523-53.444
			c-14.244-33.377-53.158-38.664-84.547-45.719c-16.752-3.766-33.6-8.082-49.055-15.736c-13.463-6.667-25.844-16.708-29.325-31.974
			c-1.14-5-1.034-10.203-0.338-15.254c0.215-1.562-17.632-0.308-18.353,4.918c-5.015,36.379,33.119,51.689,61.746,59.756
			c15.456,4.355,31.271,7.168,46.86,10.962c17.232,4.194,35.375,10.771,46.916,24.945c10.761,13.216,13.675,30.964,16.268,47.293
			c3.934,24.777,8.521,49.214,15.082,73.462c14.921,55.155,38.137,107.597,66.55,157.077c7.052,12.28,14.845,24.146,21.479,36.659
			c6.405,12.082,11.72,24.722,16.457,37.539c9.783,26.473,16.656,53.94,23.246,81.347c6.486,26.977,11.576,54.915,21.452,80.904
			c9.999,26.312,24.075,51.061,30.777,78.57c2.092,8.584,3.185,17.374,3.26,26.205C490.616,979.833,508.989,977.302,508.948,972.51
			L508.948,972.51z"/>
	</g>
</g>
<g>
	<g>
		<path d="M484.23,890.121c-21.401-87.365-74.599-161.108-143.003-218.216c-69.168-57.746-150.994-98.88-234.003-132.743
			c-41.831-17.064-84.514-31.647-126.977-47.013c-24.387-8.824-48.565-18.206-71.333-30.725
			c-11.871-6.527-23.227-13.948-34.144-21.962c-8.211-6.027-16.132-11.807-25.247-16.46c-15.248-7.784-31.96-13.2-49.077-14.507
			c-17.202-1.313-37.095,2.828-49.832,15.133c-3.02,2.918,2.651,3.205,4.351,3.069c3.988-0.317,9.287-1.511,12.277-4.399
			c12.854-12.419,35.94-4.836,51.74,1.084c21.704,8.132,38.45,23.285,57.765,35.526c42.382,26.861,91.286,41.297,138.194,58.032
			c84.157,30.024,167.34,65.011,242.886,113.181c74.442,47.467,141.371,109.479,180.807,189.554
			c11.831,24.021,20.875,49.364,27.244,75.363C466.89,899.17,485.287,894.434,484.23,890.121L484.23,890.121z"/>
	</g>
</g>
<g>
	<g>
		<path d="M497.246,914.839c-6.203-21.294-17.787-40.487-30.908-58.198c-15.006-20.255-32.659-38.508-51.155-55.577
			c-18.496-17.068-38.166-32.862-58.47-47.721c-18.425-13.483-37.384-26.794-57.762-37.174
			c-47.545-24.22-101.602-34.305-154.403-38.343c-25.78-1.971-52.731-3.572-78.491-0.736c-10.907,1.2-21.555,3.686-32.313,5.75
			c-8.144,1.563-15.869,2.552-24.057-0.006c-13.249-4.141-23.324-16.591-30.979-27.585c-7.725-11.094-14.184-23.021-21.466-34.4
			c-7.12-11.127-15.049-21.999-25.408-30.337c-11.32-9.111-24.933-12.972-39.295-13.12c-3.927-0.041-9.486,1.612-12.229,4.581
			c-2.965,3.21,2.574,3.741,4.536,3.761c40.129,0.415,57.373,48.781,76.705,76.148c11.523,16.311,26.226,30.36,47.239,30.922
			c21.556,0.575,42.25-7.843,63.816-8.309c52.877-1.14,106.672,3.638,157.608,18.361c24.839,7.18,49.179,17.03,71.059,30.916
			c19.205,12.188,37.778,25.382,55.751,39.317c26.616,20.637,51.963,43.17,74.361,68.362c20.241,22.767,38.892,48.728,47.508,78.305
			C480.33,924.687,498.635,919.607,497.246,914.839L497.246,914.839z"/>
	</g>
</g>
<g>
	<g>
		<path d="M542.491,1051.832c7.023-40.109,19.165-79.143,25.318-119.419c6.129-40.117,2.999-80.712,0.248-120.994
			c-5.646-82.674-16.698-165.499-38.568-245.55c-5.354-19.596-11.868-38.75-18.28-58.011c-6.835-20.534-11.849-41.643-16.128-62.84
			c-8.602-42.607-13.693-85.834-22.088-128.482c-7.775-39.502-19.01-77.202-36.924-113.331
			c-16.635-33.548-36.932-65.114-54.824-97.979c-9.047-16.618-17.361-33.629-24.438-51.184
			c-6.732-16.698-10.105-34.752-12.31-52.552c-4.653-37.57-2.761-76.623,5.954-113.472c8.839-37.375,27.725-71.519,31.066-110.247
			c2.817-32.652-5.296-65.66,1.781-98.04c2.599-11.891,7.896-22.741,16.381-31.513c3.053-3.156-2.615-4.152-4.622-4.083
			c-4.22,0.145-9.193,1.552-12.206,4.667c-23.089,23.87-21.724,59.207-20.187,90.052c0.858,17.213,1.844,34.259-0.415,51.417
			c-2.459,18.682-8.695,36.568-15.098,54.196c-6.508,17.916-12.792,35.812-16.732,54.499c-3.765,17.858-5.572,36.108-6.318,54.325
			c-1.511,36.874,1.974,75.539,16.083,109.92c28.668,69.859,78.174,129.287,100.798,201.916
			c25.684,82.451,25.658,170.625,53.536,252.581c26.703,78.501,41.826,159.712,50.356,242.088
			c4.159,40.16,6.708,80.481,8.171,120.825c1.522,41.977-8.281,82.829-17.944,123.349c-4.008,16.807-7.841,33.65-10.822,50.674
			C523.281,1060.333,541.577,1057.05,542.491,1051.832L542.491,1051.832z"/>
	</g>
</g>
<g>
	<path d="M328.748-8.685c-11.392-7.714-23.082-15.267-34.712-22.936c-11.641-7.661-23.264-15.407-34.766-23.356
		c-22.98-15.92-45.612-32.538-66.66-51.202c-10.489-9.357-20.596-19.232-29.649-30.123c-4.515-5.449-8.758-11.16-12.478-17.243
		c-3.711-6.063-6.908-12.582-9.012-19.426c-2.109-6.788-3.604-13.576-5.33-20.29c-1.711-6.708-3.552-13.367-6.086-19.755
		c-2.542-6.348-5.778-12.551-10.653-17.38c-2.428-2.397-5.281-4.391-8.458-5.717c-3.171-1.339-6.628-2.001-10.101-2.093
		c3.472-0.095,6.994,0.376,10.305,1.568c3.316,1.177,6.376,3.073,9.022,5.418c5.317,4.727,9.001,10.96,11.954,17.314
		c2.946,6.398,5.179,13.066,7.266,19.724c2.094,6.65,3.967,13.366,6.337,19.744c2.333,6.346,5.632,12.243,9.479,17.834
		c3.844,5.586,8.204,10.841,12.837,15.855c9.287,10.023,19.634,19.105,30.37,27.688c21.544,17.123,44.688,32.279,68.232,46.774
		c11.787,7.24,23.707,14.287,35.694,21.28c11.984,7.007,24.049,13.907,36.097,21.148L328.748-8.685z"/>
</g>
<g>
	<g>
		<path d="M542.886,1074.71c-11.083-27.335-15.081-57.075-13.425-86.438c0.886-15.719,2.077-31.122,1.208-46.895
			c-0.896-16.249-3.583-32.361-7.84-48.061c-13.595-50.135-36.124-98.25-67.376-139.797c-15.478-20.577-33.36-39.26-52.814-56.101
			c-6.147-5.321-19.416-1.356-25.808,1.116c-3.128,1.21-17.459,7.883-11.277,13.235c38.669,33.474,69.392,74.066,91.177,120.324
			c11.409,24.225,20.744,49.77,27.52,75.679c4.106,15.7,6.244,31.867,7.013,48.06c0.743,15.63-0.839,30.969-1.587,46.541
			c-1.353,28.13,3.013,56.816,13.608,82.947c2.834,6.99,16.825,3.795,21.877,2.441
			C528.739,1086.804,545.603,1081.408,542.886,1074.71L542.886,1074.71z"/>
	</g>
</g>
<g>
	<g>
		<path d="M1115.19,523.599c23.498-0.219,45.258-8.558,64.717-21.381c3.286-2.165-1.68-3.273-3.662-1.967
			c-17.69,11.657-37.45,19.613-58.867,19.813C1115.057,520.085,1111.271,523.635,1115.19,523.599L1115.19,523.599z"/>
	</g>
</g>
<g>
	<g>
		<path d="M-189.324,449.661c-32.98,2.309-65.852,10.152-96.288,23.068c-3.657,1.552-0.413,4.724,2.577,3.455
			c29.447-12.496,61.306-20.01,93.207-22.242C-186.549,453.713-185.372,449.385-189.324,449.661L-189.324,449.661z"/>
	</g>
</g>
<g>
	<g>
		<path d="M151.505,307.838c-1.06-13.056-13.517-18.788-24.583-22.216c-15.311-4.742-31.414-6.361-46.622-11.511
			c-6.607-2.237-13.039-5.315-18.058-10.252c-6.121-6.021-9.81-15.553-13.335-23.218c-9.272-20.159-17.549-45.209-11.099-67.352
			c0.461-1.583-5.267-0.757-5.749,0.899c-6.3,21.629,1.256,45.471,9.876,65.373c3.524,8.136,7.444,16.8,12.75,23.957
			c4.024,5.428,10.334,8.817,16.431,11.382c14.745,6.204,31.064,7.879,46.453,11.884c11.947,3.108,26.976,8.269,28.14,22.607
			C145.825,310.817,151.654,309.683,151.505,307.838L151.505,307.838z"/>
	</g>
</g>
<g>
	<g>
		<path d="M462.2,165.035c-13.985-16.788-14.091-39.021-9.165-59.318c4.62-19.032,13.723-40.152,27.98-53.952
			c3.357-3.25,7.369-5.881,9.906-9.884c3.298-5.203,2.885-12.464,2.775-18.319c-0.174-9.28-2.282-17.484-4.522-26.406
			c-0.871-3.467-1.375-6.942-0.589-10.469c1.187-5.324,6.848-8.338,11.317-10.452c3.607-1.707,0.357-4.39-2.469-3.053
			c-7.13,3.374-14.284,8.121-15.1,16.622c-0.778,8.104,3.498,16.51,4.857,24.384c1.302,7.539,2.174,18.96-1.222,26.237
			c-2.138,4.582-7.536,7.695-11.025,11.165c-14.245,14.166-22.86,35.519-27.753,54.669c-5.312,20.792-4.598,44.094,9.676,61.229
			C458.41,169.34,463.952,167.138,462.2,165.035L462.2,165.035z"/>
	</g>
</g>
<g>
	<g>
		<path d="M645.851,339.169c18.18-9.345,36.896-14.271,57.001-8.723c8.169,2.255,15.993,5.691,23.776,8.997
			c9.196,3.905,18.939,6.936,27.92,11.268c15.125,7.294,24.659,22.762,34.176,35.878c8.292,11.429,17.661,22.845,32.033,26.181
			c2.918,0.678,5.796-3.441,1.975-4.328c-15.503-3.599-24.896-19.123-33.542-31.153c-9.569-13.315-20.092-26.401-35.814-32.535
			c-17.246-6.728-34.424-15.475-52.521-19.65c-20.058-4.627-39.763,1.348-57.605,10.52
			C639.736,337.43,642.886,340.694,645.851,339.169L645.851,339.169z"/>
	</g>
</g>
<g>
	<g>
		<path d="M758.496,352.856c17.809-16.497,40.826-20.775,63.59-26.321c20.544-5.005,39.644-13.161,51.754-31.352
			c1.301-1.955-4.434-1.179-5.322,0.155c-6.26,9.402-14.422,16.514-24.575,21.449c-9.814,4.77-20.766,7.042-31.33,9.483
			c-21.735,5.022-42.699,11.233-59.438,26.74c-1.043,0.966,0.892,1.345,1.471,1.328C756.047,354.3,757.464,353.813,758.496,352.856
			L758.496,352.856z"/>
	</g>
</g>
<g>
	<g>
		<path d="M664.151,423.634c14.077-5.668,27.876-12.15,42.554-16.169c14.034-3.842,27.028-2.895,40.141,3.246
			c9.523,4.46,18.958,10.794,29.726,11.521c11.165,0.753,18.954-6.719,23.316-16.251c0.434-0.949-5.038-0.473-5.719,1.014
			c-2.382,5.207-6.078,12.294-12.523,12.855c-5.453,0.476-11.312-2.358-16.102-4.578c-9.409-4.363-18.492-10.278-28.922-11.855
			c-26.142-3.952-50.951,9.403-74.48,18.878C658.315,423.834,661.948,424.521,664.151,423.634L664.151,423.634z"/>
	</g>
</g>
<g>
	<g>
		<path d="M593.954,654.937c-11.458-26.248-25.006-51.643-41.133-75.33c-15.169-22.279-33.149-43.827-55.841-58.764
			c-1.378-0.907-6.272,1.442-5.46,1.977c23.048,15.172,41.021,37.066,56.412,59.673c15.81,23.22,28.997,48.273,40.226,73.997
			C588.778,657.91,594.409,655.979,593.954,654.937L593.954,654.937z"/>
	</g>
</g>
<g>
	<g>
		<path d="M673.076,25.896C717.882,3.089,742.341-44.972,783.32-72.98c17.898-12.233,35.128-28.25,41.988-49.402
			c7.444-22.955-1.925-46.275-15.084-65.106c-1.047-1.499-6.333,0.784-5.795,1.553c13.233,18.939,22.108,41.476,15.15,64.529
			c-6.543,21.678-25.199,37.71-43.323,49.893c-40.016,26.899-62.992,74.32-106.56,96.497
			C666.263,26.731,671.638,26.628,673.076,25.896L673.076,25.896z"/>
	</g>
</g>
<g>
	<g>
		<path d="M790.719,74.166c28.185-24.463,64.315-48.722,67.588-89.322c0.875-10.857-0.639-21.854-2.996-32.434
			c-2.745-12.323-7.434-22.518-14.207-33.103c-7.027-10.984-14.858-21.565-20.271-33.488c-2.254-4.967-3.836-10.208-4.43-15.635
			c-0.39-3.569-2.495-10.349-0.032-13.64c1.045-1.395,4.549-1.908,6.066-2.881c4.066-2.608,6.436-6.839,8.262-11.189
			c1.903-4.533,5.914-7.492,7.996-11.867c2.371-4.981-1.288-10.536-4.001-14.484c-1.516-2.206-7.03,0.054-5.301,2.571
			c2.879,4.19,5.886,8.786,2.399,13.42c-2.76,3.67-5.401,6.701-7.209,11.005c-1.438,3.424-3.507,6.682-6.965,8.269
			c-2.033,0.933-4.218,1.376-5.813,3.079c-1.799,1.918-2.118,4.5-2.177,7.026c-0.126,5.497,0.83,11.387,2.134,16.707
			c2.848,11.629,9.945,22.196,16.412,32.077c6.777,10.354,14.848,20.738,18.453,32.722c3.537,11.758,5.955,23.97,6.021,36.28
			c0.103,19.092-7.416,35.848-19.692,50.163c-13.52,15.764-30.478,28.461-46.098,42.02
			C783.889,74.039,788.495,76.096,790.719,74.166L790.719,74.166z"/>
	</g>
</g>
<g>
	<path d="M498.817,237.043c0.35-3.203,1.014-6.549,1.97-9.698c0.95-3.174,2.192-6.242,3.652-9.166
		c2.924-5.857,6.697-11.113,10.803-15.892c8.256-9.561,17.728-17.389,26.802-25.25c9.057-7.844,18.009-15.69,24.729-24.931
		c1.667-2.307,3.177-4.696,4.474-7.172c0.321-0.62,0.637-1.243,0.93-1.873l0.436-0.948l0.207-0.477l0.104-0.239
		c0.113-0.302-0.096,0.278-0.059,0.168l0.044-0.134c0.242-0.722,0.479-1.437,0.674-2.08c0.208-0.656,0.406-1.359,0.596-2.038
		c1.512-5.484,2.255-11.075,1.935-16.653c-0.502-11.182-5.731-22.159-8.664-34.317c-0.737-3.028-1.339-6.111-1.765-9.223
		c-0.213-1.556-0.385-3.118-0.512-4.683L565,70.198c-0.063-0.794-0.115-1.596-0.153-2.374c-0.309-6.29,0.143-12.572,1.182-18.713
		c2.091-12.3,6.438-24.002,11.984-34.946c5.57-10.952,12.367-21.193,19.974-30.74c7.621-9.539,16.057-18.408,25.263-26.42
		l0.865-0.748l0.435-0.372c0.003-0.001,0.148-0.129,0.033-0.026l0.104-0.096l0.206-0.193l1.641-1.539l3.247-3.105
		c2.149-2.084,4.269-4.197,6.344-6.347c4.15-4.299,8.132-8.749,11.806-13.426c3.672-4.676,7.025-9.588,9.884-14.774
		c2.864-5.181,5.213-10.64,7.008-16.291c3.611-11.314,4.991-23.29,5.472-35.256c0.238-5.992,0.248-12.002,0.139-18.015
		c-0.14-5.999-0.313-12.073-0.232-18.113c0.071-6.048,0.325-12.111,1.057-18.142c0.741-6.018,1.973-12.046,4.317-17.702
		c2.313-5.662,5.897-10.791,10.329-14.96c4.42-4.197,9.511-7.562,14.736-10.579c5.24-3.012,10.654-5.687,16.101-8.276
		c5.45-2.583,10.943-5.067,16.438-7.547c-5.451,2.576-10.9,5.156-16.301,7.832c-5.396,2.682-10.756,5.447-15.918,8.536
		c-5.149,3.093-10.135,6.521-14.398,10.715c-4.277,4.171-7.66,9.208-9.817,14.754c-2.186,5.542-3.293,11.463-3.92,17.406
		c-0.616,5.955-0.765,11.963-0.73,17.969c0.026,6.019,0.301,11.997,0.548,18.048c0.215,6.041,0.311,12.093,0.177,18.153
		c-0.276,12.098-1.452,24.34-4.98,36.108c-1.752,5.873-4.093,11.586-6.969,17.009c-2.869,5.428-6.25,10.566-9.938,15.437
		c-3.691,4.872-7.683,9.49-11.828,13.938c-2.074,2.224-4.188,4.406-6.328,6.557l-3.233,3.202l-1.63,1.584l-0.203,0.196l-0.28,0.26
		l-0.418,0.371l-0.832,0.744c-8.849,7.977-16.949,16.796-24.216,26.225c-7.253,9.436-13.68,19.51-18.86,30.153
		c-5.161,10.633-9.088,21.88-10.838,33.417c-0.872,5.761-1.182,11.583-0.798,17.334c0.048,0.727,0.107,1.428,0.174,2.135
		l0.213,2.265c0.142,1.438,0.325,2.87,0.546,4.297c0.442,2.855,1.045,5.687,1.784,8.504c1.463,5.64,3.513,11.196,5.434,17.025
		c1.917,5.81,3.604,12.028,4.057,18.504c0.489,6.467-0.278,13-1.866,19.158c-0.202,0.776-0.4,1.527-0.633,2.313
		c-0.23,0.803-0.456,1.522-0.681,2.234l-0.042,0.135c0.011-0.02-0.236,0.647-0.16,0.432l-0.116,0.282l-0.234,0.563l-0.489,1.116
		c-0.331,0.741-0.684,1.47-1.045,2.194c-1.453,2.891-3.13,5.637-4.95,8.247c-3.648,5.222-7.845,9.899-12.199,14.285
		c-4.361,4.385-8.897,8.484-13.41,12.514c-9.007,8.051-18.051,15.849-25.427,24.707c-3.674,4.419-6.888,9.106-9.27,14.089
		c-2.392,4.999-3.899,10.198-4.393,15.693L498.817,237.043z"/>
</g>
<g>
	<path d="M545.918,942.531c5.043-13.741,7.02-28.886,9.567-44.486c1.286-7.802,2.741-15.751,4.937-23.68
		c2.188-7.916,5.165-15.821,9.305-23.202c2.062-3.689,4.407-7.236,7.003-10.582l0.985-1.244l0.249-0.31
		c-0.394,0.528-0.047,0.062-0.107,0.141l0.108-0.148l0.431-0.593c0.652-0.882,1.297-1.737,1.957-2.559
		c1.32-1.664,2.718-3.273,4.175-4.83c5.832-6.234,12.835-11.416,20.304-15.287c7.471-3.902,15.307-6.575,22.986-8.792
		c7.69-2.221,15.275-4.022,22.512-6.248c7.228-2.221,14.118-4.894,20.206-8.679c3.047-1.884,5.887-4.039,8.482-6.467
		c0.65-0.605,1.285-1.229,1.902-1.869l2.076-2.096c1.296-1.331,2.554-2.701,3.779-4.105c4.907-5.618,9.196-11.819,13.24-18.347
		c4.069-6.517,7.867-13.396,12.479-20.127c2.312-3.354,4.851-6.664,7.78-9.727c2.921-3.062,6.248-5.855,9.911-8.135
		c3.658-2.289,7.626-4.045,11.675-5.297c4.053-1.258,8.184-2.031,12.288-2.473c4.098-0.442,8.224-0.561,12.226-0.475
		c4.095,0.087,8.088,0.382,12.088,0.833c7.982,0.903,15.807,2.43,23.502,4.16c15.386,3.447,30.361,7.773,45.547,9.5
		c15.319,1.581,30.916,1.92,46.439,1.527c15.541-0.407,31.081-1.573,46.547-3.39c15.463-1.826,30.862-4.296,46.089-7.561
		c7.612-1.636,15.182-3.472,22.67-5.58l2.805-0.804c1.024-0.297,1.922-0.506,2.859-0.771c1.86-0.51,3.722-1.059,5.57-1.638
		c3.701-1.156,7.372-2.439,11.036-3.772c7.328-2.656,14.631-5.55,22.202-7.793c7.552-2.253,15.435-3.754,23.377-3.737
		c7.939-0.028,15.818,1.461,23.294,3.903c7.498,2.419,14.654,5.655,21.792,8.835c7.137,3.183,14.302,6.315,21.768,8.605
		c7.449,2.306,15.213,3.697,23.04,3.766c-7.826,0.088-15.646-1.15-23.173-3.317c-7.544-2.15-14.806-5.155-22.007-8.195
		c-7.203-3.039-14.393-6.116-21.838-8.354c-7.426-2.263-15.137-3.553-22.855-3.372c-7.722,0.14-15.34,1.744-22.712,4.103
		c-7.388,2.349-14.586,5.364-21.902,8.185c-3.658,1.414-7.345,2.786-11.084,4.037c-1.87,0.626-3.748,1.222-5.648,1.783
		c-0.938,0.285-1.939,0.545-2.787,0.812l-2.817,0.868c-7.522,2.28-15.122,4.285-22.766,6.088c-15.292,3.599-30.76,6.397-46.319,8.55
		c-15.561,2.143-31.22,3.633-46.938,4.359c-15.729,0.707-31.476,0.692-47.308-0.622c-15.983-1.508-31.271-5.626-46.449-8.696
		c-15.142-3.093-30.447-5.271-45.264-3.476c-7.317,0.922-14.308,3.053-20.175,6.906c-5.904,3.813-10.607,9.338-14.708,15.597
		c-4.117,6.257-7.766,13.157-11.837,19.991c-4.053,6.844-8.543,13.651-13.808,19.927c-1.314,1.569-2.67,3.107-4.072,4.606
		l-2.011,2.111c-0.724,0.781-1.47,1.543-2.234,2.286c-3.057,2.977-6.426,5.638-9.985,7.938c-7.129,4.629-14.911,7.771-22.562,10.291
		c-7.669,2.522-15.275,4.485-22.566,6.756c-7.289,2.259-14.276,4.84-20.615,8.318c-6.342,3.46-11.993,7.84-16.751,13.125
		c-1.188,1.322-2.33,2.689-3.412,4.111c-0.55,0.714-1.067,1.432-1.564,2.131l-0.419,0.602l-0.104,0.15
		c-0.133,0.178,0.148-0.186-0.323,0.437l-0.206,0.267l-0.813,1.07c-2.139,2.878-4.058,5.911-5.747,9.083
		c-3.389,6.342-5.849,13.225-7.68,20.411c-1.838,7.189-3.067,14.675-4.168,22.323c-1.102,7.65-2.075,15.477-3.443,23.407
		c-1.363,7.911-3.152,16.002-5.846,23.872L545.918,942.531z"/>
</g>
<g>
	<g>
		<path d="M889.812,730.606c11.943-13.4,28.035-22.798,37.351-38.523c4.553-7.686,6.574-17.075,5.415-25.925
			c-1.184-9.036-6.205-17.085-8.894-25.683c-5.504-17.604,4.872-34.688,14.075-48.934c9.956-15.411,20.294-30.956,20.554-49.966
			c0.023-1.711-10.583-0.24-10.625,2.848c-0.254,18.569-10.666,33.961-20.41,48.983c-8.832,13.616-18.187,29.278-15.146,46.21
			c1.517,8.448,6.213,16.036,8.676,24.209c2.821,9.363,1.316,19.077-2.869,27.779c-8.052,16.743-25.727,26.3-37.749,39.788
			C877.978,733.875,888.121,732.503,889.812,730.606L889.812,730.606z"/>
	</g>
</g>
<path d="M-62.534,549.313c4.338-23.938,21.001-41.745,39.821-44.619c3.788-0.578,7.317,1.355,11.197,2.059
	c3.188,0.578,6.558-0.324,9.39,1.054c17.743,8.629,27.942,31.906,23.448,56.702c-4.241,23.406-19.192,41.146-37.496,44.6
	c-4.183,0.789-9.092,10.581-15.596,9.402c-6.503-1.178-7.731-12.097-11.396-14.333C-59.035,594.488-66.768,572.673-62.534,549.313z"
	/>
<path d="M-21.395,806.915c3.194-36.013,25.457-64.611,52.921-71.401c5.528-1.366,11.012,1.021,16.849,1.538
	c4.795,0.427,9.662-1.363,14.039,0.294c27.422,10.38,45.653,43.456,42.342,80.758c-3.122,35.213-22.859,63.48-49.482,71.06
	c-6.084,1.731-12.031,16.886-21.815,16.017c-9.782-0.866-13.072-16.861-18.796-19.678
	C-10.129,873.303-24.513,842.058-21.395,806.915z"/>
<path d="M-88.476,28.632c14.983-31.211,44.566-49.357,71.474-46.203c5.416,0.636,9.528,4.621,14.587,7.049
	c4.155,1.997,9.121,2.03,12.486,4.988c21.092,18.535,26.305,54.322,10.783,86.65c-14.649,30.519-39.542,50.375-65.961,48.211
	c-6.037-0.495-22.253,13.403-30.732,9.332c-8.479-4.068-4.889-24.144-9.072-28.595C-103.032,90.784-103.098,59.088-88.476,28.632z"
	/>
<path d="M913.392,61.781c-12.122-27.359-7.465-56.991,9.701-72.918c3.456-3.206,8.383-3.674,12.816-5.639
	c3.645-1.613,6.45-4.86,10.284-5.415c24.019-3.477,50.479,13.167,63.033,41.505c11.854,26.75,8.894,55.131-7.347,71.292
	c-3.712,3.693-1.943,17.05-9.376,20.342c-7.432,3.295-16.226-6.969-21.5-6.714C948.161,105.338,925.221,88.479,913.392,61.781z"/>
<path d="M404.662,49.621C397.936,13.316,412-20.92,437.16-35.128c5.064-2.859,11.112-2.013,16.996-3.104
	c4.836-0.894,9.132-3.99,13.893-3.559c29.823,2.696,56.824,30.239,63.789,67.845c6.58,35.499-5.091,68.717-29.205,83.47
	c-5.512,3.372-7.209,19.91-17.072,21.736c-9.862,1.829-17.482-13.005-23.886-14.208C433.94,111.846,411.226,85.048,404.662,49.621z"
	/>
<path d="M662.422,522.478c-3.169-38.684,15.186-72.991,43.009-85.171c5.602-2.451,11.836-0.923,18.106-1.436
	c5.15-0.421,9.973-3.199,14.906-2.243c30.902,5.995,56.206,37.675,59.487,77.744c3.101,37.825-12.642,71.322-39.431,84.184
	c-6.123,2.939-9.658,20.056-20.166,20.913c-10.51,0.863-16.899-15.461-23.468-17.401
	C686.415,590.67,665.514,560.228,662.422,522.478z"/>
<path d="M290.303,287.518c10.829-31.197,36.906-51.59,62.747-51.507c5.202,0.018,9.529,3.35,14.586,5.106
	c4.153,1.442,8.861,0.938,12.372,3.377c21.991,15.287,30.797,48.64,19.579,80.954c-10.587,30.505-34.352,51.166-59.622,51.968
	c-5.776,0.184-14.41,12.29-22.882,9.346c-8.477-2.94-7.839-17.841-12.285-21.609C285.54,348.838,279.735,317.961,290.303,287.518z"
	/>
<path d="M653.988,815.059c3.689-31.116,23.707-55.321,47.673-60.502c4.825-1.042,9.513,1.166,14.557,1.765
	c4.142,0.492,8.403-0.935,12.153,0.612c23.49,9.693,38.438,38.813,34.615,71.043c-3.605,30.425-21.427,54.407-44.684,60.293
	c-5.315,1.345-10.854,14.321-19.306,13.317c-8.453-1.001-10.896-14.94-15.781-17.528
	C662.05,872.857,650.389,845.422,653.988,815.059z"/>
<path d="M1148.944,641.198c-6.842-35.634,6.76-69.366,31.392-83.489c4.959-2.842,10.907-2.049,16.684-3.157
	c4.743-0.91,8.945-3.979,13.627-3.587c29.323,2.458,56.031,29.351,63.118,66.26c6.692,34.842-4.564,67.559-28.166,82.211
	c-5.395,3.349-6.955,19.611-16.634,21.469c-9.68,1.859-17.265-12.668-23.563-13.811
	C1178.114,702.156,1155.622,675.97,1148.944,641.198z"/>
<path d="M202.889,44.43c4.577-38.604,29.412-68.633,59.145-75.061c5.986-1.292,11.802,1.447,18.06,2.189
	c5.138,0.611,10.425-1.16,15.078,0.76c29.143,12.026,47.687,48.152,42.945,88.138c-4.473,37.746-26.583,67.5-55.436,74.801
	c-6.594,1.668-13.466,17.768-23.951,16.522c-10.487-1.242-13.517-18.536-19.579-21.746C212.89,116.137,198.423,82.1,202.889,44.43z"
	/>
</svg>
