<?xml version="1.0" encoding="utf-8"?>
<!-- Generator: Adobe Illustrator 15.0.0, SVG Export Plug-In . SVG Version: 6.00 Build 0)  -->
<!DOCTYPE svg PUBLIC "-//W3C//DTD SVG 1.1//EN" "http://www.w3.org/Graphics/SVG/1.1/DTD/svg11.dtd">
<svg version="1.1" id="Layer_1" xmlns="http://www.w3.org/2000/svg" xmlns:xlink="http://www.w3.org/1999/xlink" x="0px" y="0px"
	 width="100px" height="100px" viewBox="0 0 100 100" enable-background="new 0 0 100 100" xml:space="preserve">
<g>
	<path fill-rule="evenodd" clip-rule="evenodd" fill="#221E1B" d="M80.584,28.32c-2.398,1.422-5.056,2.456-7.884,3.012
		c-2.264-2.413-5.491-3.92-9.062-3.92c-6.855,0-12.415,5.559-12.415,12.415c0,0.973,0.11,1.921,0.322,2.829
		c-10.318-0.518-19.466-5.46-25.589-12.971c-1.068,1.833-1.681,3.966-1.681,6.241c0,4.308,2.191,8.107,5.522,10.334
		c-2.035-0.064-3.949-0.623-5.623-1.553c-0.002,0.052-0.002,0.104-0.002,0.156c0,6.015,4.28,11.032,9.959,12.173
		c-1.041,0.284-2.138,0.436-3.271,0.436c-0.8,0-1.577-0.078-2.336-0.223c1.58,4.932,6.165,8.521,11.598,8.621
		c-4.249,3.33-9.602,5.314-15.418,5.314c-1.002,0-1.99-0.059-2.962-0.174c5.494,3.523,12.02,5.578,19.03,5.578
		c22.835,0,35.323-18.916,35.323-35.322c0-0.538-0.013-1.074-0.036-1.606c2.425-1.75,4.529-3.937,6.194-6.426
		c-2.227,0.988-4.619,1.655-7.13,1.955C77.688,33.651,79.657,31.219,80.584,28.32z"/>
	<path fill-rule="evenodd" clip-rule="evenodd" fill="#221E1B" d="M50,0.833C22.846,0.833,0.833,22.846,0.833,50
		S22.846,99.167,50,99.167S99.167,77.154,99.167,50S77.154,0.833,50,0.833z M50,96.669C24.226,96.669,3.331,75.775,3.331,50
		C3.331,24.226,24.226,3.331,50,3.331c25.775,0,46.669,20.895,46.669,46.669C96.669,75.775,75.775,96.669,50,96.669z"/>
</g>
</svg>
